<?xml version="1.0" encoding="UTF-8"?>
<svg version="1.1" xmlns="http://www.w3.org/2000/svg" width="864" height="720">
<path d="M0 0 C201.3 0 402.6 0 610 0 C610 12.54 610 25.08 610 38 C408.7 38 207.4 38 0 38 C0 25.46 0 12.92 0 0 Z " fill="#FCFCFC" transform="translate(146,434)"/>
<path d="M0 0 C9.57 0 19.14 0 29 0 C34.58610841 15.02573546 39.94778544 30.12205853 45.25 45.25 C46.92765129 50.03150787 48.60621733 54.81269412 50.28515625 59.59375 C50.89693474 61.33637115 50.89693474 61.33637115 51.52107239 63.11419678 C53.89218337 69.86329036 56.2769312 76.60725339 58.68359375 83.34375 C58.94909027 84.08759949 59.21458679 84.83144897 59.48812866 85.59783936 C60.67252369 88.91471111 61.86032734 92.23029727 63.05371094 95.54394531 C63.45235352 96.65866211 63.85099609 97.77337891 64.26171875 98.921875 C64.60162842 99.86643555 64.94153809 100.81099609 65.29174805 101.78417969 C66 104 66 104 66 106 C56.76 106 47.52 106 38 106 C35.66666667 99 33.33333333 92 31 85 C21.43 84.67 11.86 84.34 2 84 C3.05072916 76.64489586 4.89947565 70.11467924 7 63 C12.94 63 18.88 63 25 63 C23.21117375 57.74990843 23.21117375 57.74990843 21.41113281 52.50366211 C18.91603143 45.09837329 16.96158219 37.55989748 15 30 C14.80843323 30.66239685 14.61686646 31.3247937 14.41949463 32.00726318 C12.59835784 38.30273886 10.77486152 44.59752591 8.94882584 50.89158249 C8.01051622 54.12608721 7.07306596 57.36083544 6.13769531 60.59619141 C5.05760767 64.3304144 3.97439968 68.06372065 2.890625 71.796875 C2.56128967 72.93799744 2.23195435 74.07911987 1.89263916 75.25482178 C0.06139824 81.5504688 -1.89181805 87.77419595 -4.06646729 93.96026611 C-5.27913392 97.9089053 -6.10393509 101.96770791 -7 106 C-14.59 106 -22.18 106 -30 106 C-30.73209654 91.26742868 -28.65815769 80.72547636 -23.4375 67.0625 C-22.76148392 65.22480176 -22.08894785 63.38582008 -21.41967773 61.5456543 C-20.37369815 58.67190937 -19.32528404 55.7992889 -18.26545715 52.93061829 C-14.51567534 42.77537531 -11.03168074 32.53335599 -7.56546021 22.27853394 C-6.28570851 18.49395013 -4.99892251 14.71177692 -3.71177673 10.92970276 C-2.47289337 7.28702058 -1.23669483 3.64342577 0 0 Z " fill="#FFFFFF" transform="translate(499,313)"/>
<path d="M0 0 C9.57 0 19.14 0 29 0 C30.02996094 2.908125 31.05992187 5.81625 32.12109375 8.8125 C32.65825516 10.32908707 32.65825516 10.32908707 33.20626831 11.87631226 C35.04830276 17.07704265 36.88993361 22.27791552 38.73095703 27.47900391 C42.35588742 37.71864079 45.98298664 47.95747668 49.62348938 58.19158936 C51.17054223 62.54103341 52.71583936 66.89110034 54.26101685 71.24121094 C54.99880748 73.31671827 55.73746377 75.39191811 56.47702026 77.46679688 C57.5155493 80.38072528 58.55104089 83.2957174 59.5859375 86.2109375 C59.88837875 87.05699554 60.19082001 87.90305359 60.50242615 88.77474976 C62.52457458 94.48352816 64.25474695 100.18248982 66 106 C56.76 106 47.52 106 38 106 C35.40918376 99.0911567 33.16995592 92.05235675 31 85 C21.43 84.67 11.86 84.34 2 84 C2.9550055 76.35995597 4.65265044 70.26921153 7 63 C15.415 62.505 15.415 62.505 24 62 C19.545 46.655 19.545 46.655 15 31 C12.53399876 38.38107399 12.53399876 38.38107399 10.23828125 45.80419922 C9.92785889 46.84913544 9.61743652 47.89407166 9.29760742 48.97067261 C8.97252197 50.07089752 8.64743652 51.17112244 8.3125 52.3046875 C7.96872314 53.46445099 7.62494629 54.62421448 7.27075195 55.81912231 C6.54727251 58.26119393 5.82454806 60.70348933 5.10253906 63.14599609 C4.00530547 66.85705585 2.90517702 70.56724838 1.8046875 74.27734375 C1.09878506 76.66140704 0.39305038 79.04552 -0.3125 81.4296875 C-0.63758545 82.52586395 -0.9626709 83.62204041 -1.29760742 84.75143433 C-3.08132296 90.79195945 -4.78679683 96.8431025 -6.37573242 102.9380188 C-7 105 -7 105 -8 106 C-9.63472882 106.08700342 -11.27314055 106.10701063 -12.91015625 106.09765625 C-13.89951172 106.09443359 -14.88886719 106.09121094 -15.90820312 106.08789062 C-16.94912109 106.07951172 -17.99003906 106.07113281 -19.0625 106.0625 C-20.10728516 106.05798828 -21.15207031 106.05347656 -22.22851562 106.04882812 C-24.8190666 106.03699913 -27.40950559 106.02051689 -30 106 C-31.33923427 90.22679638 -27.60559671 77.65246707 -22 63 C-19.62809447 56.78447191 -17.44285434 50.52085027 -15.3125 44.21875 C-14.96872314 43.20582886 -14.62494629 42.19290771 -14.27075195 41.14929199 C-13.17929388 37.93326929 -12.08944371 34.71670559 -11 31.5 C-9.56395698 27.25992082 -8.12623694 23.02041574 -6.6875 18.78125 C-6.19987183 17.33872864 -6.19987183 17.33872864 -5.70239258 15.86706543 C-5.39197021 14.95251587 -5.08154785 14.03796631 -4.76171875 13.09570312 C-4.49319092 12.30264771 -4.22466309 11.50959229 -3.94799805 10.69250488 C-2.68621397 7.10878463 -1.33404498 3.55745329 0 0 Z " fill="#FFFFFF" transform="translate(270,313)"/>
<path d="M0 0 C0 6.6 0 13.2 0 20 C-1.69125 20.556875 -3.3825 21.11375 -5.125 21.6875 C-13.13946662 24.65696263 -17.39941041 28.45186328 -20.9609375 36.1953125 C-25.26653248 47.81718167 -24.8421954 60.59436005 -20 72 C-15.9313389 79.36173368 -10.78969737 82.40343421 -3 85 C-0.21431694 88.67634364 -0.55094283 93.32943637 -0.375 97.75 C-0.31699219 98.93916016 -0.31699219 98.93916016 -0.2578125 100.15234375 C-0.163892 102.10119416 -0.08087178 104.05056451 0 106 C-5.4353036 106 -9.74654003 105.58595018 -15 104 C-15 103.34 -15 102.68 -15 102 C-16.7325 102.185625 -16.7325 102.185625 -18.5 102.375 C-24.04887386 102.35546171 -27.03646231 99.6088242 -31 96 C-31.68320313 95.39671875 -32.36640625 94.7934375 -33.0703125 94.171875 C-43.14067374 84.75244965 -48.67004934 73.02880512 -49.3828125 59.2890625 C-49.70033551 48.30431947 -49.61604981 38.14088444 -45 28 C-44.38125 26.56333984 -44.38125 26.56333984 -43.75 25.09765625 C-37.81390689 12.80387251 -27.36119827 5.76936387 -14.77734375 1.19140625 C-9.64519638 -0.28803981 -5.57434375 0 0 0 Z M-36 51 C-36.66 51.66 -37.32 52.32 -38 53 C-37.19815586 55.14991567 -37.19815586 55.14991567 -35.1875 55.75 C-32.50171361 56.05694702 -31.2747813 55.38111722 -29 54 C-29.78375 53.690625 -30.5675 53.38125 -31.375 53.0625 C-34 52 -34 52 -36 51 Z M-45 66 C-44 68 -44 68 -44 68 Z M-9 89 C-9.33 89.66 -9.66 90.32 -10 91 C-9.34 91 -8.68 91 -8 91 C-8.33 90.34 -8.66 89.68 -9 89 Z M-4 98 C-4.33 99.32 -4.66 100.64 -5 102 C-4.34 102 -3.68 102 -3 102 C-2.67 100.68 -2.34 99.36 -2 98 C-2.66 98 -3.32 98 -4 98 Z M-8 99 C-7 102 -7 102 -7 102 Z " fill="#FFFFFF" transform="translate(183,313)"/>
<path d="M0 0 C0 6.6 0 13.2 0 20 C-2.47395833 20.94401042 -4.94791667 21.88802083 -7.421875 22.83203125 C-9.93130326 23.96887829 -11.81745632 25.3441136 -14 27 C-14.66 27 -15.32 27 -16 27 C-16.43119141 28.09054687 -16.43119141 28.09054687 -16.87109375 29.203125 C-17.56876926 30.93162212 -18.28625591 32.65244744 -19.03515625 34.359375 C-21.16496568 39.31543345 -22.48160381 43.69610568 -22.82421875 49.08984375 C-23 51 -23 51 -24 54 C-23.52627822 56.63889185 -22.97656339 59.15991644 -22.3125 61.75 C-22.15072266 62.4409375 -21.98894531 63.131875 -21.82226562 63.84375 C-20.57928701 68.79704305 -18.61231497 72.62231007 -16 77 C-16 77.66 -16 78.32 -16 79 C-11.4821794 81.34926671 -6.83107317 83.38964228 -2 85 C0.88060575 88.7009107 0.22091084 93.30121276 0.125 97.75 C0.11597656 98.54277344 0.10695313 99.33554687 0.09765625 100.15234375 C0.07417012 102.10169281 0.03830137 104.05088575 0 106 C-0.94875 105.814375 -1.8975 105.62875 -2.875 105.4375 C-5.89868793 104.71313368 -5.89868793 104.71313368 -8 106 C-10.01927511 105.39421747 -12.02253397 104.73080266 -14 104 C-14 103.34 -14 102.68 -14 102 C-15.155 102.12375 -16.31 102.2475 -17.5 102.375 C-23.01882652 102.39453567 -25.9944052 99.46804745 -30 96 C-30.845625 95.4225 -31.69125 94.845 -32.5625 94.25 C-43.30890905 84.3302378 -48.17372094 70.30213933 -49 56 C-49.17211303 40.85405356 -46.03314032 25.14333897 -35.375 13.6875 C-25.05230792 4.2496101 -13.82598388 0 0 0 Z M-35 51 C-35.99 51.495 -35.99 51.495 -37 52 C-36.67 52.99 -36.34 53.98 -36 55 C-34.18343185 55.93391003 -34.18343185 55.93391003 -32 56 C-29.78228936 55.14209817 -29.78228936 55.14209817 -28 54 C-28.78375 53.690625 -29.5675 53.38125 -30.375 53.0625 C-33 52 -33 52 -35 51 Z M-3 98 C-3.33 99.32 -3.66 100.64 -4 102 C-3.34 102 -2.68 102 -2 102 C-1.67 100.68 -1.34 99.36 -1 98 C-1.66 98 -2.32 98 -3 98 Z M-7 100 C-6 102 -6 102 -6 102 Z " fill="#FFFFFF" transform="translate(619,313)"/>
<path d="M0 0 C8.25 0 16.5 0 25 0 C25 34.98 25 69.96 25 106 C17.08 106 9.16 106 1 106 C0.16582709 102.66330837 -0.08840794 100.35950168 0 97 C0 96.34 0 95.68 0 95 C0 88.33333333 0 81.66666667 0 75 C1.32 75 2.64 75 4 75 C4 74.34 4 73.68 4 73 C2.02 73.495 2.02 73.495 0 74 C0 49.58 0 25.16 0 0 Z M14 10 C14.33 10.66 14.66 11.32 15 12 C15.66 12 16.32 12 17 12 C17 11.34 17 10.68 17 10 C16.01 10 15.02 10 14 10 Z M7 68 C7 68.66 7 69.32 7 70 C7.99 69.67 8.98 69.34 10 69 C9.01 68.67 8.02 68.34 7 68 Z " fill="#FFFFFF" transform="translate(341,313)"/>
<path d="M0 0 C3.97921094 -0.02682614 7.95824341 -0.04675393 11.9375 -0.0625 C13.07380859 -0.07087891 14.21011719 -0.07925781 15.38085938 -0.08789062 C16.46044922 -0.09111328 17.54003906 -0.09433594 18.65234375 -0.09765625 C20.15269165 -0.10551147 20.15269165 -0.10551147 21.68334961 -0.11352539 C24 0 24 0 25 1 C25.09829972 2.48810333 25.12798445 3.98082214 25.12939453 5.47216797 C25.13254669 6.42340546 25.13569885 7.37464294 25.13894653 8.35470581 C25.1369223 9.39007477 25.13489807 10.42544373 25.1328125 11.4921875 C25.13424759 13.07750778 25.13424759 13.07750778 25.13571167 14.69485474 C25.13639376 16.9360561 25.13453748 19.17725943 25.13037109 21.41845703 C25.12503382 24.85323529 25.13030967 28.28788215 25.13671875 31.72265625 C25.13605777 33.89583362 25.13477618 36.06901091 25.1328125 38.2421875 C25.13483673 39.273508 25.13686096 40.30482849 25.13894653 41.36740112 C25.13579437 42.32494293 25.13264221 43.28248474 25.12939453 44.26904297 C25.12859894 45.11207977 25.12780334 45.95511658 25.12698364 46.82369995 C25 49 25 49 24 52 C24.495 52.495 24.495 52.495 25 53 C25.10374958 54.58515578 25.13851889 56.17489466 25.14526367 57.76342773 C25.15164352 58.77795517 25.15802338 59.7924826 25.16459656 60.8377533 C25.16570938 61.94188065 25.1668222 63.046008 25.16796875 64.18359375 C25.17129715 65.30943375 25.17462555 66.43527374 25.17805481 67.5952301 C25.18312894 69.98185821 25.18546299 72.36849345 25.18530273 74.75512695 C25.18748851 78.41824974 25.2056374 82.08107122 25.22460938 85.74414062 C25.22754326 88.05729063 25.22952809 90.37044208 25.23046875 92.68359375 C25.23765427 93.78569687 25.24483978 94.88779999 25.25224304 96.02330017 C25.24916641 97.04097977 25.24608978 98.05865936 25.24291992 99.10717773 C25.24434494 100.00572983 25.24576996 100.90428192 25.24723816 101.83006287 C25 104 25 104 23 106 C20.94140625 106.01171875 20.94140625 106.01171875 18.5625 105.6875 C17.38880859 105.53861328 17.38880859 105.53861328 16.19140625 105.38671875 C14 105 14 105 11 104 C11 102.68 11 101.36 11 100 C13.475 99.505 13.475 99.505 16 99 C14.21266773 96.84934216 14.21266773 96.84934216 11.9375 96.5625 C11.298125 96.376875 10.65875 96.19125 10 96 C9.67 95.01 9.34 94.02 9 93 C8.34 93 7.68 93 7 93 C7.33 94.32 7.66 95.64 8 97 C8.66 97 9.32 97 10 97 C10 97.99 10 98.98 10 100 C8.35 99.67 6.7 99.34 5 99 C5 99.66 5 100.32 5 101 C5.99 101 6.98 101 8 101 C8 102.32 8 103.64 8 105 C3.25 104.125 3.25 104.125 1 103 C-0.50145169 99.20045033 -0.13274085 95.03975333 -0.11352539 91.01855469 C-0.11367142 90.2181778 -0.11381744 89.4178009 -0.1139679 88.59317017 C-0.1132723 85.95271069 -0.1054964 83.31232212 -0.09765625 80.671875 C-0.09579082 78.83913207 -0.09436751 77.00638863 -0.09336853 75.17364502 C-0.08955322 70.35350158 -0.07973133 65.53338835 -0.06866455 60.71325684 C-0.05842925 55.79321705 -0.05386637 50.87317237 -0.04882812 45.953125 C-0.03810819 36.30207007 -0.02104359 26.65103755 0 17 C1.32 16.67 2.64 16.34 4 16 C3.34 14.35 2.68 12.7 2 11 C1.34 11 0.68 11 0 11 C0 7.37 0 3.74 0 0 Z M3 6 C3.33 6.99 3.66 7.98 4 9 C5.65 9 7.3 9 9 9 C8.67 7.35 8.34 5.7 8 4 C6.15953612 4 4.60370406 5.17228177 3 6 Z M15 21 C19 22 19 22 19 22 Z M5 22 C6 24 6 24 6 24 Z M3 27 C2.67 28.32 2.34 29.64 2 31 C2.66 30.67 3.32 30.34 4 30 C3.67 29.01 3.34 28.02 3 27 Z M6 28 C7 30 7 30 7 30 Z M10 31 C10 31.99 10 32.98 10 34 C9.34 34 8.68 34 8 34 C8 34.66 8 35.32 8 36 C9.98491642 35.73323796 9.98491642 35.73323796 12 35 C12.33 34.01 12.66 33.02 13 32 C12.01 31.67 11.02 31.34 10 31 Z M4 40 C4.33 40.66 4.66 41.32 5 42 C5.99 42 6.98 42 8 42 C8 41.34 8 40.68 8 40 C6.68 40 5.36 40 4 40 Z M19 53 C23 54 23 54 23 54 Z M11 55 C11.99 55.99 12.98 56.98 14 58 C13.67 57.01 13.34 56.02 13 55 C12.34 55 11.68 55 11 55 Z M20 68 C21 70 21 70 21 70 Z " fill="#FFFFFF" transform="translate(677,313)"/>
<path d="M0 0 C8.25 0 16.5 0 25 0 C25 32.34 25 64.68 25 98 C21.39261294 96.79753765 21.17963661 96.06507049 19.3984375 92.8359375 C18.91213867 91.96976807 18.42583984 91.10359863 17.92480469 90.21118164 C16.87568085 88.29125857 15.82686154 86.37116906 14.77832031 84.45092773 C11.33619986 78.1655672 11.33619986 78.1655672 7.2109375 72.32421875 C-1.51048635 61.03569631 0.22367783 47.6473961 0.97070312 34.08349609 C0.99828461 31.18054529 0.59246236 28.82484047 0 26 C-0.07905625 23.94266727 -0.10779825 21.88304487 -0.09765625 19.82421875 C-0.09443359 18.66728516 -0.09121094 17.51035156 -0.08789062 16.31835938 C-0.07951172 15.12017578 -0.07113281 13.92199219 -0.0625 12.6875 C-0.05798828 11.46998047 -0.05347656 10.25246094 -0.04882812 8.99804688 C-0.03706589 5.99867682 -0.0191311 2.99933211 0 0 Z " fill="#FFFFFF" transform="translate(436,313)"/>
<path d="M0 0 C0.66 0 1.32 0 2 0 C4.30316927 3.07258524 6.16598993 6.45013617 8.125 9.75 C8.68832031 10.67039062 9.25164062 11.59078125 9.83203125 12.5390625 C10.36441406 13.42851562 10.89679688 14.31796875 11.4453125 15.234375 C12.18031982 16.45979004 12.18031982 16.45979004 12.93017578 17.70996094 C14 20 14 20 14 24 C13.34 24 12.68 24 12 24 C11.67 25.32 11.34 26.64 11 28 C12.98 27.34 14.96 26.68 17 26 C18.5625 27.6875 18.5625 27.6875 20 30 C19.6875 32.75 19.6875 32.75 19 35 C20.65 35.66 22.3 36.32 24 37 C24.68176451 57.67958581 25.11432571 78.3070468 25 99 C16.75 99 8.5 99 0 99 C0 79.53 0 60.06 0 40 C1.32 39.34 2.64 38.68 4 38 C2.68 38 1.36 38 0 38 C0 35.69 0 33.38 0 31 C1.65 31 3.3 31 5 31 C5.33 30.34 5.66 29.68 6 29 C5.195625 29.020625 4.39125 29.04125 3.5625 29.0625 C1 29 1 29 0 28 C-0.08767112 25.92737924 -0.10695873 23.85179706 -0.09765625 21.77734375 C-0.09443359 20.51728516 -0.09121094 19.25722656 -0.08789062 17.95898438 C-0.07953403 16.61848891 -0.07106907 15.27799412 -0.0625 13.9375 C-0.0574866 12.59310058 -0.05292342 11.2486994 -0.04882812 9.90429688 C-0.03699488 6.60282059 -0.02050971 3.30143197 0 0 Z M9 37 C10.98 37 12.96 37 15 37 C15.33 36.34 15.66 35.68 16 35 C12.04542152 34.65176193 12.04542152 34.65176193 9 37 Z " fill="#FFFFFF" transform="translate(374,320)"/>
<path d="M0 0 C3.25875 -0.020625 6.5175 -0.04125 9.875 -0.0625 C10.90093262 -0.071604 11.92686523 -0.08070801 12.98388672 -0.09008789 C13.79100098 -0.09258545 14.59811523 -0.09508301 15.4296875 -0.09765625 C16.67081299 -0.10551147 16.67081299 -0.10551147 17.93701172 -0.11352539 C20 0 20 0 22 1 C22 3.64 22 6.28 22 9 C22.33 6.03 22.66 3.06 23 0 C31.25 0 39.5 0 48 0 C47.34 0.33 46.68 0.66 46 1 C46.66 1.99 47.32 2.98 48 4 C49.32069498 16.10637068 43.13052861 27.60737265 36 37 C27.42756729 45.68449065 15.92567588 51.9679054 3.5625 52.1875 C0 52 0 52 -1 51 C-1.07244053 48.98035801 -1.08377188 46.95832876 -1.0625 44.9375 C-1.05347656 43.83277344 -1.04445313 42.72804688 -1.03515625 41.58984375 C-1.02355469 40.73519531 -1.01195312 39.88054687 -1 39 C-0.34 39 0.32 39 1 39 C1.33 39.66 1.66 40.32 2 41 C2 39.68 2 38.36 2 37 C1.01 36.67 0.02 36.34 -1 36 C0 34 0 34 3 33 C3 32.34 3 31.68 3 31 C3.68707031 30.67386719 4.37414062 30.34773438 5.08203125 30.01171875 C6.43361328 29.35623047 6.43361328 29.35623047 7.8125 28.6875 C8.70582031 28.25824219 9.59914063 27.82898438 10.51953125 27.38671875 C12.80285976 26.11021226 14.19764854 24.8456512 16 23 C16.66 23 17.32 23 18 23 C18 22.01 18 21.02 18 20 C12.06 20 6.12 20 0 20 C0 13.4 0 6.8 0 0 Z " fill="#FFFFFF" transform="translate(623,367)"/>
<path d="M0 0 C3.238125 -0.020625 6.47625 -0.04125 9.8125 -0.0625 C10.82932861 -0.071604 11.84615723 -0.08070801 12.89379883 -0.09008789 C13.69841553 -0.09258545 14.50303223 -0.09508301 15.33203125 -0.09765625 C16.56530151 -0.10551147 16.56530151 -0.10551147 17.82348633 -0.11352539 C20 0 20 0 23 1 C23.33 0.67 23.66 0.34 24 0 C25.63472882 -0.08700342 27.27314055 -0.10701063 28.91015625 -0.09765625 C30.39418945 -0.09282227 30.39418945 -0.09282227 31.90820312 -0.08789062 C32.94912109 -0.07951172 33.99003906 -0.07113281 35.0625 -0.0625 C36.62967773 -0.05573242 36.62967773 -0.05573242 38.22851562 -0.04882812 C40.8190666 -0.03699913 43.40950559 -0.02051689 46 0 C48.76261098 5.03900243 48.63932235 9.3627953 47.3125 14.8359375 C45.14174254 21.87280959 42.10791823 27.90583559 38 34 C37.4225 34.886875 36.845 35.77375 36.25 36.6875 C28.44943038 44.70475211 17.11601918 51.53171134 5.71875 52.1171875 C3.81211163 52.12390102 1.90543537 52.06805126 0 52 C0 47.71 0 43.42 0 39 C0.66 39.66 1.32 40.32 2 41 C2 39.68 2 38.36 2 37 C1.34 37 0.68 37 0 37 C0 36.01 0 35.02 0 34 C1.485 33.505 1.485 33.505 3 33 C3 32.34 3 31.68 3 31 C4.03060547 30.51080078 4.03060547 30.51080078 5.08203125 30.01171875 C6.43361328 29.35623047 6.43361328 29.35623047 7.8125 28.6875 C8.70582031 28.25824219 9.59914062 27.82898438 10.51953125 27.38671875 C12.80285976 26.11021226 14.19764854 24.8456512 16 23 C16.66 23 17.32 23 18 23 C18 22.34 18 21.68 18 21 C12.06 20.67 6.12 20.34 0 20 C0 13.4 0 6.8 0 0 Z " fill="#FFFFFF" transform="translate(186,367)"/>
<path d="M0 0 C1.49121094 1.4675293 1.49121094 1.4675293 2.734375 3.57421875 C3.21745117 4.37263184 3.70052734 5.17104492 4.19824219 5.99365234 C4.71032227 6.88262207 5.22240234 7.7715918 5.75 8.6875 C6.30075195 9.60998535 6.85150391 10.5324707 7.41894531 11.48291016 C9.29878154 14.6441698 11.14968322 17.82138062 13 21 C14.43492984 23.44292108 15.87400489 25.88339582 17.3125 28.32421875 C19.89164637 32.70497603 22.46071305 37.09139853 25.01875305 41.48451233 C27.67055163 46.03797226 30.33349924 50.582041 33.08203125 55.078125 C33.51225586 55.78211426 33.94248047 56.48610352 34.38574219 57.21142578 C35.46086022 58.95971937 36.54444708 60.70279777 37.62890625 62.4453125 C39 65 39 65 39 68 C31.39136195 69.33099974 23.48898798 70.34063492 16 68 C10.34880509 63.6398334 7.61451011 56.57056038 4.62353516 50.27392578 C1.98889666 44.9610683 -1.12078499 39.93759736 -4.19509888 34.87219238 C-5.91957647 32.0160061 -7.6059649 29.13790435 -9.296875 26.26171875 C-11.51504327 22.50089471 -13.74683451 18.75003567 -16.015625 15.01953125 C-16.44456055 14.3136084 -16.87349609 13.60768555 -17.31542969 12.88037109 C-18.07796045 11.62970749 -18.8439673 10.38115324 -19.61425781 9.13525391 C-22 5.21887852 -22 5.21887852 -22 3 C-21.10796875 2.95101563 -20.2159375 2.90203125 -19.296875 2.8515625 C-17.54117187 2.73941406 -17.54117187 2.73941406 -15.75 2.625 C-14.00976562 2.52058594 -14.00976562 2.52058594 -12.234375 2.4140625 C-7.655798 1.82791617 -4.75874001 -0.52839491 0 0 Z " fill="#FFFFFF" transform="translate(421,351)"/>
<path d="M0 0 C11.62468904 0.20795508 22.60365915 5.65996773 31.03515625 13.4140625 C35.67051498 18.31801211 39.61562796 23.8510677 41.75 30.3125 C40.42734072 34.28047785 38.79503672 34.64087012 35.21875 36.46875 C34.4865625 36.8296875 33.754375 37.190625 33 37.5625 C32.28328125 37.93890625 31.5665625 38.3153125 30.828125 38.703125 C27.66619563 40.28408968 25.46370423 41.32127505 21.890625 41.27734375 C19.28063022 40.10094099 18.5868224 39.131542 17.25 36.625 C11.79216021 27.15005453 6.26473077 23.1733098 -4.25 20.3125 C-4.27888514 17.16668577 -4.29675923 14.02090531 -4.3125 10.875 C-4.32087891 9.97716797 -4.32925781 9.07933594 -4.33789062 8.15429688 C-4.34111328 7.30029297 -4.34433594 6.44628906 -4.34765625 5.56640625 C-4.35551147 4.38026733 -4.35551147 4.38026733 -4.36352539 3.17016602 C-4.16431455 -0.08960879 -3.33971794 0.32112673 0 0 Z " fill="#FFFFFF" transform="translate(626.25,312.6875)"/>
<path d="M0 0 C13.30228087 0 24.41754144 4.02673042 34.28515625 13.1015625 C39.28802976 18.39432214 45 25.4177378 45 33 C42.27831329 34.37134601 39.5493512 35.72204712 36.8125 37.0625 C36.04357422 37.45244141 35.27464844 37.84238281 34.48242188 38.24414062 C28.73592542 41.03106809 28.73592542 41.03106809 25.0390625 40.875 C22.07378688 39.60254456 21.51084334 37.84038548 20 35 C14.71596 26.72278544 9.28314698 23.09438233 0 20 C0 13.4 0 6.8 0 0 Z " fill="#FFFFFF" transform="translate(186,313)"/>
<path d="M0 0 C15.33333333 0 30.66666667 0 46 0 C46 6.93 46 13.86 46 21 C39.05827089 21.0246645 32.11656712 21.04284303 25.17480469 21.05493164 C22.81184444 21.05996959 20.44888732 21.06680008 18.0859375 21.07543945 C14.69530465 21.08752854 11.30471291 21.09323359 7.9140625 21.09765625 C6.85256989 21.10281754 5.79107727 21.10797882 4.69741821 21.11329651 C3.71655243 21.11337204 2.73568665 21.11344757 1.72509766 21.11352539 C0.42603989 21.11685631 0.42603989 21.11685631 -0.89926147 21.12025452 C-3 21 -3 21 -5 20 C-5 14.66666667 -5 9.33333333 -5 4 C-4.0409375 3.8453125 -4.0409375 3.8453125 -3.0625 3.6875 C-2.381875 3.460625 -1.70125 3.23375 -1 3 C-0.67 2.01 -0.34 1.02 0 0 Z M1 8 C0.67 9.65 0.34 11.3 0 13 C0.66 13 1.32 13 2 13 C2 14.98 2 16.96 2 19 C3.4606285 16.35261084 4 15.10551666 4 12 C3.34 12 2.68 12 2 12 C2.33 10.68 2.66 9.36 3 8 C2.34 8 1.68 8 1 8 Z " fill="#FFFFFF" transform="translate(710,398)"/>
<path d="M0 0 C16.5 0 33 0 50 0 C50 6.6 50 13.2 50 20 C33.5 20 17 20 0 20 C0 13.4 0 6.8 0 0 Z " fill="#FFFFFF" transform="translate(705,313)"/>
<path d="M0 0 C6.39037231 -0.02527062 12.78073183 -0.04283317 19.17114258 -0.05493164 C21.34692873 -0.05997308 23.52271147 -0.06680607 25.69848633 -0.07543945 C28.81853067 -0.08751338 31.93853038 -0.09323005 35.05859375 -0.09765625 C36.52733192 -0.10539818 36.52733192 -0.10539818 38.02574158 -0.11329651 C39.37702904 -0.11340981 39.37702904 -0.11340981 40.75561523 -0.11352539 C41.95141457 -0.11685631 41.95141457 -0.11685631 43.17137146 -0.12025452 C45 0 45 0 46 1 C46.08651611 2.41570123 46.10704904 3.835595 46.09765625 5.25390625 C46.09443359 6.10791016 46.09121094 6.96191406 46.08789062 7.84179688 C46.07532227 9.18854492 46.07532227 9.18854492 46.0625 10.5625 C46.05798828 11.46419922 46.05347656 12.36589844 46.04882812 13.29492188 C46.03700225 15.53001314 46.0205222 17.76497437 46 20 C39.60962769 20.02527062 33.21926817 20.04283317 26.82885742 20.05493164 C24.65307127 20.05997308 22.47728853 20.06680607 20.30151367 20.07543945 C17.18146933 20.08751338 14.06146962 20.09323005 10.94140625 20.09765625 C9.47266808 20.10539818 9.47266808 20.10539818 7.97425842 20.11329651 C7.07340012 20.11337204 6.17254181 20.11344757 5.24438477 20.11352539 C4.04858543 20.11685631 4.04858543 20.11685631 2.82862854 20.12025452 C1 20 1 20 0 19 C-0.08651611 17.58429877 -0.10704904 16.164405 -0.09765625 14.74609375 C-0.09443359 13.89208984 -0.09121094 13.03808594 -0.08789062 12.15820312 C-0.07951172 11.26037109 -0.07113281 10.36253906 -0.0625 9.4375 C-0.05798828 8.53580078 -0.05347656 7.63410156 -0.04882812 6.70507812 C-0.03700225 4.46998686 -0.0205222 2.23502563 0 0 Z M2 15 C2 15.66 2 16.32 2 17 C2.66 17 3.32 17 4 17 C4 16.34 4 15.68 4 15 C3.34 15 2.68 15 2 15 Z " fill="#FFFFFF" transform="translate(705,353)"/>
<path d="M0 0 C20.43960036 -2.20405692 20.43960036 -2.20405692 25.90722656 1.18066406 C28.89965798 4.31877166 30.56687407 8.09162125 32.17626953 12.07519531 C33.48121972 15.12446244 35.24589481 17.81148475 37 20.625 C39.88815929 25.50545435 39.88815929 25.50545435 40.5 28.2109375 C40.90414091 30.40701119 40.90414091 30.40701119 44 32 C44 33.32 44 34.64 44 36 C36.99370876 37.8849413 30.23589973 39.39700836 23 40 C20 35.25 20 35.25 20 33 C21.32 33 22.64 33 24 33 C23.11054688 32.81953125 22.22109375 32.6390625 21.3046875 32.453125 C16.83073041 30.48585309 15.48978647 27.8876527 13.125 23.75 C12.70299316 23.04286865 12.28098633 22.3357373 11.84619141 21.60717773 C10.54525601 19.41524093 9.27095088 17.20943122 8 15 C7.19324427 13.62078012 6.38597259 12.24186188 5.578125 10.86328125 C0 1.26977444 0 1.26977444 0 0 Z M31 29 C30.67 29.99 30.34 30.98 30 32 C31.32 32.33 32.64 32.66 34 33 C34.33 32.01 34.66 31.02 35 30 C33.68 29.67 32.36 29.34 31 29 Z M36 30 C37 32 37 32 37 32 Z " fill="#FFFFFF" transform="translate(374,313)"/>
<path d="M0 0 C2.3125 1.5625 2.3125 1.5625 4 4 C4.71373503 8.99614519 4.76620649 10.86229946 1.9375 15.0625 C-1 17 -1 17 -4.625 17 C-7.95352525 16.01377029 -8.9658637 15.6498096 -11 13 C-11.62262378 9.95419177 -11.51472236 7.0606609 -11 4 C-7.72771364 -0.36304848 -5.22735001 -1.61798929 0 0 Z " fill="#DCDCDC" transform="translate(474,447)"/>
<path d="M0 0 C3.88298038 0.72805882 5.50430375 1.46178648 8 4.5625 C8.46725754 8.95310968 7.68955212 12.44860811 5.375 16.1875 C3 17.5625 3 17.5625 -0.5 17.625 C-4.66070308 16.36192942 -5.90173875 15.33937024 -8 11.5625 C-8.5625 8.5625 -8.5625 8.5625 -8 5.5625 C-5.53959272 2.23371368 -4.10389613 0.76948052 0 0 Z " fill="#E6E6E6" transform="translate(631,446.4375)"/>
<path d="M0 0 C3.88298038 0.72805882 5.50430375 1.46178648 8 4.5625 C8.46725754 8.95310968 7.68955212 12.44860811 5.375 16.1875 C3 17.5625 3 17.5625 -0.5 17.625 C-4.66070308 16.36192942 -5.90173875 15.33937024 -8 11.5625 C-8.5625 8.5625 -8.5625 8.5625 -8 5.5625 C-5.53959272 2.23371368 -4.10389613 0.76948052 0 0 Z " fill="#E6E6E6" transform="translate(551,446.4375)"/>
<path d="M0 0 C2.27083119 1.68842978 2.9253368 2.55494878 3.3984375 5.375 C3.39070313 6.24125 3.38296875 7.1075 3.375 8 C3.38273437 8.86625 3.39046875 9.7325 3.3984375 10.625 C2.92354013 13.45576078 2.30299085 14.32847438 0 16 C-3.39869737 16.66760127 -6.53899978 17 -10 17 C-10 11.39 -10 5.78 -10 0 C-5.94224885 -1.01443779 -3.97987324 -1.01613785 0 0 Z " fill="#DEDEDE" transform="translate(384,447)"/>
<path d="M0 0 C2.27083119 1.68842978 2.9253368 2.55494878 3.3984375 5.375 C3.39070313 6.24125 3.38296875 7.1075 3.375 8 C3.38273437 8.86625 3.39046875 9.7325 3.3984375 10.625 C2.92354013 13.45576078 2.30299085 14.32847438 0 16 C-3.39869737 16.66760127 -6.53899978 17 -10 17 C-10 11.39 -10 5.78 -10 0 C-5.94224885 -1.01443779 -3.97987324 -1.01613785 0 0 Z " fill="#DEDEDE" transform="translate(363,447)"/>
<path d="M0 0 C0.99 0.66 1.98 1.32 3 2 C3 2.99 3 3.98 3 5 C2.34 5 1.68 5 1 5 C1.515625 5.53625 2.03125 6.0725 2.5625 6.625 C4 9 4 9 3.9375 12.125 C3 15 3 15 1.25 16.375 C-1.41513866 17.11531629 -3.24884645 17.41267303 -6 17 C-8.3125 15.125 -8.3125 15.125 -10 13 C-10 12.34 -10 11.68 -10 11 C-9.01 10.34 -8.02 9.68 -7 9 C-7.66 8.34 -8.32 7.68 -9 7 C-9.3125 4.5 -9.3125 4.5 -9 2 C-5.53001271 -0.31332486 -4.07490752 -0.33957563 0 0 Z " fill="#161618" transform="translate(722,447)"/>
<path d="M0 0 C9 0 9 0 13 3 C12.25 9.75 12.25 9.75 10 12 C6.875 12.125 6.875 12.125 4 12 C4 13.98 4 15.96 4 18 C2.68 18 1.36 18 0 18 C0 12.06 0 6.12 0 0 Z " fill="#959596" transform="translate(581,446)"/>
<path d="M0 0 C2.6015625 -0.29296875 2.6015625 -0.29296875 5.625 -0.1875 C7.12933594 -0.14689453 7.12933594 -0.14689453 8.6640625 -0.10546875 C9.43492187 -0.07066406 10.20578125 -0.03585937 11 0 C11 0.99 11 1.98 11 3 C8.36 3 5.72 3 3 3 C3 3.99 3 4.98 3 6 C5.31 6 7.62 6 10 6 C10 7.32 10 8.64 10 10 C7.69 10 5.38 10 3 10 C3 10.99 3 11.98 3 13 C5.64 13 8.28 13 11 13 C11 14.32 11 15.64 11 17 C9.20841511 17.02696365 7.41671527 17.04637917 5.625 17.0625 C4.62726563 17.07410156 3.62953125 17.08570313 2.6015625 17.09765625 C0 17 0 17 -2 16 C-2.05402274 13.89611431 -2.09280256 11.79183286 -2.125 9.6875 C-2.14820313 8.51574219 -2.17140625 7.34398437 -2.1953125 6.13671875 C-2 3 -2 3 0 0 Z " fill="#BCBCBD" transform="translate(255,447)"/>
<path d="M0 0 C1.8125 0 1.8125 0 4 1 C5.58859553 3.24557401 6.7456217 5.53604263 8 8 C8.33 5.36 8.66 2.72 9 0 C10.32 0 11.64 0 13 0 C13 4.62 13 9.24 13 14 C12.34 13.67 11.68 13.34 11 13 C11.33 13.99 11.66 14.98 12 16 C10.25 15.9375 10.25 15.9375 8 15 C6.40498463 12.75835678 5.25456982 10.46433357 4 8 C3.67 10.97 3.34 13.94 3 17 C1.68 17 0.36 17 -1 17 C-1.02684679 14.35409986 -1.04676357 11.70846904 -1.0625 9.0625 C-1.07087891 8.30775391 -1.07925781 7.55300781 -1.08789062 6.77539062 C-1.09652441 4.85005687 -1.05224333 2.92464419 -1 1 C-0.67 0.67 -0.34 0.34 0 0 Z " fill="#313132" transform="translate(487,447)"/>
<path d="M0 0 C1.77375 0.12375 3.5475 0.2475 5.375 0.375 C6.87160156 0.47941406 6.87160156 0.47941406 8.3984375 0.5859375 C11 1 11 1 13 3 C12.77051048 4.96705305 12.53359649 6.93417585 12.2265625 8.890625 C11.92256339 11.72096157 12.37859962 14.23822054 13 17 C12.01 17 11.02 17 10 17 C10.33 15.35 10.66 13.7 11 12 C8.69 12 6.38 12 4 12 C4 12.66 4 13.32 4 14 C3.01 14.33 2.02 14.66 1 15 C0.67 14.34 0.34 13.68 0 13 C0.66 13 1.32 13 2 13 C2 12.34 2 11.68 2 11 C1.34 11 0.68 11 0 11 C0 7.37 0 3.74 0 0 Z " fill="#343435" transform="translate(671,446)"/>
<path d="M0 0 C3.5625 0.25 3.5625 0.25 6.5625 2.25 C6.5625 3.24 6.5625 4.23 6.5625 5.25 C5.5725 5.25 4.5825 5.25 3.5625 5.25 C4.0575 5.78625 4.5525 6.3225 5.0625 6.875 C6.93739544 9.84358445 6.79751425 11.80312427 6.5625 15.25 C3.93300204 16.96928713 2.69059053 17.26045637 -0.5 17 C-3.4375 16.25 -3.4375 16.25 -6.4375 14.25 C-6.4375 13.26 -6.4375 12.27 -6.4375 11.25 C-1.4875 12.24 -1.4875 12.24 3.5625 13.25 C3.5625 12.26 3.5625 11.27 3.5625 10.25 C2.469375 10.146875 1.37625 10.04375 0.25 9.9375 C-3.4375 9.25 -3.4375 9.25 -5.4375 7.9375 C-6.4375 6.25 -6.4375 6.25 -6.25 4.1875 C-4.77424056 0.66838133 -3.82647798 0.27828931 0 0 Z " fill="#272728" transform="translate(740.4375,446.75)"/>
<path d="M0 0 C2 2 2 2 2 5 C1.34 5 0.68 5 0 5 C0.495 5.53625 0.99 6.0725 1.5 6.625 C3.37489544 9.59358445 3.23501425 11.55312427 3 15 C-1.3164922 15.76173392 -4.74433453 16.16063604 -9 15 C-9.33 13.68 -9.66 12.36 -10 11 C-5.545 11.99 -5.545 11.99 -1 13 C-1.33 12.01 -1.66 11.02 -2 10 C-4.31029085 9.25740651 -6.645752 8.588562 -9 8 C-10 7 -10 7 -10.25 4.5625 C-10.1675 3.716875 -10.085 2.87125 -10 2 C-6.32653229 -0.44897847 -4.33643601 -0.31537716 0 0 Z " fill="#2D2D2F" transform="translate(199,447)"/>
<path d="M0 0 C9.625 -0.25 9.625 -0.25 13 2 C13.33694826 5.20100846 12.91004613 7.92859432 12 11 C9.36 10.67 6.72 10.34 4 10 C3.67 11.32 3.34 12.64 3 14 C2.01 14 1.02 14 0 14 C0 9.38 0 4.76 0 0 Z " fill="#5B5B5B" transform="translate(274,447)"/>
<path d="M0 0 C1.65 0 3.3 0 5 0 C6.65 5.28 8.3 10.56 10 16 C8.68 16 7.36 16 6 16 C5.67 15.34 5.34 14.68 5 14 C2.47266765 13.34444881 2.47266765 13.34444881 0 13 C-0.66 14.32 -1.32 15.64 -2 17 C-2.99 17 -3.98 17 -5 17 C-5.57228292 10.89564881 -2.85637299 5.27330399 0 0 Z " fill="#121213" transform="translate(335,447)"/>
<path d="M0 0 C3.63 0 7.26 0 11 0 C11 0.99 11 1.98 11 3 C8.36 3 5.72 3 3 3 C3 3.99 3 4.98 3 6 C5.31 6 7.62 6 10 6 C10 6.99 10 7.98 10 9 C7.69 9 5.38 9 3 9 C3.33 10.32 3.66 11.64 4 13 C6.31 13 8.62 13 11 13 C11 13.99 11 14.98 11 16 C7.04 16 3.08 16 -1 16 C-1.02692484 13.70839681 -1.04636124 11.41670454 -1.0625 9.125 C-1.07410156 7.84882813 -1.08570313 6.57265625 -1.09765625 5.2578125 C-1 2 -1 2 0 0 Z " fill="#626262" transform="translate(693,447)"/>
<path d="M0 0 C1.65 0 3.3 0 5 0 C5.8394882 2.10171867 6.67139656 4.20646625 7.5 6.3125 C7.9640625 7.48425781 8.428125 8.65601563 8.90625 9.86328125 C10 13 10 13 10 16 C8.68 16 7.36 16 6 16 C6 15.01 6 14.02 6 13 C4.35 13 2.7 13 1 13 C1.33 12.01 1.66 11.02 2 10 C2.66 10 3.32 10 4 10 C3.67 8.68 3.34 7.36 3 6 C2.74605469 6.63808594 2.49210938 7.27617187 2.23046875 7.93359375 C1.88628906 8.75988281 1.54210937 9.58617187 1.1875 10.4375 C0.85105469 11.26121094 0.51460937 12.08492188 0.16796875 12.93359375 C-1 15 -1 15 -4 16 C-3.39891424 10.34979382 -1.92471317 5.33835539 0 0 Z " fill="#161618" transform="translate(156,447)"/>
<path d="M0 0 C3.96 0 7.92 0 12 0 C12 0.99 12 1.98 12 3 C9.36 3 6.72 3 4 3 C2.84162374 7.05431692 3.16308743 9.21812119 5 13 C7.31 13 9.62 13 12 13 C12 13.99 12 14.98 12 16 C10.63875 15.9690625 10.63875 15.9690625 9.25 15.9375 C6.13912132 15.87603436 6.13912132 15.87603436 3.75 16.5625 C2 17 2 17 0 16 C0 10.72 0 5.44 0 0 Z " fill="#4A4A4B" transform="translate(210,447)"/>
<path d="M0 0 C1.32 0.33 2.64 0.66 4 1 C4.66 3.64 5.32 6.28 6 9 C6.66 9 7.32 9 8 9 C8.99 6.03 9.98 3.06 11 0 C11.99 0 12.98 0 14 0 C13.31063929 3.91121498 12.21749819 7.55508596 10.9375 11.3125 C10.57527344 12.38113281 10.21304688 13.44976562 9.83984375 14.55078125 C9.56269531 15.35902344 9.28554687 16.16726563 9 17 C7.68 17 6.36 17 5 17 C4.16301614 14.54285453 3.33027576 12.08441143 2.5 9.625 C2.26152344 8.92632812 2.02304688 8.22765625 1.77734375 7.5078125 C0 2.2265625 0 2.2265625 0 0 Z " fill="#464647" transform="translate(231,447)"/>
<path d="M0 0 C3.20252983 0.54511146 4.69197237 1.16810592 6.9375 3.5 C6.9375 4.49 6.9375 5.48 6.9375 6.5 C5.9475 6.83 4.9575 7.16 3.9375 7.5 C3.2775 6.51 2.6175 5.52 1.9375 4.5 C0.2875 4.83 -1.3625 5.16 -3.0625 5.5 C-3.0625 8.14 -3.0625 10.78 -3.0625 13.5 C-2.4025 13.5 -1.7425 13.5 -1.0625 13.5 C-1.3925 14.49 -1.7225 15.48 -2.0625 16.5 C-5.22365776 15.13016497 -6.0552092 14.5109362 -8.0625 11.5 C-8.5 8.625 -8.5 8.625 -8.0625 5.5 C-5.57165752 2.13003665 -4.17661135 0.68189573 0 0 Z " fill="#2B2B2D" transform="translate(631.0625,446.5)"/>
<path d="M0 0 C3.20252983 0.54511146 4.69197237 1.16810592 6.9375 3.5 C6.9375 4.49 6.9375 5.48 6.9375 6.5 C5.9475 6.83 4.9575 7.16 3.9375 7.5 C3.2775 6.51 2.6175 5.52 1.9375 4.5 C0.2875 4.83 -1.3625 5.16 -3.0625 5.5 C-3.0625 8.14 -3.0625 10.78 -3.0625 13.5 C-2.4025 13.5 -1.7425 13.5 -1.0625 13.5 C-1.3925 14.49 -1.7225 15.48 -2.0625 16.5 C-5.22365776 15.13016497 -6.0552092 14.5109362 -8.0625 11.5 C-8.5 8.625 -8.5 8.625 -8.0625 5.5 C-5.57165752 2.13003665 -4.17661135 0.68189573 0 0 Z " fill="#2B2B2D" transform="translate(551.0625,446.5)"/>
<path d="M0 0 C3.18352727 0.54187698 4.66691062 1.22941062 6.9375 3.5 C6.9375 4.16 6.9375 4.82 6.9375 5.5 C5.9475 5.83 4.9575 6.16 3.9375 6.5 C3.2775 5.84 2.6175 5.18 1.9375 4.5 C-0.66530568 4.82041397 -0.66530568 4.82041397 -3.0625 5.5 C-3.24192163 9.44727588 -3.15600689 12.0980513 -1.0625 15.5 C-5.0625 15.5 -5.0625 15.5 -6.8125 13.875 C-8.45896846 10.74670994 -8.6329606 8.99407118 -8.0625 5.5 C-5.57165752 2.13003665 -4.17661135 0.68189573 0 0 Z " fill="#2C2C2E" transform="translate(655.0625,446.5)"/>
<path d="M0 0 C0.99 0.66 1.98 1.32 3 2 C2.75 4.875 2.75 4.875 2 8 C-0.17454845 9.70857378 -1.77870164 9.96680525 -4.5 10.375 C-7.81719236 9.87742115 -8.94751326 8.58461293 -11 6 C-11 5.34 -11 4.68 -11 4 C-7.54337669 1.69558446 -6.05142119 1.74139865 -2 2 C-1.34 2.33 -0.68 2.66 0 3 C0 2.01 0 1.02 0 0 Z " fill="#E2E2E2" transform="translate(723,454)"/>
<path d="M0 0 C1.9375 0.1875 1.9375 0.1875 4 1 C5.3125 2.9375 5.3125 2.9375 6 5 C5.67 5.66 5.34 6.32 5 7 C4.34 7 3.68 7 3 7 C3 10.3 3 13.6 3 17 C1.68 17 0.36 17 -1 17 C-1.02684679 14.35409986 -1.04676357 11.70846904 -1.0625 9.0625 C-1.07087891 8.30775391 -1.07925781 7.55300781 -1.08789062 6.77539062 C-1.09652441 4.85005687 -1.05224333 2.92464419 -1 1 C-0.67 0.67 -0.34 0.34 0 0 Z " fill="#6B6B6C" transform="translate(487,447)"/>
<path d="M0 0 C1.32 0.33 2.64 0.66 4 1 C4 1.99 4 2.98 4 4 C5.65 4 7.3 4 9 4 C8.67 5.32 8.34 6.64 8 8 C6.68 8 5.36 8 4 8 C4 8.99 4 9.98 4 11 C4.99 11.33 5.98 11.66 7 12 C6.01 12 5.02 12 4 12 C4 12.66 4 13.32 4 14 C3.01 14.33 2.02 14.66 1 15 C0.67 14.34 0.34 13.68 0 13 C0.66 13 1.32 13 2 13 C2 12.34 2 11.68 2 11 C1.34 11 0.68 11 0 11 C0 7.37 0 3.74 0 0 Z " fill="#D0D0D1" transform="translate(671,446)"/>
<path d="M0 0 C3.3 0 6.6 0 10 0 C10.33 0.99 10.66 1.98 11 3 C9.35 3 7.7 3 6 3 C6 7.29 6 11.58 6 16 C5.01 16 4.02 16 3 16 C3 11.71 3 7.42 3 3 C1.35 3 -0.3 3 -2 3 C-1.34 2.67 -0.68 2.34 0 2 C0 1.34 0 0.68 0 0 Z " fill="#5D5D5E" transform="translate(432,447)"/>
<path d="M0 0 C4.49968309 -0.36483917 4.49968309 -0.36483917 6.64453125 1.19921875 C8.42722679 3.56758371 8.40125032 5.05996414 8.375 8 C8.38273437 8.86625 8.39046875 9.7325 8.3984375 10.625 C7.92744173 13.4325042 7.27928589 14.33790791 5 16 C2.3125 16.1875 2.3125 16.1875 0 16 C0 15.34 0 14.68 0 14 C0.99 13.67 1.98 13.34 3 13 C3 9.7 3 6.4 3 3 C2.01 2.67 1.02 2.34 0 2 C0 1.34 0 0.68 0 0 Z " fill="#171718" transform="translate(379,447)"/>
<path d="M0 0 C4.49968309 -0.36483917 4.49968309 -0.36483917 6.64453125 1.19921875 C8.42722679 3.56758371 8.40125032 5.05996414 8.375 8 C8.38273437 8.86625 8.39046875 9.7325 8.3984375 10.625 C7.92744173 13.4325042 7.27928589 14.33790791 5 16 C2.3125 16.1875 2.3125 16.1875 0 16 C0 15.34 0 14.68 0 14 C0.99 13.67 1.98 13.34 3 13 C3 9.7 3 6.4 3 3 C2.01 2.67 1.02 2.34 0 2 C0 1.34 0 0.68 0 0 Z " fill="#171718" transform="translate(358,447)"/>
<path d="M0 0 C1.32 0 2.64 0 4 0 C4 5.61 4 11.22 4 17 C2.68 17 1.36 17 0 17 C0 11.39 0 5.78 0 0 Z " fill="#626263" transform="translate(395,447)"/>
<path d="M0 0 C0 0.99 0 1.98 0 3 C-0.99 3.495 -0.99 3.495 -2 4 C-2.04125 5.258125 -2.0825 6.51625 -2.125 7.8125 C-2.14820313 8.52019531 -2.17140625 9.22789062 -2.1953125 9.95703125 C-2.13254462 12.31359719 -2.13254462 12.31359719 0 15 C-0.99 15.33 -1.98 15.66 -3 16 C-5.28030304 14.28977272 -6.7979461 12.94809908 -7.40625 10.09375 C-7.57178202 6.39686829 -7.4030434 4.55592194 -5.1875 1.5 C-3 0 -3 0 0 0 Z " fill="#303032" transform="translate(414,447)"/>
<path d="M0 0 C0.66 0 1.32 0 2 0 C2 5.61 2 11.22 2 17 C0.68 16.67 -0.64 16.34 -2 16 C-2.05402274 13.89611431 -2.09280256 11.79183286 -2.125 9.6875 C-2.14820313 8.51574219 -2.17140625 7.34398437 -2.1953125 6.13671875 C-2 3 -2 3 0 0 Z " fill="#6B6B6C" transform="translate(297,447)"/>
<path d="M0 0 C6.875 0.875 6.875 0.875 8 2 C8.17299981 5.20049657 7.9097643 7.92954549 7 11 C4.69 10.67 2.38 10.34 0 10 C0 9.01 0 8.02 0 7 C1.32 7 2.64 7 4 7 C4 5.68 4 4.36 4 3 C2.68 3 1.36 3 0 3 C0 2.01 0 1.02 0 0 Z " fill="#3C3C3E" transform="translate(607,447)"/>
<path d="M0 0 C6.875 0.875 6.875 0.875 8 2 C8.17299981 5.20049657 7.9097643 7.92954549 7 11 C4.69 10.67 2.38 10.34 0 10 C0 9.01 0 8.02 0 7 C1.32 6.67 2.64 6.34 4 6 C4 5.34 4 4.68 4 4 C2.68 3.34 1.36 2.68 0 2 C0 1.34 0 0.68 0 0 Z " fill="#313132" transform="translate(279,447)"/>
<path d="M0 0 C2.875 -0.125 2.875 -0.125 6 0 C6.66 0.66 7.32 1.32 8 2 C7.42307692 8.57692308 7.42307692 8.57692308 6 10 C4.00041636 10.04080783 1.99954746 10.04254356 0 10 C0 9.34 0 8.68 0 8 C0.99 7.67 1.98 7.34 3 7 C3.73323796 4.98491642 3.73323796 4.98491642 4 3 C2.68 3 1.36 3 0 3 C0 2.01 0 1.02 0 0 Z " fill="#222224" transform="translate(586,447)"/>
<path d="M0 0 C1.32 0 2.64 0 4 0 C4.33 1.32 4.66 2.64 5 4 C7.31 4 9.62 4 12 4 C12 4.99 12 5.98 12 7 C8.04 7 4.08 7 0 7 C0 4.69 0 2.38 0 0 Z " fill="#5C5C5D" transform="translate(692,456)"/>
<path d="M0 0 C0.99 0 1.98 0 3 0 C3 5.28 3 10.56 3 16 C2.01 16 1.02 16 0 16 C0 10.72 0 5.44 0 0 Z " fill="#0E0E10" transform="translate(451,447)"/>
<path d="M0 0 C0.99 0 1.98 0 3 0 C3 5.28 3 10.56 3 16 C2.01 16 1.02 16 0 16 C0 10.72 0 5.44 0 0 Z " fill="#1F1F20" transform="translate(581,447)"/>
<path d="M0 0 C0.99 0 1.98 0 3 0 C3.08075665 2.29109597 3.13907731 4.58299267 3.1875 6.875 C3.22230469 8.15117187 3.25710938 9.42734375 3.29296875 10.7421875 C3.19628906 11.81726563 3.09960938 12.89234375 3 14 C2.01 14.66 1.02 15.32 0 16 C0 10.72 0 5.44 0 0 Z " fill="#171719" transform="translate(374,447)"/>
<path d="M0 0 C0.99 0 1.98 0 3 0 C3.08075665 2.29109597 3.13907731 4.58299267 3.1875 6.875 C3.22230469 8.15117187 3.25710938 9.42734375 3.29296875 10.7421875 C3.19628906 11.81726563 3.09960938 12.89234375 3 14 C2.01 14.66 1.02 15.32 0 16 C0 10.72 0 5.44 0 0 Z " fill="#171719" transform="translate(353,447)"/>
<path d="M0 0 C2.97 0.495 2.97 0.495 6 1 C6.33 2.32 6.66 3.64 7 5 C6.01 5 5.02 5 4 5 C4 5.66 4 6.32 4 7 C1.03 6.505 1.03 6.505 -2 6 C-2 4.68 -2 3.36 -2 2 C-1.34 2 -0.68 2 0 2 C0 1.34 0 0.68 0 0 Z " fill="#CECECE" transform="translate(740,447)"/>
<path d="M0 0 C1.98073365 0.280828 3.95958448 0.57496614 5.9375 0.875 C7.59072266 1.11863281 7.59072266 1.11863281 9.27734375 1.3671875 C10.17582031 1.57601563 11.07429687 1.78484375 12 2 C12.33 2.66 12.66 3.32 13 4 C10.37050204 5.71928713 9.12809053 6.01045637 5.9375 5.75 C3 5 3 5 0 3 C0 2.01 0 1.02 0 0 Z " fill="#8C8C8C" transform="translate(734,458)"/>
<path d="M0 0 C2.64 0 5.28 0 8 0 C6.25 5.75 6.25 5.75 4 8 C3.01 8 2.02 8 1 8 C1 7.01 1 6.02 1 5 C1.66 4.67 2.32 4.34 3 4 C2.01 3.67 1.02 3.34 0 3 C0 2.01 0 1.02 0 0 Z " fill="#39393B" transform="translate(655,455)"/>
<path d="M0 0 C1.65 0.33 3.3 0.66 5 1 C5.33 2.32 5.66 3.64 6 5 C5.34 5 4.68 5 4 5 C4 5.66 4 6.32 4 7 C1.69 6.34 -0.62 5.68 -3 5 C-2.67 4.01 -2.34 3.02 -2 2 C-1.34 2 -0.68 2 0 2 C0 1.34 0 0.68 0 0 Z " fill="#D4D4D4" transform="translate(719,447)"/>
<path d="M0 0 C1.875 0.125 1.875 0.125 4 1 C6.43029078 5.86058157 6.2118651 10.70337242 6 16 C4.08614468 13.12921701 3.03567048 10.66588344 1.875 7.4375 C1.52179688 6.46683594 1.16859375 5.49617188 0.8046875 4.49609375 C0 2 0 2 0 0 Z " fill="#212123" transform="translate(231,447)"/>
<path d="M0 0 C0.99 0.33 1.98 0.66 3 1 C3 5.29 3 9.58 3 14 C2.01 14.33 1.02 14.66 0 15 C0 10.05 0 5.1 0 0 Z " fill="#373738" transform="translate(602,447)"/>
<path d="M0 0 C0.99 0 1.98 0 3 0 C3 0.99 3 1.98 3 3 C4.32 3 5.64 3 7 3 C7 4.32 7 5.64 7 7 C5.68 7 4.36 7 3 7 C2.67 8.98 2.34 10.96 2 13 C1.67 13 1.34 13 1 13 C0.67 8.71 0.34 4.42 0 0 Z " fill="#9A9A9A" transform="translate(604,447)"/>
<path d="M0 0 C1.65 0.33 3.3 0.66 5 1 C5.33 2.32 5.66 3.64 6 5 C5.34 5 4.68 5 4 5 C3.67 5.66 3.34 6.32 3 7 C1.35 6.67 -0.3 6.34 -2 6 C-2 4.68 -2 3.36 -2 2 C-1.34 2 -0.68 2 0 2 C0 1.34 0 0.68 0 0 Z " fill="#DBDBDB" transform="translate(195,447)"/>
<path d="M0 0 C0.33 0.66 0.66 1.32 1 2 C1.99 2 2.98 2 4 2 C5.49821059 5.37097383 6 7.20442119 6 11 C2.83884224 9.63016497 2.0072908 9.0109362 0 6 C-0.125 2.8125 -0.125 2.8125 0 0 Z " fill="#3F3F40" transform="translate(647,452)"/>
<path d="M0 0 C0.33 0.66 0.66 1.32 1 2 C1.99 2 2.98 2 4 2 C4.33 3.98 4.66 5.96 5 8 C5.66 8 6.32 8 7 8 C6.67 8.99 6.34 9.98 6 11 C2.83884224 9.63016497 2.0072908 9.0109362 0 6 C-0.125 2.8125 -0.125 2.8125 0 0 Z " fill="#39393A" transform="translate(623,452)"/>
<path d="M0 0 C0.33 0.66 0.66 1.32 1 2 C1.99 2 2.98 2 4 2 C4.33 3.98 4.66 5.96 5 8 C5.66 8 6.32 8 7 8 C6.67 8.99 6.34 9.98 6 11 C2.83884224 9.63016497 2.0072908 9.0109362 0 6 C-0.125 2.8125 -0.125 2.8125 0 0 Z " fill="#39393A" transform="translate(543,452)"/>
<path d="M0 0 C0.99 0 1.98 0 3 0 C3 4.62 3 9.24 3 14 C0 11 0 11 -0.29296875 8.30078125 C-0.25816406 7.31464844 -0.22335937 6.32851563 -0.1875 5.3125 C-0.16042969 4.31863281 -0.13335937 3.32476562 -0.10546875 2.30078125 C-0.07066406 1.54152344 -0.03585937 0.78226562 0 0 Z " fill="#0F0F10" transform="translate(497,447)"/>
<path d="M0 0 C0.99 0 1.98 0 3 0 C3 3.96 3 7.92 3 12 C2.01 12 1.02 12 0 12 C0 8.04 0 4.08 0 0 Z " fill="#222224" transform="translate(527,451)"/>
<path d="M0 0 C0.99 0 1.98 0 3 0 C3 3.96 3 7.92 3 12 C2.01 12 1.02 12 0 12 C0 8.04 0 4.08 0 0 Z " fill="#212122" transform="translate(435,451)"/>
<path d="M0 0 C0 0.99 0 1.98 0 3 C-0.99 3.66 -1.98 4.32 -3 5 C-3.72965366 7.56282742 -3.72965366 7.56282742 -4 10 C-4.99 10 -5.98 10 -7 10 C-7.3327958 6.33924624 -7.46170299 4.60499012 -5.1875 1.625 C-3 0 -3 0 0 0 Z " fill="#18181A" transform="translate(470,447)"/>
<path d="M0 0 C0.99 0.33 1.98 0.66 3 1 C3 4.96 3 8.92 3 13 C2.01 13 1.02 13 0 13 C0.66 12.67 1.32 12.34 2 12 C2 11.34 2 10.68 2 10 C1.34 10 0.68 10 0 10 C0 6.7 0 3.4 0 0 Z " fill="#272728" transform="translate(671,447)"/>
<path d="M0 0 C0.66 0.99 1.32 1.98 2 3 C5.58357241 3.25015873 5.58357241 3.25015873 9 3 C9 3.99 9 4.98 9 6 C7.63875 5.9690625 7.63875 5.9690625 6.25 5.9375 C3.57327412 5.9889755 1.53011948 6.2215017 -1 7 C-0.67 4.69 -0.34 2.38 0 0 Z " fill="#707071" transform="translate(213,457)"/>
<path d="M0 0 C2.64 0 5.28 0 8 0 C8 1.32 8 2.64 8 4 C5.36 4 2.72 4 0 4 C0 2.68 0 1.36 0 0 Z " fill="#767677" transform="translate(300,460)"/>
<path d="M0 0 C0.99 0.66 1.98 1.32 3 2 C2.67 3.98 2.34 5.96 2 8 C0.35 8.33 -1.3 8.66 -3 9 C-2.01 6.03 -1.02 3.06 0 0 Z " fill="#6A6A6A" transform="translate(723,454)"/>
<path d="M0 0 C0.33 0 0.66 0 1 0 C2.125 6.625 2.125 6.625 1 10 C1.66 10 2.32 10 3 10 C3 10.99 3 11.98 3 13 C3.33 13.99 3.66 14.98 4 16 C2.68 16 1.36 16 0 16 C0 10.72 0 5.44 0 0 Z " fill="#A6A6A6" transform="translate(670,447)"/>
<path d="M0 0 C0.99 0 1.98 0 3 0 C2.6875 2.875 2.6875 2.875 2 6 C-1 8 -1 8 -4 8 C-2.66666667 5.33333333 -1.33333333 2.66666667 0 0 Z " fill="#202021" transform="translate(475,455)"/>
<path d="M0 0 C0.99 0.33 1.98 0.66 3 1 C1.92598892 3.91517292 1.22189824 5.77810176 -1 8 C-1.99 8 -2.98 8 -4 8 C-4 7.01 -4 6.02 -4 5 C-3.34 4.67 -2.68 4.34 -2 4 C-0.86649466 1.98330173 -0.86649466 1.98330173 0 0 Z " fill="#1A1A1C" transform="translate(636,455)"/>
<path d="M0 0 C0.99 0.33 1.98 0.66 3 1 C1.92598892 3.91517292 1.22189824 5.77810176 -1 8 C-1.99 8 -2.98 8 -4 8 C-4 7.01 -4 6.02 -4 5 C-3.34 4.67 -2.68 4.34 -2 4 C-0.86649466 1.98330173 -0.86649466 1.98330173 0 0 Z " fill="#1A1A1C" transform="translate(556,455)"/>
<path d="M0 0 C6.625 -0.125 6.625 -0.125 10 1 C10 1.66 10 2.32 10 3 C6.37 3 2.74 3 -1 3 C-0.67 2.01 -0.34 1.02 0 0 Z " fill="#484849" transform="translate(524,447)"/>
<path d="M0 0 C0.99 0 1.98 0 3 0 C3 2.97 3 5.94 3 9 C2.01 9 1.02 9 0 9 C0 6.03 0 3.06 0 0 Z " fill="#121214" transform="translate(487,454)"/>
<path d="M0 0 C1.98 0.99 1.98 0.99 4 2 C4 4.62113708 3.68707555 6.50935112 3 9 C2.34 9 1.68 9 1 9 C0.67 9.66 0.34 10.32 0 11 C0 7.37 0 3.74 0 0 Z " fill="#424243" transform="translate(210,452)"/>
<path d="M0 0 C0.66 0 1.32 0 2 0 C1.125 4.875 1.125 4.875 0 6 C-1.99958364 6.04080783 -4.00045254 6.04254356 -6 6 C-6 5.34 -6 4.68 -6 4 C-4.36368108 2.95107762 -2.69514137 1.95093297 -1 1 C-0.67 0.67 -0.34 0.34 0 0 Z " fill="#101011" transform="translate(592,451)"/>
<path d="M0 0 C0.99 0.33 1.98 0.66 3 1 C3 3.64 3 6.28 3 9 C2.01 9 1.02 9 0 9 C0 6.03 0 3.06 0 0 Z " fill="#08080A" transform="translate(395,447)"/>
<path d="M0 0 C3.375 -0.125 3.375 -0.125 7 0 C9 2 9 2 9 6 C8.34 5.67 7.68 5.34 7 5 C7 4.34 7 3.68 7 3 C4.69 3 2.38 3 0 3 C0 2.01 0 1.02 0 0 Z " fill="#585859" transform="translate(675,447)"/>
<path d="M0 0 C0.99 0 1.98 0 3 0 C3.33 1.98 3.66 3.96 4 6 C2.68 6.33 1.36 6.66 0 7 C0 4.69 0 2.38 0 0 Z " fill="#444445" transform="translate(274,454)"/>
<path d="M0 0 C0.33 0 0.66 0 1 0 C1.77112541 4.72314313 2.09764874 9.21521178 2 14 C2.66 14 3.32 14 4 14 C4 14.99 4 15.98 4 17 C2.68 16.67 1.36 16.34 0 16 C0 10.72 0 5.44 0 0 Z " fill="#CCCCCC" transform="translate(601,447)"/>
<path d="M0 0 C0 0.99 0 1.98 0 3 C-2.31 2.67 -4.62 2.34 -7 2 C-7 1.01 -7 0.02 -7 -1 C-3.51418144 -2.2020064 -3.32007656 -2.21338437 0 0 Z " fill="#434344" transform="translate(286,455)"/>
<path d="M0 0 C0 0.99 0 1.98 0 3 C-2.875 3.1875 -2.875 3.1875 -6 3 C-6.66 2.01 -7.32 1.02 -8 0 C-4.71023192 -1.09658936 -3.28696233 -0.79953138 0 0 Z " fill="#EAEAEA" transform="translate(744,457)"/>
<path d="M0 0 C2.64 0 5.28 0 8 0 C8 0.99 8 1.98 8 3 C5.36 3 2.72 3 0 3 C0 2.01 0 1.02 0 0 Z " fill="#404041" transform="translate(300,447)"/>
<path d="M0 0 C2.64 0 5.28 0 8 0 C8 0.99 8 1.98 8 3 C5.36 3 2.72 3 0 3 C0 2.01 0 1.02 0 0 Z " fill="#3A3A3B" transform="translate(258,447)"/>
<path d="M0 0 C3.26954202 0.56371414 4.82575883 1.49962266 7 4 C6.67 4.99 6.34 5.98 6 7 C3 5.1875 3 5.1875 0 3 C0 2.01 0 1.02 0 0 Z " fill="#161618" transform="translate(471,447)"/>
<path d="M0 0 C2.375 0.25 2.375 0.25 5 1 C6.3125 3.0625 6.3125 3.0625 7 5 C6.01 5.33 5.02 5.66 4 6 C1.8125 4.75 1.8125 4.75 0 3 C0 2.01 0 1.02 0 0 Z " fill="#202022" transform="translate(415,447)"/>
<path d="M0 0 C0.66 0.33 1.32 0.66 2 1 C2 2.65 2 4.3 2 6 C0.68 6.33 -0.64 6.66 -2 7 C-2.125 4.625 -2.125 4.625 -2 2 C-1.34 1.34 -0.68 0.68 0 0 Z " fill="#3D3D3E" transform="translate(332,457)"/>
<path d="M0 0 C2.3431213 0.25561323 4.67843403 0.59270772 7 1 C7.33 1.66 7.66 2.32 8 3 C7.01 3 6.02 3 5 3 C4.67 3.99 4.34 4.98 4 6 C4 5.01 4 4.02 4 3 C2.68 3 1.36 3 0 3 C0 2.01 0 1.02 0 0 Z " fill="#4B4B4C" transform="translate(607,447)"/>
<path d="M0 0 C1.32 0 2.64 0 4 0 C4 0.66 4 1.32 4 2 C4.99 2.33 5.98 2.66 7 3 C7 3.66 7 4.32 7 5 C4.625 4.75 4.625 4.75 2 4 C0.6875 1.9375 0.6875 1.9375 0 0 Z " fill="#343435" transform="translate(712,458)"/>
<path d="M0 0 C0.33 0.99 0.66 1.98 1 3 C3.01508358 3.73323796 3.01508358 3.73323796 5 4 C4.01 4 3.02 4 2 4 C2 4.66 2 5.32 2 6 C2.99 6.33 3.98 6.66 5 7 C2.36 7 -0.28 7 -3 7 C-2.01 4.69 -1.02 2.38 0 0 Z " fill="#929292" transform="translate(377,457)"/>
<path d="M0 0 C0.33 0.99 0.66 1.98 1 3 C3.01508358 3.73323796 3.01508358 3.73323796 5 4 C4.01 4 3.02 4 2 4 C2 4.66 2 5.32 2 6 C2.99 6.33 3.98 6.66 5 7 C2.36 7 -0.28 7 -3 7 C-2.01 4.69 -1.02 2.38 0 0 Z " fill="#929292" transform="translate(356,457)"/>
<path d="M0 0 C0 0.99 0 1.98 0 3 C-2.375 3.1875 -2.375 3.1875 -5 3 C-5.66 2.01 -6.32 1.02 -7 0 C-4.3333581 -1.33332095 -2.83319697 -0.67102033 0 0 Z " fill="#F0F0F0" transform="translate(198,457)"/>
<path d="M0 0 C0.66 0 1.32 0 2 0 C2 2.64 2 5.28 2 8 C1.01 8 0.02 8 -1 8 C-1.125 2.25 -1.125 2.25 0 0 Z " fill="#5F5F5F" transform="translate(693,447)"/>
<path d="M0 0 C1.65 0 3.3 0 5 0 C5 1.32 5 2.64 5 4 C3.35 4 1.7 4 0 4 C0 2.68 0 1.36 0 0 Z " fill="#F6F6F6" transform="translate(278,450)"/>
<path d="M0 0 C1.875 0.25 1.875 0.25 4 1 C5.25 3.0625 5.25 3.0625 6 5 C4.35 4.67 2.7 4.34 1 4 C0.67 2.68 0.34 1.36 0 0 Z " fill="#2A2A2B" transform="translate(189,458)"/>
<path d="M0 0 C2.31 0 4.62 0 7 0 C7 0.99 7 1.98 7 3 C4.69 3 2.38 3 0 3 C0 2.01 0 1.02 0 0 Z " fill="#3E3E3F" transform="translate(215,453)"/>
<path d="M0 0 C2.31 0 4.62 0 7 0 C7 0.99 7 1.98 7 3 C4.69 3 2.38 3 0 3 C0 2.01 0 1.02 0 0 Z " fill="#363637" transform="translate(300,453)"/>
<path d="M0 0 C2.31 0 4.62 0 7 0 C7 0.99 7 1.98 7 3 C5.02 3 3.04 3 1 3 C0.67 2.01 0.34 1.02 0 0 Z " fill="#505051" transform="translate(259,460)"/>
<path d="M0 0 C0.66 0 1.32 0 2 0 C2 2.31 2 4.62 2 7 C1.01 7 0.02 7 -1 7 C-1.04254356 5.00045254 -1.04080783 2.99958364 -1 1 C-0.67 0.67 -0.34 0.34 0 0 Z " fill="#39393A" transform="translate(452,456)"/>
<path d="M0 0 C1.70840281 1.63412443 2.93453047 2.86906094 4 5 C2.02 5.33 0.04 5.66 -2 6 C-2 5.34 -2 4.68 -2 4 C-2.66 3.67 -3.32 3.34 -4 3 C-2.68 3 -1.36 3 0 3 C0 2.01 0 1.02 0 0 Z " fill="#868687" transform="translate(198,457)"/>
<path d="M0 0 C1.875 0.25 1.875 0.25 4 1 C5.25 3.0625 5.25 3.0625 6 5 C4.35 4.67 2.7 4.34 1 4 C0.67 2.68 0.34 1.36 0 0 Z " fill="#252526" transform="translate(734,458)"/>
<path d="M0 0 C1.98 0 3.96 0 6 0 C6 0.99 6 1.98 6 3 C3.69 3 1.38 3 -1 3 C-0.67 2.01 -0.34 1.02 0 0 Z " fill="#303032" transform="translate(259,453)"/>
<path d="M0 0 C1.65 0 3.3 0 5 0 C5 1.32 5 2.64 5 4 C3.35 4 1.7 4 0 4 C0 2.68 0 1.36 0 0 Z " fill="#FAFAFA" transform="translate(606,450)"/>
<path d="M0 0 C1.65 0 3.3 0 5 0 C5 1.32 5 2.64 5 4 C3.35 4 1.7 4 0 4 C0 2.68 0 1.36 0 0 Z " fill="#FAFAFA" transform="translate(585,450)"/>
<path d="M0 0 C2.475 0.495 2.475 0.495 5 1 C5.33 2.32 5.66 3.64 6 5 C4.125 4.75 4.125 4.75 2 4 C0.75 1.9375 0.75 1.9375 0 0 Z " fill="#222224" transform="translate(741,447)"/>
<path d="M0 0 C1.32 0.66 2.64 1.32 4 2 C4 2.99 4 3.98 4 5 C2.68 4.67 1.36 4.34 0 4 C0 2.68 0 1.36 0 0 Z " fill="#3A3A3B" transform="translate(465,458)"/>
<path d="M0 0 C0.99 0 1.98 0 3 0 C3.1875 2.875 3.1875 2.875 3 6 C2.01 6.66 1.02 7.32 0 8 C0 5.36 0 2.72 0 0 Z " fill="#29292B" transform="translate(374,455)"/>
<path d="M0 0 C0.99 0 1.98 0 3 0 C3.1875 2.875 3.1875 2.875 3 6 C2.01 6.66 1.02 7.32 0 8 C0 5.36 0 2.72 0 0 Z " fill="#29292B" transform="translate(353,455)"/>
<path d="M0 0 C1.98 0 3.96 0 6 0 C6 0.99 6 1.98 6 3 C3.69 3 1.38 3 -1 3 C-0.67 2.01 -0.34 1.02 0 0 Z " fill="#333335" transform="translate(697,453)"/>
<path d="M0 0 C1.65 0 3.3 0 5 0 C4.67 1.32 4.34 2.64 4 4 C2.68 4 1.36 4 0 4 C0 2.68 0 1.36 0 0 Z " fill="#FBFBFB" transform="translate(675,450)"/>
<path d="M0 0 C0.99 0 1.98 0 3 0 C3.33 1.98 3.66 3.96 4 6 C2.68 5.67 1.36 5.34 0 5 C0 3.35 0 1.7 0 0 Z " fill="#707070" transform="translate(210,447)"/>
<path d="M0 0 C0.33 0.66 0.66 1.32 1 2 C1.99 2 2.98 2 4 2 C4 3.32 4 4.64 4 6 C2.68 6 1.36 6 0 6 C0 4.02 0 2.04 0 0 Z " fill="#565657" transform="translate(647,452)"/>
<path d="M0 0 C0.33 0.66 0.66 1.32 1 2 C1.99 2 2.98 2 4 2 C4 3.32 4 4.64 4 6 C2.68 6 1.36 6 0 6 C0 4.02 0 2.04 0 0 Z " fill="#565657" transform="translate(623,452)"/>
<path d="M0 0 C0.33 0.66 0.66 1.32 1 2 C1.99 2 2.98 2 4 2 C4 3.32 4 4.64 4 6 C2.68 6 1.36 6 0 6 C0 4.02 0 2.04 0 0 Z " fill="#565657" transform="translate(543,452)"/>
<path d="M0 0 C0.66 0 1.32 0 2 0 C2.33 1.98 2.66 3.96 3 6 C2.01 6 1.02 6 0 6 C-0.33 6.66 -0.66 7.32 -1 8 C-0.67 5.36 -0.34 2.72 0 0 Z " fill="#B8B8B8" transform="translate(336,451)"/>
<path d="M0 0 C0.66 0 1.32 0 2 0 C2 2.64 2 5.28 2 8 C1.01 7.67 0.02 7.34 -1 7 C-0.67 4.69 -0.34 2.38 0 0 Z " fill="#49494A" transform="translate(255,447)"/>
<path d="M0 0 C1.32 0.33 2.64 0.66 4 1 C4.33 2.32 4.66 3.64 5 5 C4.01 5 3.02 5 2 5 C2 4.34 2 3.68 2 3 C1.34 3 0.68 3 0 3 C0 2.01 0 1.02 0 0 Z " fill="#171719" transform="translate(196,447)"/>
<path d="M0 0 C0.99 0 1.98 0 3 0 C2.67 1.32 2.34 2.64 2 4 C0.68 4.33 -0.64 4.66 -2 5 C-2 4.01 -2 3.02 -2 2 C-1.34 2 -0.68 2 0 2 C0 1.34 0 0.68 0 0 Z " fill="#1C1C1D" transform="translate(418,458)"/>
<path d="M0 0 C0 2.31 0 4.62 0 7 C-0.99 6.67 -1.98 6.34 -3 6 C-3 4.35 -3 2.7 -3 1 C-1 0 -1 0 0 0 Z " fill="#373739" transform="translate(257,456)"/>
<path d="M0 0 C2.475 0.495 2.475 0.495 5 1 C5.33 2.98 5.66 4.96 6 7 C5.01 7 4.02 7 3 7 C3.33 5.35 3.66 3.7 4 2 C2.68 2 1.36 2 0 2 C0 1.34 0 0.68 0 0 Z " fill="#777778" transform="translate(678,456)"/>
<path d="M0 0 C0.66 0 1.32 0 2 0 C2 2.64 2 5.28 2 8 C1.34 7.67 0.68 7.34 0 7 C-0.6875 4 -0.6875 4 -1 1 C-0.67 0.67 -0.34 0.34 0 0 Z " fill="#454546" transform="translate(297,447)"/>
<path d="M0 0 C0.66 0.33 1.32 0.66 2 1 C1.67 2.65 1.34 4.3 1 6 C0.01 6 -0.98 6 -2 6 C-1.125 1.125 -1.125 1.125 0 0 Z " fill="#0D0D0F" transform="translate(650,448)"/>
<path d="M0 0 C0.66 0.33 1.32 0.66 2 1 C1.67 2.65 1.34 4.3 1 6 C0.01 6 -0.98 6 -2 6 C-1.125 1.125 -1.125 1.125 0 0 Z " fill="#0D0D0F" transform="translate(626,448)"/>
<path d="M0 0 C0.66 0.33 1.32 0.66 2 1 C1.67 2.65 1.34 4.3 1 6 C0.01 6 -0.98 6 -2 6 C-1.125 1.125 -1.125 1.125 0 0 Z " fill="#0D0D0F" transform="translate(546,448)"/>
<path d="M0 0 C2.475 0.99 2.475 0.99 5 2 C5 2.99 5 3.98 5 5 C4.01 5 3.02 5 2 5 C2 4.34 2 3.68 2 3 C1.34 3 0.68 3 0 3 C0 2.01 0 1.02 0 0 Z " fill="#121214" transform="translate(720,447)"/>
<path d="M0 0 C0.66 0 1.32 0 2 0 C2 0.66 2 1.32 2 2 C1.34 2 0.68 2 0 2 C0 1.34 0 0.68 0 0 Z " fill="#FFFFFF" transform="translate(677,417)"/>
<path d="" fill="#FFFFFF" transform="translate(0,0)"/>
</svg>
