<?xml version="1.0" encoding="UTF-8"?>
<svg version="1.1" xmlns="http://www.w3.org/2000/svg" width="1759" height="701">
<path d="M0 0 C1.87759693 0.54299378 3.75520141 1.08596145 5.6328125 1.62890625 C9.55331434 2.77524803 13.46190536 3.95530984 17.3671875 5.15234375 C44.98238308 13.45891108 77.18207491 20.63827801 105.5625 12.375 C105.5625 15.375 105.5625 15.375 103.3125 17.75 C102.405 18.61625 101.4975 19.4825 100.5625 20.375 C99.840625 21.303125 99.11875 22.23125 98.375 23.1875 C97.776875 23.909375 97.17875 24.63125 96.5625 25.375 C95.9025 25.375 95.2425 25.375 94.5625 25.375 C89.67511026 36.89527583 89.41228935 47.83708287 89.41723633 60.15234375 C89.41423945 61.64525435 89.41083571 63.13816417 89.40705872 64.631073 C89.3982465 68.67861466 89.39588115 72.72613513 89.39524293 76.77368546 C89.39452834 79.32287053 89.39238585 81.87205037 89.38974571 84.42123413 C89.38048608 93.37620376 89.37640969 102.33115856 89.37719727 111.28613281 C89.37779119 119.52434376 89.36737789 127.76248777 89.3514536 136.00068188 C89.33815839 143.1436629 89.33302266 150.28662275 89.33365268 157.42961597 C89.33390229 161.66288919 89.33136389 165.89610353 89.32047462 170.12936401 C89.27897111 187.5781809 89.47983322 204.9976805 90.26978433 222.43094444 C90.34831999 224.16636781 90.42327299 225.90195775 90.49429476 227.63770485 C91.14192029 246.51849077 91.14192029 246.51849077 100.5625 262.375 C103.18074583 264.41850894 104.83701668 265.22990334 108.0625 265.875 C111.70060797 265.14737841 113.1490269 263.10603535 115.5625 260.375 C116.05492187 259.93929688 116.54734375 259.50359375 117.0546875 259.0546875 C129.02486555 245.7200332 127.70485269 217.04548482 127.73608398 200.57543945 C127.7424045 199.1188335 127.74917191 197.66222943 127.75634766 196.20562744 C127.77090873 193.09118869 127.78267633 189.97675684 127.79229546 186.86229897 C127.8078682 181.93186161 127.83181322 177.00148606 127.85719299 172.0710907 C127.92808893 158.05874546 127.98823274 144.04636671 128.03930664 130.03393555 C128.06764956 122.27799518 128.10304108 114.5221183 128.14596039 106.76624459 C128.17263541 101.87031395 128.19059896 96.97445488 128.20199764 92.07846606 C128.21115417 89.02974772 128.22852862 85.98111642 128.24817657 82.93244934 C128.25561777 81.52482669 128.25973106 80.11718167 128.26017189 78.70953941 C128.26419018 71.60809988 128.41061734 65.1730348 130.5625 58.375 C128.23016211 56.81099738 125.89663382 55.24881838 123.5625 53.6875 C122.87857178 53.22851318 122.19464355 52.76952637 121.48999023 52.29663086 C117.91963392 49.9097525 114.33181939 47.60930738 110.625 45.4375 C109.614375 44.756875 108.60375 44.07625 107.5625 43.375 C107.5625 40.375 107.5625 40.375 108.99609375 38.90234375 C109.65738281 38.37769531 110.31867188 37.85304687 111 37.3125 C115.08540873 33.88533576 118.56644379 30.16276699 122.08984375 26.16796875 C125.30335565 22.53817253 128.59195842 18.98159465 131.89160156 15.43017578 C134.57364361 12.54070655 137.23215287 9.63439269 139.85546875 6.69140625 C140.6611731 5.79578979 140.6611731 5.79578979 141.4831543 4.88208008 C142.5135908 3.73568164 143.53753411 2.58340357 144.55395508 1.42456055 C148.83202463 -3.30826153 148.83202463 -3.30826153 152.5625 -3.625 C152.5625 -2.965 152.5625 -2.305 152.5625 -1.625 C153.5525 -1.315625 153.5525 -1.315625 154.5625 -1 C157.2189161 0.21752405 159.03235626 1.41354817 161.3125 3.1875 C172.31030961 11.61572793 183.60290352 15.55604769 197.5625 14.375 C200.32991634 13.87609752 202.86855715 13.20390549 205.5625 12.375 C203.50504168 17.2874707 199.65516205 20.77406863 196.0703125 24.62109375 C188.73983366 34.31180063 188.98950091 46.86032519 189.07666016 58.42675781 C189.07450897 60.10237931 189.07062341 61.77799933 189.06515503 63.45361328 C189.05553122 67.97105654 189.07068491 72.48809923 189.09106112 77.00549412 C189.10878344 81.76901772 189.10510386 86.53253168 189.1043396 91.29608154 C189.10620825 99.30520205 189.12349971 107.31417036 189.15087891 115.32324219 C189.18219579 124.5167378 189.19287914 133.71006628 189.1914078 142.90361142 C189.19004363 152.766792 189.20401227 162.62991011 189.22230101 172.49307156 C189.22651579 175.29705237 189.22797683 178.10102274 189.22877884 180.90500641 C186.69483462 222.52782214 186.69483462 222.52782214 197.95703125 260.8203125 C200.95414626 263.72262825 204.65329694 265.0804491 208.5625 266.375 C222.51324978 255.16670531 225.16639154 240.57723675 227.15552521 223.36617661 C228.38107143 211.8294837 228.7132866 200.27238694 228.75195312 188.67871094 C228.75992792 187.29369371 228.7683182 185.90867883 228.77708435 184.52366638 C228.79490853 181.58010309 228.81000234 178.63654414 228.82286072 175.69295502 C228.84334283 171.03625669 228.87094725 166.37961607 228.89953613 161.72296143 C228.96423384 151.01641667 229.02023038 140.30983018 229.07552338 129.60323334 C229.12644093 119.7468883 229.17924491 109.89056499 229.24004889 100.03427529 C229.26833288 95.40569446 229.29194755 90.7771207 229.31197357 86.1484971 C229.32536021 83.27809025 229.3427693 80.40771808 229.36128426 77.53734016 C229.37273213 75.57257327 229.37929854 73.60777984 229.38572693 71.64299011 C229.39407059 70.47421829 229.40241425 69.30544647 229.41101074 68.10125732 C229.41616447 67.08594311 229.42131821 66.07062889 229.42662811 65.02454758 C229.54828291 62.652238 229.88503088 60.64290149 230.5625 58.375 C229.65628906 57.79492188 228.75007813 57.21484375 227.81640625 56.6171875 C221.02392887 52.26339429 214.25133454 47.88730901 207.5625 43.375 C211.41302637 35.05641001 219.01290466 28.88362404 225.43310547 22.52124023 C229.68167074 18.29711814 233.69936175 13.955305 237.5625 9.375 C245.83263699 -0.22541096 245.83263699 -0.22541096 250.5625 -3.625 C253.83185921 -2.18809645 256.57458864 -0.21671544 259.43505859 1.90429688 C265.19315762 6.17368641 270.70699821 10.06747298 277.5625 12.375 C278.19027344 12.59671875 278.81804687 12.8184375 279.46484375 13.046875 C288.03836039 15.64172257 297.09970045 14.97893832 305.5625 12.375 C304.11119245 15.69440087 302.25620053 17.90275203 299.75 20.5 C287.96532261 33.58933314 288.24870526 48.49501467 288.35668945 65.19189453 C288.37504322 68.13192362 288.37719793 71.07163806 288.37695312 74.01171875 C288.38186636 75.8984402 288.38769383 77.78515954 288.39453125 79.671875 C288.39620049 80.97677887 288.39620049 80.97677887 288.39790344 82.30804443 C288.43495207 87.09810767 288.76324962 91.65045359 289.5625 96.375 C289.78800537 95.07018677 289.78800537 95.07018677 290.01806641 93.73901367 C295.78277791 60.75641069 295.78277791 60.75641069 301.5625 45.375 C301.87477539 44.53517578 302.18705078 43.69535156 302.50878906 42.83007812 C316.0999403 6.66672165 316.0999403 6.66672165 331.5625 -2.625 C334.55323994 -3.62191331 336.01918717 -3.82525954 339 -2.7265625 C339.845625 -2.23929688 340.69125 -1.75203125 341.5625 -1.25 C342.52414062 -0.69699219 343.48578125 -0.14398438 344.4765625 0.42578125 C347.72683601 2.47880211 350.82207058 4.68579132 353.9375 6.9375 C365.4258367 15.05219682 376.65474679 18.19277063 390.5625 16.375 C394.18403006 15.62121745 397.64089085 14.5044411 401.12109375 13.25 C403.5625 12.375 403.5625 12.375 405.5625 12.375 C405.5625 15.375 405.5625 15.375 403.5625 17.4375 C403.11132812 17.86417969 402.66015625 18.29085937 402.1953125 18.73046875 C392.38012019 28.61610503 388.45593964 37.35095054 388.43964005 51.21683121 C388.44559 52.75522974 388.44559 52.75522974 388.45166016 54.32470703 C388.45202145 55.41771999 388.45238274 56.51073296 388.45275497 57.63686752 C388.45551813 61.26054317 388.46583226 64.8841523 388.4765625 68.5078125 C388.48084594 71.06999675 388.48488002 73.63218144 388.48867798 76.19436646 C388.5034057 84.25461979 388.53041082 92.31479863 388.5625 100.375 C388.56757065 101.6491124 388.5726413 102.92322479 388.5778656 104.23594666 C388.64522442 120.40838815 388.75044069 136.58038535 388.87988281 152.75244141 C388.91991434 157.80450335 388.9544099 162.85655986 388.984375 167.90869141 C389.02169006 174.1991046 389.06803032 180.48939347 389.12056351 186.77969742 C389.13869303 189.11303711 389.1539422 191.44640157 389.16584396 193.77978134 C389.23156446 206.15000921 389.56459678 218.46872348 390.40087891 230.81298828 C390.50364167 232.45590756 390.50364167 232.45590756 390.60848045 234.13201714 C391.31742529 243.59081447 392.69553659 253.6553113 398.5625 261.375 C401.37842153 263.51032057 404.1568735 265.37369784 407.5625 266.375 C409.72518597 265.66347027 409.72518597 265.66347027 411.5625 264.375 C412.34625 263.900625 413.13 263.42625 413.9375 262.9375 C430.2162116 247.04637678 428.48229574 218.77846921 428.76611328 197.79199219 C428.81071945 193.91085627 428.84358603 190.02972993 428.87109375 186.1484375 C428.87811687 185.16439186 428.88514 184.18034622 428.89237595 183.16648102 C428.95414659 173.92779517 428.99161576 164.68904163 429.01879883 155.45019531 C429.03470798 150.34204849 429.06491547 145.23414042 429.10356331 140.12611771 C429.11513309 138.20215004 429.12114295 136.27813987 429.12124443 134.35413742 C429.1214375 131.67642876 429.13976381 128.9993824 429.16186523 126.32177734 C429.15728806 125.54563583 429.15271088 124.76949432 429.147995 123.96983337 C429.23529666 117.28237074 430.78686856 111.3193496 434.25390625 105.5703125 C437.34322111 102.63258839 440.65414943 101.02392925 444.5 99.25 C445.90580546 98.58253233 447.31077397 97.91329864 448.71484375 97.2421875 C449.37468262 96.92862305 450.03452148 96.61505859 450.71435547 96.29199219 C453.08120644 95.1176339 455.32803179 93.78302107 457.5625 92.375 C456.45841797 92.02888672 456.45841797 92.02888672 455.33203125 91.67578125 C449.57500904 89.75170381 445.43877101 88.24802641 441.5625 83.375 C440.81033203 82.49328125 440.81033203 82.49328125 440.04296875 81.59375 C433.62771353 73.72686769 431.894865 66.23188681 432.15625 56.125 C434.27036847 36.61006024 446.80468849 21.95369711 461.4921875 9.98828125 C467.25091084 5.70594449 473.30109083 1.87960335 479.5625 -1.625 C480.15160156 -2.02976563 480.74070312 -2.43453125 481.34765625 -2.8515625 C488.45986956 -5.33519254 497.43119999 -1.0586684 504.32601929 1.01138306 C507.11320886 1.84607454 509.90586791 2.66167386 512.69837952 3.47834778 C516.93776807 4.71831053 521.17606135 5.96192214 525.40917969 7.22314453 C550.87710228 14.7610347 580.56315151 19.94500095 606.5625 12.375 C605.35868552 14.86861571 604.10821278 17.05643083 602.5625 19.375 C601.9025 19.375 601.2425 19.375 600.5625 19.375 C600.253125 19.99375 599.94375 20.6125 599.625 21.25 C598.9375 22.625 598.25 24 597.5625 25.375 C596.9025 25.375 596.2425 25.375 595.5625 25.375 C595.27375 26.096875 594.985 26.81875 594.6875 27.5625 C594.00477319 29.26931703 593.28496492 30.96272134 592.5 32.625 C589.5903595 41.15994547 590.41982244 50.75547971 590.43310547 59.66821289 C590.4317481 61.20380698 590.42996629 62.73940074 590.42779541 64.2749939 C590.42325213 68.43144384 590.4250002 72.58786884 590.4281745 76.7443192 C590.43072466 81.13223536 590.42835224 85.52014954 590.42678833 89.9080658 C590.42496994 97.29963559 590.42735968 104.6911954 590.43212891 112.08276367 C590.43752453 120.54096546 590.43584215 128.99914296 590.4303025 137.45734411 C590.4257059 144.77686327 590.42515361 152.09637527 590.42774117 159.4158954 C590.42927453 163.7606616 590.42958212 168.10541656 590.42620468 172.45018196 C590.41564253 188.55841506 590.43860444 204.66906108 590.8349154 220.77329528 C590.88108077 222.72056803 590.91575961 224.668103 590.94985771 226.61562443 C591.33214342 239.76278011 592.38884729 253.01256696 601.9375 262.8125 C605.32406683 264.82831359 607.61232785 265.44553879 611.5625 265.375 C622.65456748 257.18799782 625.60970068 242.40907345 627.61181641 229.62768555 C629.31965684 217.92860783 629.70915389 206.28969272 629.7043457 194.48388672 C629.70738482 192.92200626 629.71090832 191.36012667 629.71487427 189.79824829 C629.72270297 186.45901266 629.72788503 183.11978741 629.73116493 179.78054428 C629.73712427 174.49242713 629.75370792 169.20437551 629.77250671 163.91629028 C629.77884216 162.09908107 629.78516781 160.28187183 629.79148388 158.46466255 C629.79464969 157.55530834 629.7978155 156.64595414 629.80107725 155.70904374 C629.84302052 143.41590358 629.87615042 131.12279695 629.88842773 118.82958984 C629.89682066 110.51068154 629.91934688 102.19193907 629.9577834 93.87311375 C629.97748299 89.48096402 629.98996849 85.0890618 629.98494911 80.69686508 C629.98028671 76.5679842 629.99419419 72.43957338 630.02196121 68.3107872 C630.02884312 66.80241438 630.02903207 65.29399264 630.02176094 63.78562164 C629.98155992 54.50402745 630.01056419 45.10019288 636.8203125 38.03125 C640.32744143 35.91298409 643.84371947 33.84318261 647.4375 31.875 C648.81001478 31.11479805 650.18241153 30.35438296 651.5546875 29.59375 C652.22975342 29.22056641 652.90481934 28.84738281 653.6003418 28.46289062 C660.46500809 24.65687433 667.14045179 20.58908684 673.80273438 16.44140625 C678.01408421 13.84482676 682.24572077 11.48642807 686.69360352 9.32226562 C689.59603271 7.85114541 692.31558472 6.11561958 695.0625 4.375 C708.86872117 -4.15424749 708.86872117 -4.15424749 716.5625 -2.625 C719.3714653 -1.85456293 722.12047463 -0.94522497 724.875 0 C725.65480225 0.26216309 726.43460449 0.52432617 727.23803711 0.79443359 C732.77769999 2.68488731 738.19963111 4.80709363 743.625 7 C763.28156266 14.89015888 786.01038046 19.14510997 806.5625 12.375 C806.5625 15.375 806.5625 15.375 805.2421875 16.84765625 C804.64664063 17.37230469 804.05109375 17.89695313 803.4375 18.4375 C796.77234912 24.81873979 791.91207896 33.01028876 791.30523109 42.323102 C791.29171565 43.84891558 791.2890355 45.37484957 791.29507446 46.90071106 C791.29054335 47.74574446 791.28601224 48.59077786 791.28134382 49.46141833 C791.26870766 52.28659071 791.27031979 55.1115701 791.27197266 57.93676758 C791.2659862 59.96603136 791.25918038 61.99529287 791.25161743 64.02455139 C791.23394436 69.53810772 791.22926099 75.05160196 791.22798586 80.56518388 C791.22656239 84.01980305 791.22228866 87.47440656 791.21699142 90.92902184 C791.19847419 103.01136649 791.19032136 115.09366702 791.19189453 127.17602539 C791.19309059 138.38424489 791.17209833 149.59227015 791.1404072 160.80044061 C791.11409093 170.4569325 791.10353389 180.11336167 791.10480535 189.76988906 C791.10531128 195.52132751 791.09983766 201.27259404 791.07844925 207.02399635 C790.97043245 238.26706634 793.10058488 266.17515965 801.5625 296.375 C802.40269812 299.42004613 803.2389636 302.46613275 804.07275391 305.51293945 C804.59273931 307.40852835 805.11689622 309.30297984 805.64599609 311.19604492 C806.30746485 313.58368145 806.93678257 315.97781663 807.5625 318.375 C807.86414062 319.42558594 808.16578125 320.47617187 808.4765625 321.55859375 C808.59951829 325.58819037 806.77948412 328.13815426 804.625 331.375 C803.77844718 332.71129003 802.9334256 334.0485512 802.08984375 335.38671875 C801.44764893 336.390979 801.44764893 336.390979 800.79248047 337.41552734 C798.99158594 340.28451891 797.34224639 343.23235 795.6875 346.1875 C791.25558707 353.99190444 786.56637731 361.63175269 781.85693359 369.27099609 C780.68658619 371.17330728 779.52309841 373.07953828 778.36328125 374.98828125 C771.05791026 386.97253425 763.28981918 398.39420886 754.5625 409.375 C754.11519531 409.94412109 753.66789062 410.51324219 753.20703125 411.09960938 C751.87845315 412.78412459 750.53573193 414.45619184 749.1875 416.125 C748.00027344 417.60226562 748.00027344 417.60226562 746.7890625 419.109375 C744.59747372 421.33941271 743.616403 422.06821522 740.5625 422.375 C740.23121094 421.95992187 739.89992188 421.54484375 739.55859375 421.1171875 C731.21261464 411.11874636 721.22113852 402.14178031 710.90625 394.21875 C708.97009964 392.69564505 707.11754138 391.12939445 705.26171875 389.51171875 C695.64221001 381.23075551 684.97484669 374.36243979 673.875 368.25 C673.03815674 367.78891846 672.20131348 367.32783691 671.33911133 366.8527832 C665.28321245 363.59540188 659.94638516 361.08551332 652.9375 361.125 C652.01710938 361.11984375 651.09671875 361.1146875 650.1484375 361.109375 C647.36757531 361.39502248 645.84569819 361.76848528 643.5625 363.375 C642.03943453 365.62178936 642.03943453 365.62178936 640.875 368.25 C640.45863281 369.11367188 640.04226563 369.97734375 639.61328125 370.8671875 C635.84414043 379.86268344 637.11932938 389.11390965 640.171875 398.1640625 C645.51699251 410.50587878 655.68196199 419.47734412 667.5625 425.375 C685.45653235 432.3896394 702.30691431 431.61091702 720.5625 426.375 C719.37898779 429.92553664 718.0416387 430.70334788 714.796875 432.390625 C698.89865628 439.39473534 678.67115276 438.19653332 662.5625 432.375 C654.6290739 428.96775982 648.03631502 424.02879845 641.5625 418.375 C640.8509375 417.78203125 640.139375 417.1890625 639.40625 416.578125 C629.85166729 407.97900056 624.23547999 394.351226 623.28515625 381.67578125 C622.9659002 368.84168794 625.5755225 359.8419941 634.5625 350.375 C639.23723565 346.56605697 644.40045857 343.46962069 649.5625 340.375 C650.4184375 339.84519531 651.274375 339.31539063 652.15625 338.76953125 C654.60661415 337.27162029 657.08303956 335.82426209 659.5625 334.375 C660.86254785 333.59600035 662.1619724 332.81596002 663.4609375 332.03515625 C670.13898745 328.04156973 676.75168164 324.2157371 683.8125 320.9375 C691.47824543 317.2103617 697.29949006 312.04715995 703.5625 306.375 C704.97832363 305.2073104 706.39486335 304.04048784 707.8125 302.875 C715.35576234 296.22292477 721.22685712 287.84020265 726.5625 279.375 C727.18125 278.446875 727.8 277.51875 728.4375 276.5625 C729.86739868 274.19211373 729.86739868 274.19211373 729.5625 270.375 C728.90507813 271.39335937 728.24765625 272.41171875 727.5703125 273.4609375 C717.04305204 289.29436067 703.78717235 302.96857881 688.5625 314.375 C687.66789062 315.0865625 686.77328125 315.798125 685.8515625 316.53125 C684.97242188 317.2015625 684.09328125 317.871875 683.1875 318.5625 C682.41664063 319.15417969 681.64578125 319.74585938 680.8515625 320.35546875 C678.5625 321.375 678.5625 321.375 676.0859375 320.7890625 C660.16633799 311.86817237 639.36309271 291.09681764 633.68359375 273.6796875 C633.21674775 271.59683612 632.87405775 269.48666921 632.5625 267.375 C631.9025 267.375 631.2425 267.375 630.5625 267.375 C630.29373047 268.11322998 630.02496094 268.85145996 629.74804688 269.61206055 C627.87570948 273.97557832 624.95177284 277.44899404 622.0625 281.1875 C621.17111328 282.36989258 621.17111328 282.36989258 620.26171875 283.57617188 C619.40513672 284.69282227 619.40513672 284.69282227 618.53125 285.83203125 C618.00982422 286.51241455 617.48839844 287.19279785 616.95117188 287.89379883 C616.49291016 288.38259521 616.03464844 288.8713916 615.5625 289.375 C614.9025 289.375 614.2425 289.375 613.5625 289.375 C613.34078125 289.92027344 613.1190625 290.46554687 612.890625 291.02734375 C611.14177647 294.11869072 608.81723705 296.45974324 606.3125 298.9375 C605.78817383 299.45836182 605.26384766 299.97922363 604.72363281 300.51586914 C598.74592857 306.3345545 592.27016344 311.42993426 585.5625 316.375 C584.72976563 316.99117188 583.89703125 317.60734375 583.0390625 318.2421875 C580.9375 319.6875 580.9375 319.6875 577.5625 321.375 C569.61422805 318.68151075 562.38210438 310.65137395 557.1953125 304.296875 C555.49481329 302.24218765 555.49481329 302.24218765 553.16796875 299.984375 C543.91816838 290.72070687 536.242691 280.18979729 530.5625 268.375 C530.08941406 269.04144531 529.61632813 269.70789063 529.12890625 270.39453125 C514.82340255 290.33300132 498.35427248 308.11647842 477.5625 321.375 C468.58621464 317.39020042 461.28152306 309.3572106 454.5625 302.375 C453.7375 301.570625 452.9125 300.76625 452.0625 299.9375 C451.2375 299.091875 450.4125 298.24625 449.5625 297.375 C448.97984375 296.78847656 448.3971875 296.20195312 447.796875 295.59765625 C443.43084829 290.98238785 439.95630343 286.10850909 436.6875 280.6875 C436.30625977 280.0579541 435.92501953 279.4284082 435.53222656 278.77978516 C433.36240921 275.07861873 431.77233652 271.52028198 430.5625 267.375 C429.99595703 268.33986328 429.99595703 268.33986328 429.41796875 269.32421875 C422.82501656 280.14777726 414.71069134 289.62074991 405.5625 298.375 C404.77875 299.16132813 403.995 299.94765625 403.1875 300.7578125 C385.99747758 317.89667414 385.99747758 317.89667414 375.5625 321.375 C356.76649422 310.11990672 336.72316577 288.59432643 330.10546875 267.578125 C328.77820048 262.19266239 328.41839477 256.98428363 328.43551636 251.45620728 C328.43395637 250.67676675 328.43239638 249.89732623 328.43078911 249.0942663 C328.42681217 246.49202398 328.42995596 243.88984037 328.43310547 241.28759766 C328.43174994 239.41794297 328.42996915 237.54828856 328.42779541 235.67863464 C328.4232385 230.60629385 328.42500366 225.5339734 328.4281745 220.46163225 C328.43070782 215.14958167 328.42835777 209.83753283 328.42678833 204.52548218 C328.42496917 195.60292244 328.42736599 186.68037098 328.43212891 177.7578125 C328.4375677 167.45023612 328.43581063 157.14267953 328.4303025 146.83510363 C328.4257602 137.9797275 328.4251264 129.12435731 328.42774117 120.26898038 C328.42929821 114.98260701 328.42951345 109.69624292 328.42620468 104.40987015 C328.42330988 99.43749633 328.42533125 94.46514795 328.43109894 89.49277687 C328.43241805 87.67071767 328.43204687 85.84865632 328.42983627 84.02659798 C328.42709124 81.53362337 328.43054676 79.04072952 328.43551636 76.54776001 C328.43328564 75.83198434 328.43105491 75.11620866 328.42875659 74.37874281 C328.4470605 69.62293853 328.89981671 65.07406032 329.5625 60.375 C326.30610341 59.43228998 326.30610341 59.43228998 322.5625 59.375 C313.93265965 65.33369929 311.18668484 77.80431225 308.5625 87.375 C308.22798828 88.57600342 308.22798828 88.57600342 307.88671875 89.80126953 C301.35395832 113.41265699 297.0651723 137.09066385 294.05957031 161.39257812 C293.54668125 165.5300027 293.00413691 169.66334033 292.4609375 173.796875 C285.77041773 218.86247189 285.77041773 218.86247189 298.5625 261.375 C302.17376655 263.94455504 305.57886688 265.07108467 309.875 266.0625 C310.94363281 266.31386719 312.01226563 266.56523437 313.11328125 266.82421875 C313.92152344 267.00597656 314.72976563 267.18773437 315.5625 267.375 C314.25589834 270.11602715 312.81145483 272.58466415 311.05859375 275.0625 C310.5699585 275.7548877 310.08132324 276.44727539 309.57788086 277.16064453 C309.05718018 277.89138184 308.53647949 278.62211914 308 279.375 C307.46060791 280.13538574 306.92121582 280.89577148 306.36547852 281.67919922 C302.60800821 286.95692697 298.76937807 292.16235453 294.859375 297.328125 C292.12950226 300.94938476 289.43520162 304.59555186 286.75 308.25 C286.29359131 308.86891113 285.83718262 309.48782227 285.36694336 310.12548828 C282.66131336 313.81248915 280.07093109 317.5509582 277.5625 321.375 C263.99210764 319.05967239 250.60394358 303.65652941 242.82421875 292.9921875 C237.62867211 285.27374793 234.09778461 276.93920009 230.5625 268.375 C226.84986841 272.95475416 223.36497379 277.68432269 219.87890625 282.4375 C217.60710594 285.31843395 215.18299716 287.81246012 212.5625 290.375 C211.17810365 291.92918081 209.80311113 293.49178758 208.4375 295.0625 C198.90561304 305.64305104 188.38090301 313.57515059 176.5625 321.375 C159.18786314 313.52838981 138.45538391 290.51912079 131.75 272.875 C131.358125 271.72 130.96625 270.565 130.5625 269.375 C125.92526026 273.63140363 122.47379194 278.80251381 118.80859375 283.8828125 C118.29167969 284.58664062 117.77476562 285.29046875 117.2421875 286.015625 C116.77538574 286.66047852 116.30858398 287.30533203 115.82763672 287.96972656 C115.4101416 288.4334668 114.99264648 288.89720703 114.5625 289.375 C113.9025 289.375 113.2425 289.375 112.5625 289.375 C112.34464844 289.91769531 112.12679687 290.46039063 111.90234375 291.01953125 C110.10910019 294.17208479 107.69168267 296.54218373 105.125 299.0625 C104.32473389 299.85370239 104.32473389 299.85370239 103.50830078 300.66088867 C98.46515627 305.5811205 93.15544194 310.08843866 87.5625 314.375 C86.19158203 315.43654297 86.19158203 315.43654297 84.79296875 316.51953125 C78.2091049 321.40682111 78.2091049 321.40682111 75.578125 321.27734375 C68.55096861 318.1314656 62.97224866 311.99540223 58.13671875 306.16796875 C56.33370714 304.11441459 54.27090086 302.51808406 52.14453125 300.8125 C46.18299408 295.39559709 41.70778581 288.30730943 37.1875 281.6875 C36.75856445 281.0702002 36.32962891 280.45290039 35.88769531 279.81689453 C33.16951859 275.75481479 31.67542692 272.13857182 30.5625 267.375 C29.74458984 268.48294922 29.74458984 268.48294922 28.91015625 269.61328125 C26.48025365 272.88222714 24.02782191 276.13274588 21.5625 279.375 C20.90121094 280.24898438 20.23992187 281.12296875 19.55859375 282.0234375 C14.6444338 288.27432589 9.2218767 293.92186123 3.625 299.5625 C2.86638672 300.33037842 2.10777344 301.09825684 1.32617188 301.8894043 C0.61138672 302.60008057 -0.10339844 303.31075684 -0.83984375 304.04296875 C-1.48429443 304.68516357 -2.12874512 305.3273584 -2.79272461 305.98901367 C-4.4375 307.375 -4.4375 307.375 -6.4375 307.375 C-6.4375 308.035 -6.4375 308.695 -6.4375 309.375 C-8.82945144 311.66347751 -11.54356685 313.57497586 -14.1875 315.5625 C-14.91710937 316.13419922 -15.64671875 316.70589844 -16.3984375 317.29492188 C-17.10742188 317.83052734 -17.81640625 318.36613281 -18.546875 318.91796875 C-19.19624023 319.41321045 -19.84560547 319.90845215 -20.51464844 320.41870117 C-22.4375 321.375 -22.4375 321.375 -24.49389648 321.16967773 C-27.71517655 319.85259865 -30.15906348 317.5159488 -32.75 315.25 C-33.32814453 314.75226074 -33.90628906 314.25452148 -34.50195312 313.74169922 C-38.66753672 310.12551346 -42.62367876 306.3604432 -46.4375 302.375 C-47.22382812 301.60027344 -48.01015625 300.82554687 -48.8203125 300.02734375 C-59.51675539 289.1872173 -68.30184194 277.54561235 -71.4375 262.375 C-71.94539062 262.71273438 -72.45328125 263.05046875 -72.9765625 263.3984375 C-79.52026798 267.63836652 -84.47697277 269.69342109 -92.4375 269.375 C-92.4375 268.385 -92.4375 267.395 -92.4375 266.375 C-90.8984375 265.12109375 -90.8984375 265.12109375 -88.8125 263.8125 C-79.45942099 257.03730142 -76.37638802 246.3450458 -74.4375 235.375 C-73.97530644 231.84895959 -73.6467291 228.31817546 -73.34741211 224.77490234 C-73.26206931 223.77203375 -73.17672651 222.76916515 -73.08879757 221.7359066 C-72.31984913 212.03036311 -72.14213854 202.35680071 -72.13253975 192.62468338 C-72.12878123 189.56219845 -72.11181665 186.50001118 -72.09178162 183.43759155 C-72.03718691 174.75141926 -72.0055339 166.06521112 -71.98120117 157.37890625 C-71.96529327 152.01602225 -71.93507622 146.65336566 -71.89643669 141.29059982 C-71.88485411 139.26615182 -71.87885694 137.24166329 -71.87875557 135.21718216 C-71.87856257 132.39535936 -71.86023792 129.57416585 -71.83813477 126.75244141 C-71.84500053 125.52269844 -71.84500053 125.52269844 -71.852005 124.26811218 C-71.76752028 117.45108567 -70.28413378 111.43708558 -66.74609375 105.5703125 C-63.65677889 102.63258839 -60.34585057 101.02392925 -56.5 99.25 C-55.09419454 98.58253233 -53.68922603 97.91329864 -52.28515625 97.2421875 C-51.62531738 96.92862305 -50.96547852 96.61505859 -50.28564453 96.29199219 C-47.91879356 95.1176339 -45.67196821 93.78302107 -43.4375 92.375 C-44.01757812 92.20484375 -44.59765625 92.0346875 -45.1953125 91.859375 C-55.00562263 88.81591245 -60.3231593 84.31218123 -65.4375 75.375 C-70.17751289 64.89356305 -69.36024761 54.20096808 -65.6796875 43.52734375 C-57.96601288 23.95207514 -41.22685418 9.85127546 -23.4375 -0.625 C-22.385625 -1.285 -21.33375 -1.945 -20.25 -2.625 C-13.80310702 -4.91722861 -6.31652901 -1.88749609 0 0 Z M-50.4375 55.375 C-53.04978281 59.64964461 -53.09736209 64.5053848 -52.4375 69.375 C-51.02982599 73.68231388 -48.8624212 76.3971277 -45 78.75 C-30.80109482 85.22669359 -15.78541547 78.62907512 -2 73.875 C-1.17201904 73.59068115 -0.34403809 73.3063623 0.5090332 73.01342773 C5.75415972 71.15906874 10.6332105 68.95566132 15.5625 66.375 C13.79265435 70.19798759 11.57450429 72.46913941 8.5 75.375 C-2.71424723 86.2875103 -12.29662415 98.3750969 -12.56448364 114.53881836 C-12.57036472 116.0974826 -12.57085948 117.65617346 -12.56689453 119.21484375 C-12.56864685 120.07315292 -12.57039917 120.9314621 -12.57220459 121.81578064 C-12.57659503 124.6480412 -12.57368871 127.48023881 -12.5703125 130.3125 C-12.57098781 132.31331392 -12.57195973 134.31412776 -12.57321167 136.31494141 C-12.57468609 140.52132951 -12.57254771 144.7276964 -12.56787109 148.93408203 C-12.56226127 154.22864935 -12.5654975 159.52316548 -12.57130527 164.8177309 C-12.58890097 183.63573202 -12.59889619 202.45141502 -12.00390625 221.26171875 C-11.96673492 222.47355835 -11.9295636 223.68539795 -11.89126587 224.93395996 C-11.33239763 244.49105566 -11.33239763 244.49105566 -2.4375 261.375 C1.06114515 264.26694368 4.96150441 266.88075243 9.5625 267.375 C18.48702642 262.85853926 21.63451026 252.82283942 24.75 244.01953125 C26.67717281 237.86249752 27.9176976 231.8034946 28.65768433 225.39735413 C28.74312087 224.6582886 28.82855741 223.91922308 28.91658294 223.15776163 C29.72161761 215.69551238 29.83107229 208.26827613 29.78955078 200.76733398 C29.78898441 199.29686491 29.78930762 197.82639527 29.79043579 196.35592651 C29.79100149 192.42518877 29.77937659 188.49457713 29.76528788 184.56386828 C29.75264751 180.43329711 29.75159967 176.30272193 29.74923706 172.1721344 C29.7430609 164.37761875 29.72670332 156.58316029 29.70653808 148.78866965 C29.68405762 139.90332558 29.67315534 131.01797856 29.66314721 122.13261306 C29.64233291 103.88004315 29.60723346 85.6275262 29.5625 67.375 C27.02911289 66.57247856 24.49492041 65.77267183 21.96020508 64.97436523 C20.89549358 64.63663212 20.89549358 64.63663212 19.80927277 64.29207611 C13.68641258 62.36746603 7.51213719 60.84139189 1.25 59.4375 C-6.53383058 57.65271017 -14.07315798 55.59070998 -21.625 53 C-31.20394147 49.80297776 -43.21285605 46.34419506 -50.4375 55.375 Z M450.5625 55.375 C447.86240817 59.89718177 447.93762663 64.24154664 448.5625 69.375 C449.89764236 73.60428329 452.2287418 76.4444273 456 78.75 C470.19890518 85.22669359 485.21458453 78.62907512 499 73.875 C499.82798096 73.59068115 500.65596191 73.3063623 501.5090332 73.01342773 C506.75415972 71.15906874 511.6332105 68.95566132 516.5625 66.375 C517.0575 67.365 517.0575 67.365 517.5625 68.375 C516.9025 68.375 516.2425 68.375 515.5625 68.375 C514.09379272 69.78819919 514.09379272 69.78819919 512.5625 71.6875 C510.48080238 74.15437659 508.38649754 76.55987413 506.16015625 78.8984375 C495.25073727 90.3625727 488.24874644 101.15991313 488.2878418 117.29199219 C488.28273087 118.38251892 488.27761993 119.47304565 488.27235413 120.59661865 C488.2584515 124.20509333 488.25941804 127.81337668 488.26171875 131.421875 C488.25782701 133.95176259 488.25349135 136.48164953 488.24873352 139.01153564 C488.24126605 144.32770157 488.24142307 149.64379827 488.24682617 154.95996094 C488.25215094 160.36758634 488.24530548 165.77502285 488.22631836 171.18261719 C488.20356311 177.75135447 488.19611046 184.31993554 488.19999123 190.88871002 C488.19948498 193.36803991 488.1943816 195.84737409 488.18417931 198.32668304 C488.13784429 211.18233918 488.4807836 223.85982396 489.90551758 236.64550781 C490.02286349 237.71710522 490.14020941 238.78870262 490.26111126 239.89277267 C491.34174969 248.62745304 493.18673911 256.49316442 500.01953125 262.5546875 C502.14778361 264.07813696 503.95795369 265.1771387 506.375 266.125 C507.426875 266.5375 508.47875 266.95 509.5625 267.375 C519.75613018 261.81483808 523.57558798 251.11818348 526.875 240.5625 C530.20335835 227.4854058 530.86396727 214.21081747 530.78955078 200.76733398 C530.78898441 199.29686491 530.78930762 197.82639527 530.79043579 196.35592651 C530.79100149 192.42518877 530.77937659 188.49457713 530.76528788 184.56386828 C530.75264751 180.43329711 530.75159967 176.30272193 530.74923706 172.1721344 C530.7430609 164.37761875 530.72670332 156.58316029 530.70653808 148.78866965 C530.68405762 139.90332558 530.67315534 131.01797856 530.66314721 122.13261306 C530.64233291 103.88004315 530.60723346 85.6275262 530.5625 67.375 C528.0078358 66.56757758 525.45249849 65.76240457 522.89672852 64.95849609 C522.17841103 64.73121323 521.46009354 64.50393036 520.72000885 64.26976013 C515.36087449 62.58681482 509.98936163 61.19314177 504.5 60 C497.74615276 58.48341942 491.18422621 56.66955481 484.6015625 54.52783203 C466.46443675 47.97514304 466.46443675 47.97514304 450.5625 55.375 Z M689.5625 50.375 C689.51557262 72.160281 689.48041029 93.94555355 689.45887566 115.73087502 C689.44860658 125.84843267 689.43463084 135.96595873 689.41162109 146.08349609 C689.39155233 154.91214788 689.37875192 163.74077677 689.37432301 172.56945074 C689.37173822 177.23487333 689.36575647 181.90023046 689.35103989 186.56563187 C686.63463711 225.54525889 686.63463711 225.54525889 697.890625 260.94140625 C701.31862262 263.88083411 705.43096393 265.63413917 709.5625 267.375 C710.82161993 266.51317519 712.06935872 265.63471733 713.3125 264.75 C714.00859375 264.26273438 714.7046875 263.77546875 715.421875 263.2734375 C720.49581377 258.7735575 722.65253857 253.15019078 724.6875 246.875 C724.94684326 246.08037354 725.20618652 245.28574707 725.47338867 244.46704102 C732.34767868 222.61105547 730.70657815 198.64186965 730.66389394 175.97737193 C730.65756907 172.04298628 730.65704947 168.10859955 730.65586853 164.17420959 C730.65278179 156.7515818 730.64460487 149.32896904 730.63451904 141.90634781 C730.62327455 133.44420615 730.61782661 124.98206371 730.61282361 116.51991642 C730.60241951 99.13826897 730.58487249 81.75663608 730.5625 64.375 C729.94122223 64.15098511 729.31994446 63.92697021 728.67984009 63.69616699 C725.81977793 62.66378122 722.96066795 61.62878219 720.1015625 60.59375 C718.63601929 60.06539551 718.63601929 60.06539551 717.14086914 59.52636719 C710.16599521 56.99852144 703.29408324 54.29306213 696.4609375 51.40625 C693.44714259 50.15152663 693.44714259 50.15152663 689.5625 50.375 Z M287.5625 105.375 C288.5625 108.375 288.5625 108.375 288.5625 108.375 Z M732.5625 295.375 C730.615175 297.41491254 728.70567697 299.47324399 726.8125 301.5625 C721.25826717 307.66807211 715.6384374 313.4478946 709.25 318.6875 C708.70021484 319.14189453 708.15042969 319.59628906 707.58398438 320.06445312 C706.24537784 321.17025852 704.90420769 322.27295939 703.5625 323.375 C706.18176829 325.38646607 708.83551342 327.21878977 711.65234375 328.94140625 C724.71707504 337.00944609 736.62217755 345.83320868 748.41796875 355.66015625 C750.44423689 357.40308171 750.44423689 357.40308171 752.5625 358.375 C751.22311612 348.23775743 747.959161 338.78442941 744.75 329.125 C744.22265225 327.51974629 743.69595581 325.91427847 743.16992188 324.30859375 C740.00125829 314.65291107 736.78336816 305.01337393 733.5625 295.375 C733.2325 295.375 732.9025 295.375 732.5625 295.375 Z " fill="#000000" transform="translate(627.4375,145.625)"/>
<path d="M0 0 C31.53172872 8.09824536 72.05083666 16.93622551 104.54888916 11.32180786 C105.5891626 11.14778442 106.62943604 10.97376099 107.70123291 10.79446411 C110.34380612 10.30851441 112.97898351 9.79742393 115.61138916 9.25930786 C112.02241482 21.27612244 103.39662046 31.56264409 95.9487915 41.47219849 C94.69491746 43.14769282 93.45698215 44.83354489 92.22467041 46.52493286 C87.36936148 53.13425392 82.16497678 59.23175915 76.61138916 65.25930786 C75.50261051 66.52611933 74.39822397 67.79679243 73.29888916 69.07180786 C70.14061946 72.70124134 66.88183607 76.23138101 63.61138916 79.75930786 C59.1969329 84.52586634 54.83325532 89.32017842 50.61138916 94.25930786 C49.8160376 95.18743286 49.02068604 96.11555786 48.20123291 97.07180786 C40.85611693 105.68058524 33.72029934 114.45510908 26.61138916 123.25930786 C27.22159912 123.49730103 27.83180908 123.73529419 28.46051025 123.98049927 C32.80201466 125.69265356 37.10062762 127.45054769 41.33795166 129.40774536 C63.91637981 139.75504292 88.05882899 147.04400985 112.61138916 140.25930786 C113.94407851 139.92340907 115.27711104 139.58883902 116.61138916 139.25930786 C116.61138916 142.25930786 116.61138916 142.25930786 115.29107666 143.76712036 C114.69552979 144.30079224 114.09998291 144.83446411 113.48638916 145.38430786 C105.03848899 153.48949403 100.8504787 162.48841875 100.53155518 174.18798065 C100.51203472 177.87464777 100.5254654 181.55996518 100.54888916 185.24661255 C100.55404897 186.66507275 100.55863666 188.08353513 100.56269836 189.5019989 C100.571734 192.54883617 100.58303 195.59565412 100.59555054 198.64247894 C100.61360215 203.47898498 100.61546356 208.31541254 100.61309814 213.15194702 C100.61272899 213.9710763 100.61235983 214.79020557 100.61197948 215.63415694 C100.61021521 219.01156222 100.60800491 222.38896717 100.60583305 225.7663722 C100.60059472 235.31289586 100.61010377 244.85890871 100.66265869 254.40530396 C100.70439239 262.00657016 100.713704 269.6071323 100.68654823 277.2084744 C100.67341677 281.21972266 100.67569563 285.22951096 100.71759033 289.24059296 C100.89086411 306.81348391 100.70372572 322.0898443 90.61138916 337.25930786 C89.96847931 338.25627182 89.32556946 339.25323578 88.66317749 340.28041077 C87.1466108 342.51458458 85.53674327 344.5692438 83.79888916 346.63430786 C83.20197266 347.37140991 82.60505615 348.10851196 81.99005127 348.86795044 C76.48006032 355.5976713 70.68869482 362.03977903 64.61138916 368.25930786 C64.00085693 368.88498657 63.39032471 369.51066528 62.7612915 370.15530396 C55.93567595 377.12101975 49.08625159 383.98698272 41.61138916 390.25930786 C40.55407831 391.17836296 39.49823225 392.09910445 38.44342041 393.02102661 C28.7832882 401.43663479 18.77681502 409.18130008 8.21685791 416.45071411 C6.34872934 417.74748102 4.49910127 419.07105704 2.66217041 420.41165161 C-3.19116806 424.62346343 -9.15437564 428.47567893 -15.51361084 431.88430786 C-16.13381104 432.23936401 -16.75401123 432.59442017 -17.39300537 432.9602356 C-27.0385282 437.90585394 -38.77291686 433.53165137 -48.70111084 431.19680786 C-49.35379944 431.04413452 -50.00648804 430.89146118 -50.67895508 430.73416138 C-62.95533003 427.8387441 -74.70393148 424.01038152 -86.38861084 419.25930786 C-87.10613525 418.97619751 -87.82365967 418.69308716 -88.56292725 418.40139771 C-108.52489993 410.491224 -126.47950901 398.71902754 -143.04486084 385.16555786 C-144.5871683 383.91114779 -146.14956778 382.68098059 -147.73236084 381.47805786 C-164.05028531 368.97471314 -176.82831528 353.11232425 -188.38861084 336.25930786 C-188.78080811 335.68809204 -189.17300537 335.11687622 -189.5770874 334.52835083 C-195.71269221 325.50525106 -200.76696135 316.13580211 -205.38861084 306.25930786 C-205.73843018 305.51567993 -206.08824951 304.772052 -206.44866943 304.00588989 C-229.15799303 255.38424967 -233.14941796 199.42826908 -219.99407959 147.64407349 C-219.44020729 145.46253132 -218.91097365 143.27668513 -218.38861084 141.08743286 C-216.15928114 132.13295855 -213.0427112 123.71011621 -209.38861084 115.25930786 C-209.0299292 114.41384399 -208.67124756 113.56838013 -208.30169678 112.69729614 C-203.32082753 101.01364747 -198.02123262 90.11383417 -190.53070068 79.83206177 C-189.47670437 78.38062007 -188.45638973 76.90487839 -187.43939209 75.42727661 C-174.10948353 56.34063606 -157.64560384 40.27303944 -138.38861084 27.25930786 C-136.95388428 26.24417114 -136.95388428 26.24417114 -135.49017334 25.20852661 C-96.78935177 -1.16987841 -45.27356578 -11.6697865 0 0 Z M-37.38861084 48.25930786 C-37.39192099 49.37268178 -37.39523113 50.4860557 -37.39864159 51.63316822 C-37.47968827 78.74228552 -37.5720199 105.85134655 -37.67613792 132.96038532 C-37.7262285 146.07018686 -37.77267187 159.17998226 -37.81048584 172.28982544 C-37.84345938 183.71830081 -37.88332027 195.14672802 -37.9314009 206.57515019 C-37.95661251 212.62461995 -37.97840956 218.67405799 -37.9919548 224.72356606 C-38.00482357 230.4223034 -38.02692979 236.12093164 -38.05599403 241.81960869 C-38.06503222 243.90646304 -38.07075122 245.99333493 -38.07282448 248.08020782 C-38.09654855 268.34027929 -38.09654855 268.34027929 -40.38861084 277.25930786 C-41.04861084 277.25930786 -41.70861084 277.25930786 -42.38861084 277.25930786 C-43.27701829 278.57415088 -44.15630406 279.89555717 -45.00579834 281.23587036 C-48.8867432 286.91476707 -53.55933929 292.0769846 -57.97454834 297.34524536 C-59.20044678 298.8186438 -59.20044678 298.8186438 -60.45111084 300.32180786 C-61.2052124 301.22028442 -61.95931396 302.11876099 -62.73626709 303.04446411 C-64.58793165 305.0659342 -64.58793165 305.0659342 -64.38861084 307.25930786 C-65.04861084 307.25930786 -65.70861084 307.25930786 -66.38861084 307.25930786 C-67.80776735 308.97849746 -69.1479965 310.76307596 -70.45111084 312.57180786 C-75.67644375 319.72164954 -81.26719858 326.53451758 -86.95501709 333.32180786 C-87.77872803 334.31180786 -88.60243896 335.30180786 -89.45111084 336.32180786 C-90.2052124 337.22028442 -90.95931396 338.11876099 -91.73626709 339.04446411 C-93.58793165 341.0659342 -93.58793165 341.0659342 -93.38861084 343.25930786 C-94.04861084 343.25930786 -94.70861084 343.25930786 -95.38861084 343.25930786 C-95.71861084 344.24930786 -96.04861084 345.23930786 -96.38861084 346.25930786 C-81.52022319 358.41169027 -63.91365877 366.52800062 -45.38861084 371.25930786 C-44.59519287 371.46668579 -43.8017749 371.67406372 -42.98431396 371.88772583 C-42.19476318 372.08124634 -41.4052124 372.27476685 -40.59173584 372.47415161 C-39.88178467 372.64938354 -39.1718335 372.82461548 -38.44036865 373.00515747 C-36.15760238 373.28792278 -34.56717752 372.94784025 -32.38861084 372.25930786 C-32.44082911 369.0496849 -32.53597853 365.84268326 -32.63861084 362.63430786 C-32.65279053 361.73067505 -32.66697021 360.82704224 -32.68157959 359.89602661 C-32.88977726 354.19141033 -33.60688782 350.78906401 -37.38861084 346.25930786 C-38.09630615 345.38532349 -38.09630615 345.38532349 -38.81829834 344.49368286 C-43.25639157 339.93564117 -48.2498959 336.36529724 -53.50140381 332.81106567 C-56.7657612 330.57147085 -59.10906913 328.47879047 -61.38861084 325.25930786 C-62.04861084 325.25930786 -62.70861084 325.25930786 -63.38861084 325.25930786 C-60.85934637 320.40312008 -58.02793691 316.59297713 -54.36517334 312.54055786 C-51.3335889 309.04165408 -48.62005009 305.32903273 -45.92019463 301.57052898 C-44.30344464 299.37929406 -42.71544815 297.57461553 -40.78648567 295.61261463 C-31.35740373 285.50744204 -31.99273134 275.38379504 -32.16156006 262.11941528 C-32.15450883 259.79238729 -32.14306258 257.46536912 -32.12757874 255.13838196 C-32.09810714 248.85363451 -32.12975201 242.57053421 -32.17274237 236.28592086 C-32.20723539 229.70622254 -32.18500966 223.12671581 -32.16891479 216.54698181 C-32.14785897 205.513969 -32.16478835 194.48145922 -32.20697021 183.44851685 C-32.25029826 172.09070503 -32.27248343 160.73317217 -32.26654053 149.37527466 C-32.26600089 148.32300133 -32.26600089 148.32300133 -32.26545034 147.24946996 C-32.26351589 143.72974712 -32.26116901 140.2100247 -32.25861716 136.69030225 C-32.23801992 107.54645713 -32.29025833 78.40298952 -32.38861084 49.25930786 C-34.03861084 48.92930786 -35.68861084 48.59930786 -37.38861084 48.25930786 Z M-18.38861084 52.25930786 C-18.38861084 90.20930786 -18.38861084 128.15930786 -18.38861084 167.25930786 C-16.21629861 164.00083952 -15.05526309 160.72807679 -13.76361084 157.07180786 C-6.03185771 135.9980515 5.85349268 118.07174273 20.21636963 100.94241333 C22.00985209 98.77855822 23.72226282 96.5583418 25.42388916 94.32180786 C28.43875916 90.38278173 31.73161707 86.73906265 35.10748291 83.10696411 C36.82181296 81.39784469 36.82181296 81.39784469 36.61138916 79.25930786 C37.60138916 78.92930786 38.59138916 78.59930786 39.61138916 78.25930786 C41.39550366 76.53659926 41.39550366 76.53659926 43.11138916 74.44680786 C43.69920166 73.75973755 44.28701416 73.07266724 44.89263916 72.36477661 C46.52300432 70.36757929 48.07093738 68.32611668 49.61138916 66.25930786 C43.73078373 64.90334772 37.84897996 63.55274275 31.96612549 62.20657349 C29.97524812 61.75027417 27.98467509 61.29264443 25.9944458 60.83352661 C15.30738319 58.36915212 4.61426714 55.99558816 -6.15814209 53.93118286 C-7.48757088 53.67537445 -7.48757088 53.67537445 -8.84385681 53.41439819 C-12.101134 52.80351704 -15.06533837 52.25930786 -18.38861084 52.25930786 Z M-114.38861084 41.94680786 C-129.72503037 57.41294814 -140.0216153 75.93029122 -148.38861084 95.88430786 C-148.81400146 96.87559692 -149.23939209 97.86688599 -149.67767334 98.88821411 C-172.43099948 153.11930126 -171.13654472 220.64605895 -149.07611084 274.82180786 C-141.86196103 291.95664123 -133.26847926 307.6014508 -121.20111084 321.82180786 C-120.72641357 322.38142212 -120.25171631 322.94103638 -119.76263428 323.51760864 C-116.28525773 327.49466336 -112.47354947 330.91544549 -108.38861084 334.25930786 C-105.9588813 328.09820795 -104.07477982 321.91148071 -102.38861084 315.50930786 C-102.01736084 314.16932739 -102.01736084 314.16932739 -101.63861084 312.80227661 C-97.1938487 295.97236995 -95.94991721 279.32111518 -96.13983154 261.98684692 C-96.15057411 259.94452053 -96.15994198 257.90218653 -96.1680603 255.85984802 C-96.19363626 250.38377904 -96.23813194 244.908017 -96.28635812 239.43210697 C-96.33365277 233.68404166 -96.36308555 227.93588362 -96.39451599 222.18771362 C-96.45652841 211.33327851 -96.53430908 200.47901763 -96.61793631 189.62472987 C-96.71246135 177.25456296 -96.78913193 164.88430479 -96.86439764 152.51400805 C-97.01944809 127.09562545 -97.19661205 101.67743635 -97.38861084 76.25930786 C-106.14891379 84.99153292 -112.97335679 93.80046404 -119.26361084 104.44680786 C-119.81081787 105.3729187 -120.3580249 106.29902954 -120.92181396 107.25320435 C-123.77580144 112.1838988 -126.32968108 117.12911874 -128.57025146 122.36697388 C-129.50250926 124.52268097 -130.57996088 126.57139194 -131.70111084 128.63430786 C-140.97337729 147.26443092 -145.70312369 167.57352409 -147.38861084 188.25930786 C-148.04861084 188.25930786 -148.70861084 188.25930786 -149.38861084 188.25930786 C-149.09347189 172.38702851 -148.77384609 156.81830364 -145.38861084 141.25930786 C-145.22377197 140.44623169 -145.05893311 139.63315552 -144.88909912 138.79544067 C-142.30727357 126.12276134 -138.4964894 114.40781228 -133.36322021 102.54495239 C-132.47059479 100.45157584 -131.63134365 98.34645942 -130.81048584 96.22415161 C-124.26708132 79.7185858 -113.59628197 60.71826086 -99.88861084 49.19680786 C-95.70604366 44.56207126 -96.92587601 37.56377017 -97.17767334 31.73196411 C-97.2820874 30.01299927 -97.2820874 30.01299927 -97.38861084 28.25930786 C-102.70260639 28.25930786 -110.55294547 38.16247436 -114.38861084 41.94680786 Z M-8.57611084 187.88430786 C-18.55219344 202.50864694 -18.70641912 218.97449357 -18.86517334 236.07180786 C-18.87332439 236.83046143 -18.88147545 237.58911499 -18.8898735 238.37075806 C-18.93105766 242.36761274 -18.95991414 246.36434009 -18.97894287 250.36135864 C-19.00127351 254.46169405 -19.07044352 258.55991863 -19.14928627 262.65950012 C-19.20166692 265.84583406 -19.21832744 269.03165724 -19.22550583 272.21838379 C-19.23518561 273.73027235 -19.258266 275.24214209 -19.29558182 276.75360107 C-19.6378476 285.21107975 -19.6378476 285.21107975 -16.67393494 292.92446899 C-14.67892109 294.963591 -12.72638804 296.63168787 -10.38861084 298.25930786 C-9.79098434 298.69013672 -9.19335785 299.12096558 -8.57762146 299.56484985 C-6.91088497 300.69443082 -5.18093931 301.72894039 -3.45111084 302.75930786 C2.46479171 306.37847636 7.62130251 310.41443538 12.61138916 315.25930786 C12.11368742 319.56235414 9.36492676 322.210656 6.61138916 325.32180786 C5.60149606 326.48780069 4.59239244 327.65447774 3.58404541 328.82180786 C3.08018311 329.40188599 2.5763208 329.98196411 2.05718994 330.57962036 C-0.74692185 333.8373524 -3.44370721 337.17928044 -6.10736084 340.55227661 C-8.38861084 343.25930786 -8.38861084 343.25930786 -11.16986084 345.87258911 C-17.07570752 351.73696215 -18.91681622 355.32340009 -19.07196045 363.58987427 C-18.9872661 367.82742658 -18.7741566 372.03847155 -18.38861084 376.25930786 C-5.10893892 378.81390294 5.51172219 378.91649099 17.61138916 372.25930786 C29.02204584 364.39699732 34.53008332 356.44506518 38.61138916 343.25930786 C41.3565908 326.32452982 40.74891866 308.98619213 40.7127831 291.89061618 C40.70644641 288.37663901 40.70593773 284.86266059 40.70475769 281.34867859 C40.70167432 274.72290917 40.69350216 268.09715665 40.6834082 261.4713946 C40.67215297 253.91612834 40.66671312 246.36086119 40.66171277 238.8055886 C40.65131634 223.29015197 40.63377615 207.77473211 40.61138916 192.25930786 C37.61568025 190.64703397 34.61408699 189.04602248 31.61138916 187.44680786 C30.77220947 186.99499146 29.93302979 186.54317505 29.06842041 186.07766724 C15.59607817 178.92374907 2.35007757 174.40682673 -8.57611084 187.88430786 Z " fill="#000000" transform="translate(419.38861083984375,31.740692138671875)"/>
<path d="M0 0 C2.59381015 1.27497404 5.07291679 2.72134273 7.5625 4.1875 C8.99633867 5.00965894 10.43124368 5.82996088 11.8671875 6.6484375 C12.92244629 7.25123535 12.92244629 7.25123535 13.99902344 7.86621094 C30.54877303 17.24359467 46.75247928 22.30662298 65.60205078 17.56054688 C68.42549328 16.7781882 71.21825278 15.91904333 74 15 C74.33 15.99 74.66 16.98 75 18 C74.34 18 73.68 18 73 18 C72.79167038 18.533974 72.58334076 19.067948 72.36869812 19.61810303 C70.45561752 22.94736958 67.81537622 25.4374649 65.10083008 28.11035156 C64.19554565 29.01366463 64.19554565 29.01366463 63.27197266 29.93522644 C61.27571448 31.92499478 59.27257593 33.90769065 57.26953125 35.890625 C55.87617444 37.27770736 54.48333423 38.66530883 53.09098816 40.05340576 C49.42030426 43.71078161 45.74410584 47.36255974 42.06628418 51.01275635 C36.19657989 56.83938287 30.33345196 62.67260581 24.47373009 68.50926971 C22.43393662 70.53891566 20.39071995 72.56506686 18.34712219 74.59088135 C12.3460647 80.55306759 6.42935868 86.50277251 1 93 C0.11265173 94.0108514 -0.77661927 95.02001878 -1.66796875 96.02734375 C-9.07872931 104.58705944 -15.64508234 113.63444432 -22 123 C-22.67846481 123.85127472 -23.35692963 124.70254944 -24.05595398 125.57962036 C-26.5056372 129.88962462 -26.55386586 132.90383191 -26.48583984 137.76147461 C-26.48963654 138.62273453 -26.49343323 139.48399445 -26.49734497 140.37135315 C-26.50474284 143.21538946 -26.48334943 146.05839813 -26.4609375 148.90234375 C-26.45854881 150.90133037 -26.45764865 152.90031927 -26.4581604 154.89930725 C-26.45503182 159.0982971 -26.43848415 163.29694573 -26.41162109 167.49584961 C-26.37801521 172.80930205 -26.36998227 178.12237355 -26.37151146 183.43591976 C-26.37095962 187.57421844 -26.3598587 191.71243804 -26.34550858 195.85070992 C-26.33925105 197.80499233 -26.33522839 199.75928351 -26.33372116 201.71357536 C-27.80253955 235.52505048 -27.80253955 235.52505048 -15 265 C-12.1073371 266.74410557 -9.21483144 267.97839801 -6 269 C0.24972156 261.85746108 3.04202507 253.85186532 6 245 C6.23638184 244.29649414 6.47276367 243.59298828 6.71630859 242.86816406 C9.88612774 233.33444219 12.78480265 224.03398097 13.3359375 213.9453125 C13.38588867 213.03233398 13.43583984 212.11935547 13.48730469 211.17871094 C13.68662858 207.12013722 13.85458984 203.06084466 14 199 C19.76181237 201.62093896 20.8074836 206.28895429 23 212 C28.87534446 227.76725866 29.74694596 240.62841929 22.94042969 256.46533203 C16.96286016 269.44109115 9.43997217 280.3413294 0 291 C-0.70382812 291.83015625 -1.40765625 292.6603125 -2.1328125 293.515625 C-10.3446644 303.16363037 -19.66970076 311.36473012 -29.75 319 C-30.40033203 319.50563477 -31.05066406 320.01126953 -31.72070312 320.53222656 C-36.46813085 324.06456808 -36.46813085 324.06456808 -39.02514648 323.75415039 C-42.17239541 322.5522896 -44.68326809 320.49433569 -47.3125 318.4375 C-47.89064453 317.99003418 -48.46878906 317.54256836 -49.06445312 317.08154297 C-52.97649705 313.98469155 -56.3515445 310.73036436 -59.4375 306.7890625 C-61.02936537 304.85797362 -61.02936537 304.85797362 -63.421875 303.07421875 C-74.38548211 294.25349848 -84.17210692 278.81442023 -87 265 C-87.639375 265.598125 -88.27875 266.19625 -88.9375 266.8125 C-94.39696809 270.71212007 -100.26061685 272.51841409 -107 272 C-107 271.01 -107 270.02 -107 269 C-105.96875 268.29875 -104.9375 267.5975 -103.875 266.875 C-95.77301433 261.32636739 -92.39096639 252.72219077 -90.42126656 243.36855888 C-86.76027108 222.78471892 -87.70195958 201.18859285 -87.69407773 180.35148692 C-87.68952526 175.96488979 -87.67148246 171.57835041 -87.65428162 167.19178772 C-87.60565848 154.21869374 -87.5741397 141.24556726 -87.55297852 128.2723999 C-87.53642422 118.12641745 -87.51360971 107.98054756 -87.46995777 97.83464056 C-87.44829955 92.63869823 -87.44011172 87.4429706 -87.44235051 82.24698627 C-87.44067851 79.0201181 -87.42660215 75.79338987 -87.40913773 72.56657219 C-87.40356441 71.0787254 -87.4030287 69.59084931 -87.40807533 68.10300064 C-87.43649142 58.74143888 -87.13832289 50.7103015 -81.82421875 42.734375 C-78.42662435 39.44486452 -74.98369745 37.41666281 -70.8125 35.25 C-69.20688007 34.38699996 -67.60141595 33.52370999 -65.99609375 32.66015625 C-65.17351074 32.2233252 -64.35092773 31.78649414 -63.50341797 31.33642578 C-59.43574116 29.16493535 -55.40602578 26.92606439 -51.375 24.6875 C-50.65417236 24.29143555 -49.93334473 23.89537109 -49.19067383 23.48730469 C-45.67227427 21.54302264 -42.22358525 19.53551347 -38.828125 17.3828125 C-35.75826738 15.44167856 -32.6569699 13.75281994 -29.375 12.1875 C-24.02661352 9.56774326 -18.86619142 6.70645446 -13.72021484 3.71557617 C-12.15065067 2.80374061 -10.57554085 1.90146925 -9 1 C-8.3090625 0.57203125 -7.618125 0.1440625 -6.90625 -0.296875 C-4.15632689 -1.3111909 -2.79262011 -0.90950469 0 0 Z M-27 52 C-27 68.83 -27 85.66 -27 103 C-24.32439212 99.65549015 -21.75275883 96.33956284 -19.25 92.875 C-18.55519531 91.9159375 -17.86039063 90.956875 -17.14453125 89.96875 C-15.7453371 88.03179635 -14.34686566 86.09432038 -12.94921875 84.15625 C-9.16678302 78.92694079 -5.31312339 73.79276168 -1.25 68.77734375 C0.19175691 67.08949397 0.19175691 67.08949397 0 65 C-1.05058594 64.48050781 -2.10117188 63.96101563 -3.18359375 63.42578125 C-16.98882757 56.57412436 -16.98882757 56.57412436 -23.3984375 52.8125 C-24.99795515 51.84919124 -24.99795515 51.84919124 -27 52 Z " fill="#000000" transform="translate(1541,143)"/>
<path d="M0 0 C3.72173726 1.5826079 6.29291118 3.89093185 9.25 6.625 C10.01521973 7.33221191 10.01521973 7.33221191 10.79589844 8.05371094 C16.07361707 12.97979097 21.15877719 18.10119107 26.21582031 23.25244141 C30.08317371 27.17179118 34.06635489 30.86993628 38.23730469 34.46435547 C40.24239208 36.21116983 42.13930133 38.03803677 44 39.9375 C44.5775 40.52402344 45.155 41.11054687 45.75 41.71484375 C46.1625 42.13894531 46.575 42.56304687 47 43 C44.81731033 49.74649536 39.88690205 54.11309795 35 59 C33.51907466 60.70090364 32.06554244 62.42105115 30.625 64.15625 C28.51951894 66.5451612 26.25347935 68.74967678 24 71 C21.43990895 73.67025598 18.90660343 76.36525455 16.375 79.0625 C15.70726562 79.76955078 15.03953125 80.47660156 14.3515625 81.20507812 C13.70703125 81.89150391 13.0625 82.57792969 12.3984375 83.28515625 C11.81755371 83.90269775 11.23666992 84.52023926 10.63818359 85.15649414 C8.93497297 87.00627614 8.93497297 87.00627614 7.41259766 89.23217773 C6.94644043 89.81555908 6.4802832 90.39894043 6 91 C5.34 91 4.68 91 4 91 C4 91.66 4 92.32 4 93 C3.34 93 2.68 93 2 93 C1.731875 93.639375 1.46375 94.27875 1.1875 94.9375 C0 97 0 97 -3 98 C-3.21914063 97.31035156 -3.43828125 96.62070313 -3.6640625 95.91015625 C-8.42665306 81.7966257 -16.13088756 73.19398919 -28.64306641 65.42602539 C-34.1014193 62.01949237 -39.08642148 58.15503068 -44 54 C-43.38821244 50.34603593 -41.8335544 48.13957441 -39.5625 45.25 C-38.94503906 44.45078125 -38.32757812 43.6515625 -37.69140625 42.828125 C-37.13324219 42.22484375 -36.57507813 41.6215625 -36 41 C-35.34 41 -34.68 41 -34 41 C-33.78472656 40.47664063 -33.56945312 39.95328125 -33.34765625 39.4140625 C-31.46611522 36.04364988 -28.96622552 33.26709766 -26.4375 30.375 C-25.9017334 29.75544434 -25.3659668 29.13588867 -24.81396484 28.49755859 C-20.93378745 24.0252349 -16.96299105 19.63978511 -12.97265625 15.265625 C-10.51391225 12.441721 -8.32444158 9.47341151 -6.19140625 6.3984375 C-5.79824219 5.93695313 -5.40507813 5.47546875 -5 5 C-4.34 5 -3.68 5 -3 5 C-2.690625 4.360625 -2.38125 3.72125 -2.0625 3.0625 C-1 1 -1 1 0 0 Z " fill="#000000" transform="translate(774,45)"/>
<path d="M0 0 C0.66 0.33 1.32 0.66 2 1 C1.88610125 2.79240663 1.75852313 4.58394835 1.625 6.375 C1.55539062 7.37273437 1.48578125 8.37046875 1.4140625 9.3984375 C1 12 1 12 -1 14 C-3.24658203 14.22705078 -3.24658203 14.22705078 -6.0078125 14.1953125 C-6.99394531 14.18886719 -7.98007813 14.18242187 -8.99609375 14.17578125 C-10.54490234 14.15064453 -10.54490234 14.15064453 -12.125 14.125 C-13.16527344 14.11597656 -14.20554687 14.10695313 -15.27734375 14.09765625 C-17.85165997 14.07403867 -20.42585838 14.03816684 -23 14 C-23 18.95 -23 23.9 -23 29 C-20.69 28.34 -18.38 27.68 -16 27 C-9.45346221 26.36646408 -4.6455563 27.55921716 1 31 C5.49010033 35.60523111 7.28824232 39.52538605 7.3125 45.9375 C7.32925781 46.95714844 7.34601563 47.97679687 7.36328125 49.02734375 C6.95019766 52.40752237 5.92715715 54.22584538 4 57 C3.46375 57.825 2.9275 58.65 2.375 59.5 C-2.61472419 64.75234125 -7.38745105 67.23273657 -14.74487305 67.48706055 C-20.35615064 67.52327115 -24.41968642 67.492901 -29 64 C-31.31361802 60.52957297 -31.51020728 59.08165827 -31 55 C-29.375 53.0625 -29.375 53.0625 -27 52 C-21.57446809 52.42553191 -21.57446809 52.42553191 -20 54 C-19.52941176 59.41176471 -19.52941176 59.41176471 -21.5 61.875 C-21.995 62.24625 -22.49 62.6175 -23 63 C-17.32519579 64.27393564 -14.04987709 63.95370169 -9 61 C-4.97347771 55.91386658 -3.63578055 51.7755032 -3.71875 45.41796875 C-4.31173687 40.31992884 -6.48467929 36.42873096 -10.1875 32.9375 C-14.23178403 31.58940532 -17.88843594 31.97595877 -22 33 C-22.99 33.66 -23.98 34.32 -25 35 C-25.99 35 -26.98 35 -28 35 C-27.8613598 30.7289011 -27.71286099 26.45820108 -27.5625 22.1875 C-27.52318359 20.97255859 -27.48386719 19.75761719 -27.44335938 18.50585938 C-27.38051758 16.76079102 -27.38051758 16.76079102 -27.31640625 14.98046875 C-27.27974854 13.90692139 -27.24309082 12.83337402 -27.20532227 11.72729492 C-27 9 -27 9 -26 6 C-23.49502996 4.74751498 -21.79146726 4.88625594 -18.9921875 4.90234375 C-18.00605469 4.90556641 -17.01992187 4.90878906 -16.00390625 4.91210938 C-14.97136719 4.92048828 -13.93882813 4.92886719 -12.875 4.9375 C-11.31458984 4.94426758 -11.31458984 4.94426758 -9.72265625 4.95117188 C-7.14838038 4.96298048 -4.57421854 4.97944925 -2 5 C-1.34 3.35 -0.68 1.7 0 0 Z " fill="#000000" transform="translate(1674,296)"/>
<path d="M0 0 C3.54150893 -0.08761663 7.08273633 -0.14059739 10.625 -0.1875 C11.62402344 -0.21263672 12.62304688 -0.23777344 13.65234375 -0.26367188 C20.17943515 -0.32851053 24.82758491 0.14482642 29.875 4.6875 C31.53502713 8.09977799 31.67186172 11.32666908 31 15 C28.93228896 18.27981751 27.22880989 19.84746007 24 22 C24.40992188 22.67546875 24.81984375 23.3509375 25.2421875 24.046875 C25.78101563 24.93890625 26.31984375 25.8309375 26.875 26.75 C27.40867187 27.63171875 27.94234375 28.5134375 28.4921875 29.421875 C30 32 30 32 31.0078125 34.265625 C31.9457792 36.35216716 31.9457792 36.35216716 35 37 C35 37.99 35 38.98 35 40 C29.72 40 24.44 40 19 40 C19.33 38.35 19.66 36.7 20 35 C19.05683207 32.59480148 19.05683207 32.59480148 17.5625 30.375 C15 26.28337875 15 26.28337875 15 23 C14.34 23 13.68 23 13 23 C13 27.62 13 32.24 13 37 C13.99 37 14.98 37 16 37 C16 37.99 16 38.98 16 40 C11.05 40 6.1 40 1 40 C1 39.01 1 38.02 1 37 C1.66 37 2.32 37 3 37 C3 25.78 3 14.56 3 3 C2.34 3 1.68 3 1 3 C0.67 2.01 0.34 1.02 0 0 Z M13 5 C13 8.96 13 12.92 13 17 C16.81813447 16.72459296 16.81813447 16.72459296 20 15 C20.22918242 10.98342857 20.22918242 10.98342857 20 7 C19.34 6.34 18.68 5.68 18 5 C16.35 5 14.7 5 13 5 Z " fill="#000000" transform="translate(1290,634)"/>
<path d="M0 0 C3.37483413 -0.08767555 6.74937215 -0.14061628 10.125 -0.1875 C11.55199219 -0.22520508 11.55199219 -0.22520508 13.0078125 -0.26367188 C19.45617229 -0.33084229 23.53597359 0.46803155 28.84375 4.34765625 C31.36786419 7.95475187 30.68560309 12.83651941 30 17 C27.625 19.6875 27.625 19.6875 25 21 C24.34 21 23.68 21 23 21 C23.63228516 22.01320313 23.63228516 22.01320313 24.27734375 23.046875 C24.82519531 23.93890625 25.37304688 24.8309375 25.9375 25.75 C26.75541016 27.07257812 26.75541016 27.07257812 27.58984375 28.421875 C29 31 29 31 29.53125 33.2265625 C29.87104578 35.32519959 29.87104578 35.32519959 32.5625 36.625 C33.366875 37.07875 34.17125 37.5325 35 38 C35 38.66 35 39.32 35 40 C29.72 40 24.44 40 19 40 C19.33 38.68 19.66 37.36 20 36 C18.84986669 33.15307864 18.84986669 33.15307864 17.125 30.3125 C16.57070313 29.33925781 16.01640625 28.36601563 15.4453125 27.36328125 C14.20349743 25.12539223 14.20349743 25.12539223 13 24 C13 27.96 13 31.92 13 36 C13.66 36.33 14.32 36.66 15 37 C15 37.99 15 38.98 15 40 C10.05 40 5.1 40 0 40 C0 39.01 0 38.02 0 37 C0.99 36.505 0.99 36.505 2 36 C2.33 25.11 2.66 14.22 3 3 C2.01 3 1.02 3 0 3 C0 2.01 0 1.02 0 0 Z M12 5 C12 8.96 12 12.92 12 17 C14.3431213 16.74438677 16.67843403 16.40729228 19 16 C20.39935013 13.20129973 20.25265405 11.09501208 20 8 C18.93654948 6.01970318 18.93654948 6.01970318 17 5 C15.35 5 13.7 5 12 5 Z " fill="#000000" transform="translate(497,634)"/>
<path d="M0 0 C4.62 0 9.24 0 14 0 C14.62648438 1.39734375 15.25296875 2.7946875 15.8984375 4.234375 C16.7239141 6.07293653 17.54943737 7.9114771 18.375 9.75 C18.7875 10.67039063 19.2 11.59078125 19.625 12.5390625 C20.02460937 13.42851562 20.42421875 14.31796875 20.8359375 15.234375 C21.20251465 16.05131836 21.5690918 16.86826172 21.94677734 17.70996094 C22.92204457 19.83050025 23.94291127 21.91924826 25 24 C25.08685287 20.70849875 25.14033895 17.4172904 25.1875 14.125 C25.21263672 13.18785156 25.23777344 12.25070313 25.26367188 11.28515625 C25.27333984 10.38925781 25.28300781 9.49335938 25.29296875 8.5703125 C25.3086792 7.74289551 25.32438965 6.91547852 25.34057617 6.06298828 C25.22818604 5.38220215 25.1157959 4.70141602 25 4 C24.01 3.34 23.02 2.68 22 2 C22 1.34 22 0.68 22 0 C25.96 0 29.92 0 34 0 C33.67 0.99 33.34 1.98 33 3 C32.34 3 31.68 3 31 3 C31.33 13.89 31.66 24.78 32 36 C32.99 36.495 32.99 36.495 34 37 C34 37.99 34 38.98 34 40 C29.71 40 25.42 40 21 40 C17.82519223 34.53227552 15.13232145 29.17519839 12.89453125 23.26171875 C12.04881914 21.12343356 11.02834746 19.05669493 10 17 C10 23.27 10 29.54 10 36 C10.66 36.33 11.32 36.66 12 37 C12 37.99 12 38.98 12 40 C8.04 40 4.08 40 0 40 C0 39.01 0 38.02 0 37 C0.99 37 1.98 37 3 37 C2.67 25.78 2.34 14.56 2 3 C1.34 2.67 0.68 2.34 0 2 C0 1.34 0 0.68 0 0 Z " fill="#000000" transform="translate(99,234)"/>
<path d="M0 0 C3.66276871 3.0681634 5.67191028 5.91923385 7.0625 10.5 C6.96818597 15.78158557 5.79236493 19.1263399 2.19140625 22.890625 C-1.39103581 26.11414564 -4.82675048 28.49605029 -9 31 C-4.05 31.33 0.9 31.66 6 32 C6.66 28.7 7.32 25.4 8 22 C9.32 22.33 10.64 22.66 12 23 C11.34 28.94 10.68 34.88 10 41 C-3.2 41 -16.4 41 -30 41 C-30.495 39.515 -30.495 39.515 -31 38 C-30.04738281 37.45730469 -29.09476563 36.91460937 -28.11328125 36.35546875 C-26.84633756 35.63284161 -25.57941141 34.91018373 -24.3125 34.1875 C-23.68666016 33.83107422 -23.06082031 33.47464844 -22.41601562 33.10742188 C-21.1801785 32.40215357 -19.94570012 31.6944986 -18.71264648 30.984375 C-17.22741143 30.1307089 -15.73538566 29.28887834 -14.2421875 28.44921875 C-9.46928167 25.36429181 -5.4246074 20.55596885 -4 15 C-3.6522932 10.82751839 -3.9877081 7.70685351 -6 4 C-10.0445766 2.6518078 -13.77092865 2.42970491 -18 3 C-21.02690443 4.81590979 -21.02690443 4.81590979 -23 7 C-19.535 8.98 -19.535 8.98 -16 11 C-16.75 15.75 -16.75 15.75 -19 18 C-22 17.8125 -22 17.8125 -25 17 C-27.36344549 13.45483177 -27.59705317 11.45547044 -27.515625 7.2890625 C-26.71446032 3.73237688 -24.74082342 2.2340927 -21.86328125 0.15234375 C-14.74549351 -4.24964238 -7.25058212 -4.15367356 0 0 Z " fill="#000000" transform="translate(1641,248)"/>
<path d="M0 0 C4.62 0 9.24 0 14 0 C15.08441531 2.31199781 16.16754641 4.62458385 17.25 6.9375 C17.55035156 7.57751953 17.85070312 8.21753906 18.16015625 8.87695312 C20.50572846 13.89248519 22.75011462 18.9377579 25 24 C25 17.4 25 10.8 25 4 C24.34 3.67 23.68 3.34 23 3 C23 2.01 23 1.02 23 0 C26.63 0 30.26 0 34 0 C34 0.99 34 1.98 34 3 C33.01 3 32.02 3 31 3 C31.33 13.89 31.66 24.78 32 36 C32.99 36.495 32.99 36.495 34 37 C34 37.99 34 38.98 34 40 C29.71 40 25.42 40 21 40 C17.30655706 32.01185597 13.63369042 24.01549357 10 16 C10 22.6 10 29.2 10 36 C10.66 36.33 11.32 36.66 12 37 C12 37.99 12 38.98 12 40 C8.37 40 4.74 40 1 40 C0.505 38.515 0.505 38.515 0 37 C0.99 37 1.98 37 3 37 C3 25.78 3 14.56 3 3 C2.01 2.67 1.02 2.34 0 2 C0 1.34 0 0.68 0 0 Z " fill="#000000" transform="translate(821,634)"/>
<path d="M0 0 C5.14893228 5.01375745 6.33319005 9.08025838 6.5 16.125 C6.55314098 21.43245546 6.58741452 25.52663473 3 29.75 C1.07421875 31.48828125 1.07421875 31.48828125 -1 33 C-1.69480469 33.50917969 -2.38960937 34.01835937 -3.10546875 34.54296875 C-9.44946374 38.79213612 -15.39389927 39.94803834 -23 39 C-29.86469357 36.75538612 -35.10155172 33.10666024 -39 27 C-41.48789596 21.68494953 -41.94271294 16.32489774 -40.34765625 10.69921875 C-37.58971194 3.65639959 -33.30931704 -0.08059612 -26.875 -3.8125 C-17.41922723 -7.71814527 -8.16004142 -6.05162835 0 0 Z M-28 4 C-31.12990923 10.50551099 -31.9310668 17.92851441 -29.875 24.875 C-28.1066721 29.42212889 -25.43021285 32.78489357 -21 35 C-16.43719181 35.38023402 -13.92599062 35.42738029 -9.75 33.5 C-5.18709918 29.35190834 -3.34988429 25.80561424 -2.58203125 19.6484375 C-2.32129465 13.06660009 -2.4877036 7.83430145 -6.5859375 2.48828125 C-9.88204978 -0.9808314 -12.12227165 -1.87258782 -16.875 -2.5625 C-21.79937751 -2.37597055 -24.98913511 0.2486251 -28 4 Z " fill="#000000" transform="translate(1697,251)"/>
<path d="M0 0 C4.29 0 8.58 0 13 0 C14.27339482 2.51956743 15.54376642 5.04058649 16.8125 7.5625 C17.16892578 8.26697266 17.52535156 8.97144531 17.89257812 9.69726562 C18.24384766 10.39658203 18.59511719 11.09589844 18.95703125 11.81640625 C19.43619995 12.76688843 19.43619995 12.76688843 19.92504883 13.73657227 C21.37221963 16.78374929 22.67116644 19.89938836 24 23 C24.33 16.4 24.66 9.8 25 3 C24.01 3 23.02 3 22 3 C22 2.01 22 1.02 22 0 C25.96 0 29.92 0 34 0 C33.67 0.99 33.34 1.98 33 3 C32.34 3 31.68 3 31 3 C31 14.22 31 25.44 31 37 C31.99 37 32.98 37 34 37 C34 37.99 34 38.98 34 40 C29.71 40 25.42 40 21 40 C19.74738197 37.52212696 18.49787439 35.04276098 17.25 32.5625 C16.90195312 31.87478516 16.55390625 31.18707031 16.1953125 30.47851562 C13.62961791 25.37088287 11.32754596 20.23697841 9 15 C9 21.93 9 28.86 9 36 C9.66 36.33 10.32 36.66 11 37 C11 37.99 11 38.98 11 40 C7.37 40 3.74 40 0 40 C0 39.01 0 38.02 0 37 C0.99 37 1.98 37 3 37 C3 25.78 3 14.56 3 3 C2.01 2.67 1.02 2.34 0 2 C0 1.34 0 0.68 0 0 Z " fill="#000000" transform="translate(697,634)"/>
<path d="M0 0 C2.97640535 3.26444458 2.30685267 6.56011699 2.11328125 10.82421875 C2.05527344 11.58347656 1.99726562 12.34273437 1.9375 13.125 C0.9475 13.125 -0.0425 13.125 -1.0625 13.125 C-1.743125 11.701875 -1.743125 11.701875 -2.4375 10.25 C-3.86488254 7.12186321 -3.86488254 7.12186321 -6.0625 5.125 C-8.27322977 4.88246187 -8.27322977 4.88246187 -10.6875 5 C-11.91339844 5.02707031 -11.91339844 5.02707031 -13.1640625 5.0546875 C-14.10378906 5.08949219 -14.10378906 5.08949219 -15.0625 5.125 C-18.3459351 13.39222052 -19.66591234 21.00345633 -16.1953125 29.4609375 C-14.14089737 32.47880248 -11.47469517 33.09490335 -8.0625 34.125 C-8.0625 29.835 -8.0625 25.545 -8.0625 21.125 C-9.0525 20.795 -10.0425 20.465 -11.0625 20.125 C-11.0625 19.465 -11.0625 18.805 -11.0625 18.125 C-6.1125 18.125 -1.1625 18.125 3.9375 18.125 C3.9375 19.115 3.9375 20.105 3.9375 21.125 C3.2775 21.125 2.6175 21.125 1.9375 21.125 C1.9375 26.075 1.9375 31.025 1.9375 36.125 C-5.00813724 39.59781862 -10.89610841 40.80471352 -18.44140625 38.3515625 C-24.25808824 35.23903058 -27.11999758 30.30323685 -29.0625 24.125 C-30.04315791 17.87330579 -29.38539766 11.59662653 -26.0625 6.125 C-18.83256512 -2.28190102 -10.1351617 -2.89576049 0 0 Z " fill="#000000" transform="translate(920.0625,634.875)"/>
<path d="M0 0 C4.29 0 8.58 0 13 0 C14.29727041 4.29004308 15.58795717 8.58188827 16.875 12.875 C17.23980469 14.07898438 17.60460938 15.28296875 17.98046875 16.5234375 C20.00728046 23.30404394 21.79330046 30.02370531 23 37 C23.99 37 24.98 37 26 37 C26 37.99 26 38.98 26 40 C21.05 40 16.1 40 11 40 C11 39.01 11 38.02 11 37 C11.66 37 12.32 37 13 37 C12.505 34.525 12.505 34.525 12 32 C7.71 32 3.42 32 -1 32 C-1 33.65 -1 35.3 -1 37 C-0.34 37 0.32 37 1 37 C1 37.99 1 38.98 1 40 C-2.96 40 -6.92 40 -11 40 C-11 39.01 -11 38.02 -11 37 C-9.515 36.505 -9.515 36.505 -8 36 C-7.09930381 33.70889943 -6.40614993 31.55783082 -5.7734375 29.19140625 C-5.58028961 28.50948715 -5.38714172 27.82756805 -5.18814087 27.12498474 C-4.57193669 24.94060293 -3.97305111 22.75191422 -3.375 20.5625 C-2.76623021 18.37779422 -2.15400304 16.19408976 -1.54043579 14.01072693 C-1.15954571 12.65061298 -0.7821399 11.28951757 -0.40853882 9.92738342 C0.89263637 5.21472726 0.89263637 5.21472726 2 3 C1.34 3 0.68 3 0 3 C0 2.01 0 1.02 0 0 Z M5 12 C3.68 16.95 2.36 21.9 1 27 C3.97 27 6.94 27 10 27 C9.54901762 25.06077578 9.08894441 23.12366406 8.625 21.1875 C8.24214844 19.56908203 8.24214844 19.56908203 7.8515625 17.91796875 C7.11267119 14.84466657 7.11267119 14.84466657 5 12 Z " fill="#000000" transform="translate(1227,634)"/>
<path d="M0 0 C3.37483413 -0.08767555 6.74937215 -0.14061628 10.125 -0.1875 C11.55199219 -0.22520508 11.55199219 -0.22520508 13.0078125 -0.26367188 C19.39676296 -0.33022344 23.93888348 0.24499513 28.875 4.6875 C30.53525213 8.1002405 30.52778852 11.32014115 30 15 C28.62743948 18.43140129 27.41406147 19.71410041 24.375 21.8125 C20.00355332 23.35060161 16.61849103 23.20993141 12 23 C12 27.62 12 32.24 12 37 C12.99 37 13.98 37 15 37 C15 37.99 15 38.98 15 40 C10.05 40 5.1 40 0 40 C0 37 0 37 2 35 C2.17488254 32.56255103 2.23177405 30.2406392 2.1953125 27.8046875 C2.19106766 26.74352219 2.19106766 26.74352219 2.18673706 25.66091919 C2.17553137 23.3987749 2.15042679 21.13702485 2.125 18.875 C2.11497067 17.34245363 2.10584474 15.80990106 2.09765625 14.27734375 C2.07559086 10.51807699 2.04105896 6.75910536 2 3 C1.34 3 0.68 3 0 3 C0 2.01 0 1.02 0 0 Z M12 5 C12 8.96 12 12.92 12 17 C13.98 17 15.96 17 18 17 C19.50934217 13.98131566 19.17510672 11.32702771 19 8 C18.34 7.01 17.68 6.02 17 5 C15.35 5 13.7 5 12 5 Z " fill="#000000" transform="translate(1157,634)"/>
<path d="M0 0 C4.29 0 8.58 0 13 0 C14.29609643 4.14449439 15.58699797 8.29049002 16.875 12.4375 C17.23980469 13.60216797 17.60460937 14.76683594 17.98046875 15.96679688 C19.54963905 21.03093738 21.0622718 26.01444599 22.0703125 31.22265625 C22.60415942 35.22387453 22.60415942 35.22387453 26 37 C26 37.99 26 38.98 26 40 C21.05 40 16.1 40 11 40 C11 39.01 11 38.02 11 37 C11.66 37 12.32 37 13 37 C12.505 34.525 12.505 34.525 12 32 C6.06 32.495 6.06 32.495 0 33 C-0.33 34.32 -0.66 35.64 -1 37 C-0.34 37 0.32 37 1 37 C1 37.99 1 38.98 1 40 C-2.63 40 -6.26 40 -10 40 C-10 39.01 -10 38.02 -10 37 C-9.01 36.505 -9.01 36.505 -8 36 C-7.11263942 33.56439387 -6.33983037 31.16853195 -5.6171875 28.68359375 C-5.39805695 27.95253922 -5.17892639 27.22148468 -4.95315552 26.46827698 C-4.25313265 24.1267894 -3.56397257 21.78226017 -2.875 19.4375 C-2.40305431 17.85200186 -1.93040702 16.26671238 -1.45703125 14.68164062 C-0.29652458 10.79013728 0.85424818 6.89587183 2 3 C1.34 3 0.68 3 0 3 C0 2.01 0 1.02 0 0 Z M5 11 C3.68 16.28 2.36 21.56 1 27 C3.97 27 6.94 27 10 27 C8.98408579 21.53135543 7.92908943 16.23609987 6 11 C5.67 11 5.34 11 5 11 Z " fill="#000000" transform="translate(580,634)"/>
<path d="M0 0 C9.24 0 18.48 0 28 0 C28 3.63 28 7.26 28 11 C27.01 11 26.02 11 25 11 C24.87625 10.360625 24.7525 9.72125 24.625 9.0625 C24.41875 8.381875 24.2125 7.70125 24 7 C21.56612247 5.78306124 19.58161154 5.68040104 16.875 5.4375 C15.26625 5.293125 13.6575 5.14875 12 5 C12 8.3 12 11.6 12 15 C13.32 14.67 14.64 14.34 16 14 C16.33 13.34 16.66 12.68 17 12 C17.99 12 18.98 12 20 12 C20 15.63 20 19.26 20 23 C19.01 23 18.02 23 17 23 C16.67 22.34 16.34 21.68 16 21 C14.68 20.67 13.36 20.34 12 20 C12 24.62 12 29.24 12 34 C17.445 33.505 17.445 33.505 23 33 C23.66 31.35 24.32 29.7 25 28 C25.99 28 26.98 28 28 28 C28 31.96 28 35.92 28 40 C18.76 40 9.52 40 0 40 C0 37 0 37 2 35 C2.17488254 32.56255103 2.23177405 30.2406392 2.1953125 27.8046875 C2.19106766 26.74352219 2.19106766 26.74352219 2.18673706 25.66091919 C2.17553137 23.3987749 2.15042679 21.13702485 2.125 18.875 C2.11497067 17.34245363 2.10584474 15.80990106 2.09765625 14.27734375 C2.07559086 10.51807699 2.04105896 6.75910536 2 3 C1.34 3 0.68 3 0 3 C0 2.01 0 1.02 0 0 Z " fill="#000000" transform="translate(1363,634)"/>
<path d="M0 0 C4.29 0 8.58 0 13 0 C13.70576172 2.62388672 13.70576172 2.62388672 14.42578125 5.30078125 C15.05467775 7.63802346 15.68358455 9.97526289 16.3125 12.3125 C16.7755957 14.03436523 16.7755957 14.03436523 17.24804688 15.79101562 C19.15166263 22.86445101 21.06717709 29.93448834 23 37 C23.99 37 24.98 37 26 37 C26 37.99 26 38.98 26 40 C21.05 40 16.1 40 11 40 C11 39.01 11 38.02 11 37 C11.66 37 12.32 37 13 37 C12.505 34.525 12.505 34.525 12 32 C7.71 32 3.42 32 -1 32 C-1 33.65 -1 35.3 -1 37 C-0.34 37 0.32 37 1 37 C0.67 37.99 0.34 38.98 0 40 C-3.63 40 -7.26 40 -11 40 C-11 39.01 -11 38.02 -11 37 C-9.515 36.505 -9.515 36.505 -8 36 C-6.95714416 33.73705291 -6.95714416 33.73705291 -6.24609375 30.93359375 C-5.94896484 29.89009766 -5.65183594 28.84660156 -5.34570312 27.77148438 C-5.04599609 26.67126953 -4.74628906 25.57105469 -4.4375 24.4375 C-4.13392578 23.36435547 -3.83035156 22.29121094 -3.51757812 21.18554688 C-2.65839364 18.12879686 -1.82734455 15.06549095 -1 12 C-0.77070801 11.20094238 -0.54141602 10.40188477 -0.30517578 9.57861328 C0.75559054 5.74367184 0.99357973 3.97431891 0 0 Z M5 11 C4.32815382 13.10251861 3.66269032 15.20707763 3 17.3125 C2.62875 18.48425781 2.2575 19.65601563 1.875 20.86328125 C0.86565228 23.93886676 0.86565228 23.93886676 1 27 C3.97 27 6.94 27 10 27 C8.98408579 21.53135543 7.92908943 16.23609987 6 11 C5.67 11 5.34 11 5 11 Z " fill="#000000" transform="translate(1026,634)"/>
<path d="M0 0 C9.57 0 19.14 0 29 0 C29 3.96 29 7.92 29 12 C28.01 11.67 27.02 11.34 26 11 C25.6278958 9.67696283 25.29369827 8.34262065 25 7 C22.47524538 5.73762269 20.68799534 5.90143596 17.875 5.9375 C16.96492188 5.94652344 16.05484375 5.95554687 15.1171875 5.96484375 C14.06917969 5.98224609 14.06917969 5.98224609 13 6 C13 8.97 13 11.94 13 15 C14.65 14.67 16.3 14.34 18 14 C18 13.34 18 12.68 18 12 C18.99 12 19.98 12 21 12 C21 15.63 21 19.26 21 23 C20.01 23 19.02 23 18 23 C17.67 22.34 17.34 21.68 17 21 C15.68 21 14.36 21 13 21 C13 24.96 13 28.92 13 33 C16.63 33 20.26 33 24 33 C24.66 31.35 25.32 29.7 26 28 C26.99 28 27.98 28 29 28 C29 31.63 29 35.26 29 39 C19.76 39.33 10.52 39.66 1 40 C0.505 38.515 0.505 38.515 0 37 C0.99 36.505 0.99 36.505 2 36 C2.33 25.11 2.66 14.22 3 3 C2.01 3 1.02 3 0 3 C0 2.01 0 1.02 0 0 Z " fill="#000000" transform="translate(88,288)"/>
<path d="M0 0 C3.54150893 -0.08761663 7.08273633 -0.14059739 10.625 -0.1875 C11.62402344 -0.21263672 12.62304688 -0.23777344 13.65234375 -0.26367188 C19.19091443 -0.31869079 23.25321171 -0.21332909 28 3 C30.40777323 5.88932788 30.96115399 7.69478136 31.4375 11.4375 C30.91284546 15.70968693 29.79623825 17.75031771 27 21 C22.69394401 23.70666377 17.91785365 23.19285701 13 23 C13.11344376 25.1464753 13.24106345 27.29220592 13.375 29.4375 C13.44460938 30.63246094 13.51421875 31.82742188 13.5859375 33.05859375 C13.72257812 34.02925781 13.85921875 34.99992188 14 36 C14.66 36.33 15.32 36.66 16 37 C16 37.99 16 38.98 16 40 C11.05 40 6.1 40 1 40 C0.505 38.515 0.505 38.515 0 37 C1.485 36.505 1.485 36.505 3 36 C3.07406517 31.4793661 3.12856045 26.959084 3.16479492 22.43798828 C3.17989711 20.89951426 3.20038046 19.36108339 3.22631836 17.82275391 C3.26264074 15.61349859 3.27971119 13.40481152 3.29296875 11.1953125 C3.30845261 10.50567413 3.32393646 9.81603577 3.33988953 9.10549927 C3.37537883 6.95571414 3.37537883 6.95571414 3 4 C2.01 3.34 1.02 2.68 0 2 C0 1.34 0 0.68 0 0 Z M13 5 C13 8.96 13 12.92 13 17 C14.98 17 16.96 17 19 17 C21.37222995 14.10420618 21.37222995 14.10420618 20.75 10.4375 C20.3141556 6.95407388 20.3141556 6.95407388 18 5 C16.35 5 14.7 5 13 5 Z " fill="#000000" transform="translate(1089,634)"/>
<path d="M0 0 C0 2.64 0 5.28 0 8 C-0.99 8 -1.98 8 -3 8 C-3.28875 7.360625 -3.5775 6.72125 -3.875 6.0625 C-4.82823451 3.84793921 -4.82823451 3.84793921 -7 3 C-8.37342831 2.9310528 -9.75002102 2.91532292 -11.125 2.9375 C-12.40375 2.958125 -13.6825 2.97875 -15 3 C-14.74922377 6.00931481 -14.52344656 7.43674071 -13 10 C-10.06377067 12.25210064 -7.039817 14.13828458 -3.84765625 16.0078125 C-0.82528106 18.12223136 0.45685247 19.68354057 2 23 C2.5 26.5 2.5 26.5 2 30 C-1.3105108 34.13813849 -4.47295092 36.69347501 -9.76953125 37.3359375 C-16.45694052 37.42178358 -20.54946697 36.96402403 -26 33 C-26 29.04 -26 25.08 -26 21 C-23 24 -23 24 -22 26.0625 C-21.02674942 28.33242155 -21.02674942 28.33242155 -18 30 C-14.41642759 30.25015873 -14.41642759 30.25015873 -11 30 C-9.76338538 28.9564613 -9.76338538 28.9564613 -9.609375 26.69140625 C-9.74131275 23.79867958 -9.74131275 23.79867958 -12.265625 21.90234375 C-13.25046875 21.25394531 -14.2353125 20.60554688 -15.25 19.9375 C-23.93048659 14.13902681 -23.93048659 14.13902681 -26 10 C-26.56460345 5.8595747 -26.19641772 4.30040357 -23.875 0.75 C-16.39856979 -6.40136803 -8.21928316 -4.78212838 0 0 Z " fill="#000000" transform="translate(82,237)"/>
<path d="M0 0 C0 3.96 0 7.92 0 12 C-3 11 -3 11 -4.5625 8 C-5.036875 7.01 -5.51125 6.02 -6 5 C-9.16736204 3.41631898 -11.5153015 3.57943294 -15 4 C-19.14311786 8.03408845 -19.81837697 12.4329109 -20.18359375 18.09765625 C-19.88371297 22.8383248 -18.12281936 26.79991535 -16 31 C-12.74360341 31.94271002 -12.74360341 31.94271002 -9 32 C-5.79917017 29.49500274 -4.2872642 27.8617926 -3 24 C-2.01 24 -1.02 24 0 24 C0 27.63 0 31.26 0 35 C-6.78624623 38.46531722 -12.81889288 39.2015186 -20.1875 36.9375 C-24.59038383 35.09709456 -27.41053191 31.94244276 -30 28 C-31.18813473 24.43559582 -31.24187953 21.44525218 -31.3125 17.6875 C-31.34988281 16.39199219 -31.38726562 15.09648437 -31.42578125 13.76171875 C-30.76531609 7.92659996 -27.47867987 3.6883246 -23 0 C-16.02260576 -3.40360695 -7.04181641 -3.0451098 0 0 Z " fill="#000000" transform="translate(87,290)"/>
<path d="M0 0 C11.22 0 22.44 0 34 0 C34 3.63 34 7.26 34 11 C33.01 11 32.02 11 31 11 C30.67 9.35 30.34 7.7 30 6 C27.36 5.67 24.72 5.34 22 5 C22 15.56 22 26.12 22 37 C22.99 37 23.98 37 25 37 C25 37.99 25 38.98 25 40 C20.05 40 15.1 40 10 40 C10 37 10 37 12 35 C12.27904629 31.88961056 12.27904629 31.88961056 12.1953125 28.2421875 C12.1924826 27.57913605 12.18965271 26.91608459 12.18673706 26.23294067 C12.17553435 24.11344417 12.15043051 21.99436896 12.125 19.875 C12.11497028 18.43880818 12.10584441 17.00260975 12.09765625 15.56640625 C12.075595 12.04413372 12.04106494 8.52210797 12 5 C7.0583119 5.93913073 7.0583119 5.93913073 3.5625 9.125 C3.376875 9.74375 3.19125 10.3625 3 11 C2.01 11 1.02 11 0 11 C0 7.37 0 3.74 0 0 Z " fill="#000000" transform="translate(426,634)"/>
<path d="M0 0 C5.28 0 10.56 0 16 0 C15.67 0.99 15.34 1.98 15 3 C14.34 3 13.68 3 13 3 C13 13.23 13 23.46 13 34 C18.445 33.505 18.445 33.505 24 33 C24.66 31.35 25.32 29.7 26 28 C26.99 28 27.98 28 29 28 C29 31.96 29 35.92 29 40 C19.76 40 10.52 40 1 40 C0.505 38.515 0.505 38.515 0 37 C1.485 36.505 1.485 36.505 3 36 C3.07406517 31.4793661 3.12856045 26.959084 3.16479492 22.43798828 C3.17989711 20.89951426 3.20038046 19.36108339 3.22631836 17.82275391 C3.26264074 15.61349859 3.27971119 13.40481152 3.29296875 11.1953125 C3.30845261 10.50567413 3.32393646 9.81603577 3.33988953 9.10549927 C3.37537883 6.95571414 3.37537883 6.95571414 3 4 C2.01 3.34 1.02 2.68 0 2 C0 1.34 0 0.68 0 0 Z " fill="#000000" transform="translate(1428,634)"/>
<path d="M0 0 C9.24 0 18.48 0 28 0 C28 0.66 28 1.32 28 2 C25.36 2.33 22.72 2.66 20 3 C19.67 14.55 19.34 26.1 19 38 C21.97 38 24.94 38 28 38 C28 38.99 28 39.98 28 41 C18.76 41 9.52 41 0 41 C0 40.01 0 39.02 0 38 C2.97 38 5.94 38 9 38 C9 26.45 9 14.9 9 3 C6.36 3 3.72 3 1 3 C0.67 2.01 0.34 1.02 0 0 Z " fill="#000000" transform="translate(1611,301)"/>
<path d="M0 0 C5.28 0 10.56 0 16 0 C15.67 0.99 15.34 1.98 15 3 C14.34 3 13.68 3 13 3 C13 14.22 13 25.44 13 37 C13.99 37.33 14.98 37.66 16 38 C15.67 38.66 15.34 39.32 15 40 C10.05 40 5.1 40 0 40 C0 39.01 0 38.02 0 37 C0.99 37 1.98 37 3 37 C3 25.78 3 14.56 3 3 C2.01 2.67 1.02 2.34 0 2 C0 1.34 0 0.68 0 0 Z " fill="#000000" transform="translate(644,634)"/>
<path d="M0 0 C4.95 0 9.9 0 15 0 C14.67 0.99 14.34 1.98 14 3 C13.34 3 12.68 3 12 3 C12.33 13.89 12.66 24.78 13 36 C13.66 36.33 14.32 36.66 15 37 C15 37.99 15 38.98 15 40 C10.05 40 5.1 40 0 40 C0 37 0 37 2 35 C2.20144753 31.74105736 2.20144753 31.74105736 2.01171875 27.91015625 C1.98906448 27.20982773 1.96641022 26.50949921 1.94306946 25.78794861 C1.8930874 24.3058078 1.83811846 22.82382808 1.77856445 21.34204102 C1.68801063 19.07528223 1.61318851 16.80842652 1.54101562 14.54101562 C1.47069218 7.16085422 1.47069218 7.16085422 0 0 Z " fill="#000000" transform="translate(83,234)"/>
<path d="M0 0 C4.95 0 9.9 0 15 0 C15 0.99 15 1.98 15 3 C14.01 3 13.02 3 12 3 C12.33 13.89 12.66 24.78 13 36 C13.66 36.33 14.32 36.66 15 37 C15 37.99 15 38.98 15 40 C10.05 40 5.1 40 0 40 C0 39.01 0 38.02 0 37 C0.99 36.505 0.99 36.505 2 36 C2 25.44 2 14.88 2 4 C1.34 3.67 0.68 3.34 0 3 C0 2.01 0 1.02 0 0 Z " fill="#000000" transform="translate(769,634)"/>
</svg>
