<?xml version="1.0" encoding="UTF-8"?>
<svg version="1.1" xmlns="http://www.w3.org/2000/svg" width="7494" height="853">
<path d="M0 0 C132.66 0 265.32 0 402 0 C407.445 6.93 407.445 6.93 413 14 C414.99558321 16.50389214 416.99299816 19.00538802 419 21.5 C422.92677435 26.39288039 426.82162688 31.30887788 430.6875 36.25 C433.9311644 40.39560903 437.21267633 44.50157341 440.5625 48.5625 C444.13771422 52.90337956 447.57464985 57.33437013 450.98413086 61.80615234 C456.03027488 68.39312585 461.30229169 74.79640029 466.55029297 81.22265625 C471.35902079 87.11816627 476.06995332 93.07882009 480.6875 99.125 C485.05238224 104.83711011 489.56352508 110.42034801 494.11206055 115.98681641 C498.07958495 120.84835708 501.97271651 125.76200479 505.83349609 130.70849609 C509.35366342 135.20641694 512.94849618 139.63976805 516.5625 144.0625 C521.28965275 149.8499487 525.87839776 155.7181909 530.41015625 161.66015625 C533.88179654 166.17288195 537.50023603 170.56641845 541.10229492 174.97509766 C545.18819014 179.98229265 549.20429321 185.03935311 553.18505859 190.13037109 C555.7883591 193.45972973 558.41192698 196.77048831 561.0625 200.0625 C563.97488906 203.68680639 566.80903401 207.36282436 569.625 211.0625 C575.36364108 218.58350347 581.42103511 225.83792106 587.45214844 233.12451172 C592.76453374 239.56137984 597.87986592 246.13981572 602.94506836 252.77148438 C606.31910831 257.16605551 609.80127986 261.46461549 613.3125 265.75 C617.8014764 271.23058891 622.16362872 276.78772671 626.4375 282.4375 C631.43578973 289.03905759 636.61546006 295.46190419 641.90551758 301.83129883 C646.00167404 306.76827837 650.00431261 311.76698793 653.95092773 316.82397461 C658.7980176 323.03428061 663.72656667 329.17852255 668.65576172 335.32373047 C671.15778323 338.44375948 673.65460406 341.56794943 676.15234375 344.69140625 C677.39326391 346.24190057 678.63547077 347.79136589 679.87890625 349.33984375 C683.71622942 354.12293142 687.52514879 358.92731992 691.3125 363.75 C691.77906006 364.34409668 692.24562012 364.93819336 692.72631836 365.55029297 C695.05139667 368.51266804 697.37347423 371.47734251 699.69140625 374.4453125 C705.12545007 381.39442798 710.64447377 388.26593838 716.22509766 395.09790039 C719.63564202 399.28560159 722.97566176 403.5175888 726.25 407.8125 C729.95794714 412.6728365 733.77434862 417.42129368 737.6640625 422.13671875 C740.25360237 425.31085374 742.78824251 428.52391293 745.3125 431.75 C751.85684211 440.11285637 758.50006925 448.39554079 765.1484375 456.67578125 C768.39231104 460.72069295 771.61488581 464.7806464 774.80981445 468.86425781 C779.27064641 474.56539551 783.78944255 480.21113711 788.375 485.8125 C792.92624113 491.37557955 797.3461726 497.02175296 801.6875 502.75 C806.15822175 508.64853692 810.75368427 514.38118641 815.53125 520.03515625 C819.7164148 525.06132727 823.71240725 530.23538855 827.73779297 535.38964844 C831.42018701 540.08772796 835.17140741 544.73194931 838.91796875 549.37890625 C842.56768726 553.91737857 846.15391991 558.49538215 849.6875 563.125 C856.40919818 571.91754432 863.43685658 580.46520932 870.4765625 589.00390625 C874.54519145 593.94233043 878.53371005 598.93077358 882.4375 604 C883.07594849 604.82890747 883.07594849 604.82890747 883.72729492 605.67456055 C885.56524854 608.07494806 887.32212335 610.48318503 889 613 C889.495 309.565 889.495 309.565 890 0 C975.47 0 1060.94 0 1149 0 C1149 281.16 1149 562.32 1149 852 C1016.34 852 883.68 852 747 852 C731.89001767 833.65216431 731.89001767 833.65216431 727.13671875 827.671875 C723.63989987 823.29925323 720.10067718 818.96106645 716.56616211 814.61889648 C715.5159472 813.3283418 714.46712698 812.03665049 713.41992188 810.74365234 C712.16278386 809.19989724 710.88738944 807.6710485 709.609375 806.14453125 C708 804 708 804 708 802 C707.34 802 706.68 802 706 802 C704.76844632 800.46659493 703.61615395 798.86933811 702.5 797.25 C698.77926172 792.00074221 694.79028573 787.08527696 690.640625 782.171875 C687.82794629 778.82104551 685.12816231 775.38659774 682.4375 771.9375 C679.17111268 767.75167671 675.87624835 763.59844051 672.5 759.5 C669.12374474 755.4015511 665.82912329 751.24814544 662.5625 747.0625 C658.32384499 741.63466678 653.95919374 736.33060487 649.52734375 731.05859375 C646.81119908 727.77151295 644.18063176 724.42761286 641.5625 721.0625 C637.97336304 716.4522283 634.29981158 711.93817993 630.5 707.5 C626.28891443 702.57849408 622.24437295 697.55203939 618.265625 692.44140625 C614.7346359 687.9129626 611.13197386 683.44775133 607.5 679 C603.36550249 673.93466106 599.27620537 668.8393647 595.25 663.6875 C590.58539697 657.72011729 585.81996407 651.84290609 581 646 C575.70545342 639.58179065 570.49785717 633.10722978 565.37426758 626.55249023 C560.65500423 620.53017721 555.82238195 614.60207992 550.98828125 608.671875 C548.01583171 605.02458406 545.07700432 601.35135699 542.14453125 597.671875 C539.90103663 594.87670137 537.63882492 592.09744505 535.37426758 589.31933594 C530.63349401 583.5033283 525.92794241 577.66609043 521.3125 571.75 C517.1540989 566.42067086 512.86428737 561.21897097 508.515625 556.04296875 C505.86919827 552.84177866 503.30175275 549.58909846 500.75 546.3125 C496.58651229 540.96796563 492.32186382 535.71719498 488 530.5 C483.28690873 524.80859972 478.65546888 519.0667521 474.11328125 513.23828125 C470.63145312 508.77909785 467.07714398 504.38297257 463.5 500 C459.24130204 494.77330089 454.99962895 489.53429108 450.8125 484.25 C450.35488281 483.67765625 449.89726562 483.1053125 449.42578125 482.515625 C447.28025924 479.79447514 445.38472851 477.18719636 444 474 C443.34 474 442.68 474 442 474 C440.546875 472.19140625 440.546875 472.19140625 438.75 469.5625 C435.06124134 464.35523596 431.13632103 459.41110877 427.0625 454.5 C426.14791016 453.39652222 426.14791016 453.39652222 425.21484375 452.27075195 C423.47831097 450.17904046 421.73927756 448.08942915 420 446 C414.89964166 439.8452031 409.92794162 433.62341427 405.08544922 427.26342773 C400.30009677 421.02051 395.26224437 414.9872748 390.24609375 408.9296875 C387.16176271 405.2038508 384.13076511 401.43870449 381.12109375 397.65234375 C378.2680395 394.08471238 375.38340239 390.54311898 372.5 387 C366.35350129 379.4424 360.23596326 371.86653804 354.24194336 364.18701172 C348.92736931 357.38504036 343.48813805 350.69658234 337.98852539 344.04345703 C332.75291891 337.70930489 327.59596775 331.31945451 322.53125 324.84765625 C321.62509912 323.69002657 320.71884594 322.53247696 319.8125 321.375 C319.35206299 320.7869458 318.89162598 320.1988916 318.41723633 319.59301758 C314.28791394 314.33488674 310.07167281 309.15014756 305.84375 303.97119141 C302.28331025 299.60204132 298.77890821 295.19401808 295.3125 290.75 C291.0923885 285.34252993 286.75056288 280.05852988 282.33984375 274.8046875 C278.82440315 270.59085386 275.41288463 266.29694511 272 262 C270.58396598 260.22866074 269.16730437 258.45782298 267.75 256.6875 C265.16666667 253.45833333 262.58333333 250.22916667 260 247 C259.67 446.65 259.34 646.3 259 852 C173.53 852 88.06 852 0 852 C0 570.84 0 289.68 0 0 Z " fill="#FEFEFE" transform="translate(2827,0)"/>
<path d="M0 0 C5.97029767 -0.00187342 11.94058888 -0.00943153 17.91088271 -0.01613522 C31.60024102 -0.03032573 45.28959823 -0.03623176 58.97896236 -0.04082716 C65.76580044 -0.04317629 72.55263769 -0.04678018 79.33947512 -0.05052254 C102.64123774 -0.06334336 125.94299993 -0.07406561 149.244766 -0.07752514 C150.70237264 -0.07774676 152.15997929 -0.07796854 153.61758593 -0.07819049 C155.07837095 -0.07841112 156.53915597 -0.0786316 157.99994099 -0.07885194 C160.92970721 -0.07929445 163.85947343 -0.07974157 166.78923965 -0.08019161 C167.87882453 -0.0803557 167.87882453 -0.0803557 168.99042122 -0.0805231 C192.52493796 -0.08415089 216.05942384 -0.10006805 239.59392877 -0.12338198 C264.56720275 -0.14807533 289.54045913 -0.16170226 314.51374567 -0.16289306 C317.26406114 -0.16306447 320.0143766 -0.16327988 322.76469207 -0.16352749 C323.78025222 -0.16361114 323.78025222 -0.16361114 324.81632873 -0.16369648 C334.96003591 -0.16476806 345.10371413 -0.17400153 355.24741149 -0.18771267 C366.80994019 -0.2032256 378.37241587 -0.20816871 389.93495302 -0.19997457 C395.81695752 -0.19610789 401.69885563 -0.19679894 407.58084655 -0.21103191 C488.22029008 -0.39474755 578.29952089 7.31886208 642.74578261 61.16004276 C643.74609511 61.96441776 644.74640761 62.76879276 645.77703261 63.59754276 C650.98062423 67.80183848 655.85857042 72.02111931 660.12078261 77.19519901 C661.83418985 79.26693902 663.65712106 81.1990509 665.49578261 83.16004276 C674.80383836 93.67670265 682.02736496 105.55761157 687.88005996 118.28113651 C688.6864798 120.03133593 689.52167882 121.76819567 690.35906386 123.50379276 C710.61108279 167.4616633 709.93247224 221.02540093 709.79656386 268.42566776 C709.79247686 270.93494451 709.7887717 273.44422191 709.78545547 275.95349979 C709.77662056 282.02236199 709.76312046 288.0911992 709.74578261 294.16004276 C677.65949499 294.18283247 645.57320965 294.2005406 613.48691583 294.21110809 C609.70284342 294.21235887 605.91877102 294.21365318 602.13469863 294.2149744 C601.00463971 294.21536787 601.00463971 294.21536787 599.85175132 294.21576928 C587.63715592 294.22012612 575.42256521 294.22801375 563.20797259 294.23719556 C550.68404062 294.24653171 538.16011112 294.25209829 525.63617581 294.25413126 C517.9019941 294.25550656 510.16782562 294.25985757 502.43364798 294.26795923 C496.51311539 294.2738469 490.59258967 294.27450182 484.67205405 294.27315044 C482.23589917 294.27342697 479.79974382 294.2754347 477.36359191 294.27924824 C474.0533529 294.28417859 470.74317185 294.28304349 467.43293166 294.28029728 C466.45532553 294.28321012 465.4777194 294.28612296 464.47048885 294.28912407 C463.15077875 294.2861375 463.15077875 294.2861375 461.80440784 294.28309059 C461.03927137 294.28347031 460.2741349 294.28385003 459.48581249 294.28424126 C457.74578261 294.16004276 457.74578261 294.16004276 456.74578261 293.16004276 C456.42394223 291.41506148 456.15712832 289.65987317 455.91375136 287.90223026 C455.67894057 286.26181767 455.67894057 286.26181767 455.43938613 284.58826542 C455.27237197 283.41570194 455.10535781 282.24313847 454.93328261 281.03504276 C451.59210475 258.59293156 446.54332911 236.69894283 428.05437636 221.79676151 C412.02804913 210.61640795 390.16122869 210.00695065 371.4327333 210.01960087 C369.89043304 210.01701295 368.34813345 210.01399861 366.80583477 210.01059747 C362.58794996 210.00257326 358.37008222 210.00074045 354.15219069 210 C349.59414493 209.99814124 345.03610785 209.99058944 340.47806716 209.98386478 C330.51622012 209.97030987 320.55437711 209.96426015 310.59252238 209.95985413 C304.35919716 209.95708485 298.12587346 209.95284608 291.89254928 209.94834995 C274.599949 209.93615715 257.30734995 209.92586036 240.01474547 209.92247486 C238.90885411 209.9222553 237.80296274 209.92203573 236.66355951 209.92180951 C235.5551489 209.92159123 234.44673829 209.92137295 233.30473948 209.92114806 C231.05901297 209.92070461 228.81328646 209.92025805 226.56755996 209.91980839 C225.45362252 209.91958696 224.33968508 209.91936553 223.19199196 209.91913739 C205.18743337 209.91519886 187.18291549 209.89777383 169.17837259 209.87444887 C150.6479662 209.85063875 132.11758012 209.83826851 113.5871582 209.83710694 C103.20171445 209.83619517 92.81632364 209.83057042 82.43089461 209.81228733 C73.57713723 209.79675484 64.72344912 209.79184198 55.86968067 209.80002543 C51.36569976 209.80388709 46.86185775 209.80322748 42.35789466 209.78896809 C-23.84626455 209.58569622 -23.84626455 209.58569622 -81.25421739 239.16004276 C-82.0134752 239.83680058 -82.77273301 240.51355839 -83.55499864 241.21082401 C-112.22135301 268.29285483 -112.82538796 309.2969318 -115.25421739 346.16004276 C-115.30749192 346.96731815 -115.36076646 347.77459354 -115.41565537 348.60633183 C-118.83051525 401.48630676 -118.85503563 455.29404092 -115.25421739 508.16004276 C-115.20094285 508.94220158 -115.14766831 509.72436039 -115.0927794 510.53022099 C-113.55140209 563.21983801 -113.55140209 563.21983801 -90.31671739 608.16004276 C-89.63609239 608.82004276 -88.95546739 609.48004276 -88.25421739 610.16004276 C-88.25421739 610.82004276 -88.25421739 611.48004276 -88.25421739 612.16004276 C-87.65480332 612.43590214 -87.05538926 612.71176151 -86.43781114 612.99598026 C-84.25421739 614.16004276 -84.25421739 614.16004276 -81.31671739 616.78504276 C-68.79060322 627.66925613 -53.19656119 633.85543118 -37.31671739 637.97254276 C-36.5799376 638.1674329 -35.84315782 638.36232304 -35.08405137 638.56311893 C-21.19586407 641.91584763 -6.83615115 642.46006669 7.38514113 642.42073917 C8.97375953 642.42377003 10.56237647 642.42766412 12.1509909 642.43233174 C16.45941145 642.44250025 20.76774775 642.44045883 25.07617486 642.43615115 C29.74502429 642.4336634 34.4138545 642.44272324 39.08269668 642.45018864 C48.20733814 642.46288098 57.33195011 642.46473621 66.45659892 642.46238837 C73.87971481 642.460599 81.30282181 642.46236807 88.72593665 642.46661282 C90.31595477 642.4675056 90.31595477 642.4675056 91.93809446 642.46841642 C94.09211149 642.46962828 96.24612852 642.47084241 98.40014555 642.4720588 C118.56056463 642.48291317 138.72096695 642.48078176 158.88138696 642.47467395 C177.28597749 642.46950603 195.69051507 642.48076073 214.09509514 642.49977217 C233.03816926 642.51918838 251.98121839 642.52739999 270.92430252 642.52364892 C281.5412847 642.52174269 292.15822183 642.52416783 302.77519584 642.53836346 C311.81310808 642.55032653 320.85094752 642.55162721 329.88886086 642.53957329 C334.49101542 642.53371916 339.09303716 642.53248807 343.69518256 642.54457569 C391.64776358 643.07231713 391.64776358 643.07231713 433.62078261 622.16004276 C434.19570449 621.58254276 434.77062636 621.00504276 435.36297011 620.41004276 C436.74578261 619.16004276 436.74578261 619.16004276 438.74578261 619.16004276 C439.0074623 618.5915662 439.26914199 618.02308964 439.53875136 617.43738651 C440.8393074 614.98358661 442.37776313 612.93218368 444.05828261 610.72254276 C458.80676362 589.67523133 454.74578261 562.46010797 454.74578261 538.16004276 C349.80578261 538.16004276 244.86578261 538.16004276 136.74578261 538.16004276 C136.74578261 481.07004276 136.74578261 423.98004276 136.74578261 365.16004276 C327.81578261 365.16004276 518.88578261 365.16004276 715.74578261 365.16004276 C716.84006874 616.84585189 716.84006874 616.84585189 714.43328261 642.41004276 C714.36920211 643.10686161 714.3051216 643.80368046 714.23909926 644.52161503 C709.57401418 694.9036843 698.2935343 750.64067396 661.74578261 788.16004276 C660.94140761 789.00566776 660.13703261 789.85129276 659.30828261 790.72254276 C658.46265761 791.52691776 657.61703261 792.33129276 656.74578261 793.16004276 C655.75771621 794.14037479 655.75771621 794.14037479 654.74968886 795.14051151 C647.78424394 801.78570609 640.1707618 806.63341423 631.74578261 811.16004276 C631.00521621 811.55836308 630.2646498 811.95668339 629.50164199 812.36707401 C579.39225351 838.78457589 519.46513908 845.64888224 463.74578261 850.16004276 C461.9908384 850.30287071 461.9908384 850.30287071 460.20044076 850.44858408 C434.24872953 852.4765384 408.31423499 852.48278333 382.29738629 852.50603509 C375.84116737 852.51395177 369.38497958 852.53315686 362.92878127 852.55080509 C351.05078761 852.58195427 339.1727951 852.60365766 327.29477397 852.62099286 C316.31365009 852.63703965 305.33253997 852.65670603 294.35142875 852.6798563 C293.61861247 852.68139542 292.88579618 852.68293453 292.13077335 852.68452029 C289.15484149 852.69077198 286.17890966 852.69703583 283.20297788 852.70332066 C255.37134193 852.76202 227.53969686 852.80938448 199.70803165 852.85163889 C175.07141967 852.88911575 150.43484826 852.93698541 125.79827285 852.99353886 C98.01700896 853.05727798 70.2357442 853.1141922 42.45444542 853.16052747 C39.48349152 853.16550138 36.51253764 853.17049273 33.54158378 853.17549229 C32.44457285 853.17732978 32.44457285 853.17732978 31.32540009 853.1792044 C20.3629331 853.19768655 9.40048491 853.22126123 -1.56196618 853.24743748 C-14.05022901 853.27723186 -26.53847978 853.29928673 -39.02677182 853.3122417 C-45.38069693 853.31901622 -51.73457156 853.32889642 -58.0884726 853.3479948 C-132.11694542 853.56370006 -213.6321417 852.30825314 -276.25421739 807.16004276 C-277.24679551 806.45234745 -278.23937364 805.74465214 -279.26202989 805.01551151 C-285.42808506 800.51318734 -291.14857445 795.69840029 -296.73077989 790.49207401 C-298.89619205 788.49091138 -301.10940478 786.60209115 -303.37921739 784.72254276 C-308.32041319 780.41277766 -312.21645959 775.30019324 -316.25421739 770.16004276 C-317.15259376 769.04956354 -318.0523782 767.94022223 -318.95343614 766.83191776 C-380.64385924 690.48109968 -378.40113109 586.14072949 -378.42147446 486.83914661 C-378.42197563 482.42899067 -378.42428181 478.01883677 -378.42697167 473.60868168 C-378.43573119 458.94095583 -378.44039779 444.27323717 -378.4396412 429.60550869 C-378.43960124 428.82203032 -378.43956129 428.03855196 -378.43952012 427.23133183 C-378.43947924 426.44685803 -378.43943836 425.66238423 -378.43939624 424.85413849 C-378.43898975 412.14093856 -378.44857245 399.42776822 -378.46265849 386.71457684 C-378.47713084 373.5452632 -378.48392296 360.37596392 -378.48306471 347.20664215 C-378.48273675 339.85911571 -378.48536278 332.51162075 -378.49624276 325.1641016 C-378.68580279 190.52915336 -378.68580279 190.52915336 -350.25421739 132.16004276 C-349.59872241 130.7722802 -348.94377367 129.38425949 -348.28937364 127.99598026 C-339.5001551 109.62387523 -327.82158013 93.39307898 -313.72882676 78.70642948 C-312.36033736 77.27132818 -311.01706435 75.81229574 -309.67609239 74.35144901 C-280.79820224 43.8347829 -237.92197169 28.38054453 -198.25421739 18.16004276 C-197.3742711 17.93220097 -196.49432481 17.70435917 -195.58771348 17.46961308 C-155.54005684 7.29413699 -113.78071262 3.21873324 -72.59552717 1.27312517 C-71.0377251 1.19788523 -69.48008423 1.1192282 -67.92262936 1.03711462 C-45.29413252 -0.13750759 -22.65185983 0.00306717 0 0 Z " fill="#FEFEFE" transform="translate(378.2542173862457,-0.16004276275634766)"/>
<path d="M0 0 C5.97068378 0.00251858 11.94135336 -0.00660853 17.91203153 -0.01403749 C29.54154734 -0.02664383 41.17103992 -0.02859634 52.80056142 -0.02623723 C62.26576082 -0.02438742 71.73095352 -0.02619902 81.19615209 -0.03046167 C82.56744878 -0.03106413 83.93874547 -0.03166532 85.31004216 -0.03226527 C87.37762365 -0.03317274 89.44520513 -0.03408143 91.51278661 -0.03499762 C110.66668885 -0.04339406 129.82058861 -0.04778544 148.97449243 -0.0435909 C150.05159635 -0.04335634 150.05159635 -0.04335634 151.15045995 -0.04311704 C154.78801964 -0.04231153 158.42557933 -0.04146575 162.06313901 -0.04060373 C162.78528043 -0.04043265 163.50742185 -0.04026156 164.25144634 -0.04008529 C165.71177635 -0.03973862 167.17210635 -0.03939009 168.63243636 -0.0390397 C191.3708222 -0.03367891 214.10916927 -0.04163674 236.84754789 -0.06007326 C262.52452024 -0.08086916 288.20146862 -0.09150242 313.87844986 -0.08749777 C316.6245687 -0.08710254 319.37068754 -0.08674098 322.11680639 -0.08640039 C322.79273913 -0.08630966 323.46867188 -0.08621893 324.16508743 -0.08612545 C334.28479068 -0.08496867 344.40446935 -0.09153608 354.52416646 -0.10221231 C366.04785925 -0.11420665 377.57149492 -0.11544111 389.09518861 -0.10342214 C394.9550305 -0.09759167 400.81476832 -0.09626944 406.67460287 -0.10842454 C490.54243717 -0.27034159 578.47492473 9.55155512 645.68812406 64.27610838 C646.40871 64.85231932 647.12929594 65.42853026 647.87171781 66.02220213 C651.56055723 69.05378732 654.67014215 72.38960077 657.75062406 76.03392088 C659.12709451 77.62685242 660.54921338 79.18083398 662.00062406 80.70579588 C668.91465124 87.98713076 674.45706084 95.72579789 679.68812406 104.27610838 C680.04116605 104.84748534 680.39420805 105.41886229 680.75794828 106.0075537 C708.57168312 151.88889897 708.91279752 212.68977593 708.81849515 264.67576659 C708.81300712 268.29063436 708.81854809 271.90538437 708.82484281 275.52024901 C708.82418402 277.82298366 708.82290702 280.12571823 708.82093656 282.42845213 C708.82397291 284.0467417 708.82397291 284.0467417 708.82707059 285.69772398 C708.82391843 286.68128371 708.82076627 287.66484343 708.81751859 288.67820799 C708.8163252 289.97860266 708.8163252 289.97860266 708.8151077 291.30526793 C708.68812406 293.27610838 708.68812406 293.27610838 707.68812406 294.27610838 C706.34424575 294.37334199 704.99530078 294.40166228 703.64790952 294.40194952 C702.77220288 294.40455727 701.89649624 294.40716502 700.99425304 294.40985179 C699.53470345 294.40650571 699.53470345 294.40650571 698.04566801 294.40309203 C697.0205475 294.40465202 695.995427 294.40621201 694.93924224 294.40781927 C691.47596462 294.41183409 688.0127302 294.40863777 684.54945219 294.40550292 C682.07805198 294.40685674 679.60665198 294.40863657 677.13525236 294.41081297 C671.10247017 294.4149134 665.06970518 294.41429398 659.03692365 294.41140033 C654.13611527 294.4091465 649.23531037 294.40883369 644.33450162 294.40992415 C643.63831017 294.41007738 642.94211871 294.41023062 642.22483054 294.41038849 C640.8107508 294.4107082 639.39667107 294.41103241 637.98259133 294.41136108 C624.70728339 294.41421602 611.43198233 294.41092864 598.15667552 294.40556072 C586.75358069 294.40109267 575.35049605 294.40186859 563.9474014 294.40647948 C550.72120389 294.411825 537.49501242 294.41394133 524.26881397 294.41086721 C522.85979148 294.41054865 521.45076899 294.41023428 520.0417465 294.40992415 C519.34839052 294.40976987 518.65503454 294.4096156 517.94066778 294.40945665 C513.04293221 294.40859142 508.14520047 294.41005448 503.24746549 294.4124037 C496.66153816 294.41549308 490.07562716 294.41330925 483.48970068 294.40750945 C481.06483401 294.40618111 478.63996573 294.4065772 476.21509969 294.40877211 C472.92023747 294.41148074 469.62543825 294.40810602 466.33058012 294.40309203 C465.35754705 294.40532275 464.38451399 294.40755347 463.38199508 294.40985179 C462.50628844 294.40724404 461.6305818 294.40463629 460.7283386 294.40194952 C459.96678197 294.40178717 459.20522534 294.40162482 458.42059124 294.40145755 C456.68812406 294.27610838 456.68812406 294.27610838 455.68812406 293.27610838 C455.36628367 291.5311271 455.09946977 289.77593879 454.85609281 288.01829588 C454.62128202 286.37788329 454.62128202 286.37788329 454.38172758 284.70433104 C454.21471342 283.53176756 454.04769926 282.35920409 453.87562406 281.15110838 C450.43425628 258.0360389 445.30180708 236.02174886 425.68812406 221.27610838 C409.51194118 210.67303377 389.02483113 210.12086215 370.32797086 210.14239562 C368.78068194 210.14052481 367.2333935 210.13822304 365.68610579 210.13553029 C361.45470464 210.12943859 357.22332333 210.12954279 352.9919188 210.13072467 C348.41969338 210.13092936 343.84747422 210.12540324 339.27525175 210.1206671 C330.32264064 210.11237309 321.37003612 210.10961277 312.4174215 210.10905472 C305.13238707 210.10857872 297.84735481 210.10651975 290.56232107 210.1033541 C269.87566349 210.09454888 249.18901109 210.08993421 228.50235162 210.09068457 C226.83075063 210.0907445 226.83075063 210.0907445 225.12537992 210.09080565 C223.4517195 210.09086697 223.4517195 210.09086697 221.74424776 210.09092953 C203.68970434 210.09133538 185.63518184 210.08178103 167.58064447 210.06766728 C149.01072156 210.05326615 130.44080882 210.04639923 111.87088019 210.04726106 C101.45828636 210.04759187 91.04571443 210.04489628 80.63312566 210.03408301 C71.7612449 210.02492844 62.88939595 210.0228429 54.01751248 210.02959243 C49.50025197 210.03283357 44.98305231 210.0330028 40.46579778 210.02423918 C7.20225724 209.90696233 7.20225724 209.90696233 -25.74937594 214.08860838 C-26.65002779 214.26037596 -27.55067965 214.43214354 -28.47862399 214.6091162 C-56.35411247 220.14804735 -81.46858392 232.69093283 -97.74937594 256.83860838 C-137.82781622 318.38516573 -120.85700853 444.9182484 -108.72545016 573.15647948 C-105.72104751 586.68962814 -101.92485854 597.12047216 -92.10484469 607.24485838 C-90.31187594 609.27610838 -90.31187594 609.27610838 -90.31187594 611.27610838 C-89.32187594 611.60610838 -88.33187594 611.93610838 -87.31187594 612.27610838 C-87.31187594 612.93610838 -87.31187594 613.59610838 -87.31187594 614.27610838 C-86.74984469 614.53134276 -86.18781344 614.78657713 -85.60875094 615.04954588 C-83.01805153 616.43301462 -80.87836201 618.0954003 -78.56187594 619.90110838 C-54.12470991 637.80653189 -24.03007506 642.4359797 5.53712308 642.41655028 C7.1252492 642.41913864 8.71337466 642.4221531 10.30149925 642.42555368 C14.64097553 642.43357153 18.98043523 642.43541032 23.31991804 642.43615115 C28.0099796 642.43801083 32.70003275 642.44556268 37.39008939 642.45228636 C47.63418751 642.46583278 57.8782817 642.47188855 68.12238729 642.47629702 C74.52632451 642.47906553 80.93026024 642.48330397 87.33419645 642.48780119 C105.08665978 642.49998872 122.83912191 642.51028926 140.59158933 642.51367629 C141.72642126 642.51389585 142.8612532 642.51411542 144.03047398 642.51434164 C145.73664462 642.51466905 145.73664462 642.51466905 147.47728336 642.51500309 C149.78193859 642.51544654 152.08659383 642.5158931 154.39124906 642.51634276 C156.10600839 642.5166749 156.10600839 642.5166749 157.85540932 642.51701376 C176.36849076 642.52095969 194.8815328 642.53840981 213.39459902 642.56170228 C232.43009946 642.58545754 251.46558016 642.59788002 270.50109565 642.5990442 C281.17736718 642.59995858 291.85358733 642.60565106 302.52984464 642.62386382 C311.62250945 642.6393212 320.71510701 642.64435214 329.80778247 642.63612571 C334.44002296 642.63223918 339.07212824 642.63305028 343.70435178 642.64718306 C369.35597547 642.88183714 369.35597547 642.88183714 394.68812406 639.27610838 C395.36388077 639.13112237 396.03963748 638.98613636 396.73587167 638.83675683 C410.0408368 635.98199107 422.62178736 630.56514927 432.98890531 621.62376463 C434.68812406 620.27610838 434.68812406 620.27610838 437.68812406 619.27610838 C438.7439747 617.40442438 438.7439747 617.40442438 439.68812406 615.27610838 C440.60494093 614.09311887 441.54397054 612.92712159 442.50062406 611.77610838 C458.11866921 591.30845019 453.68812406 561.5800939 453.68812406 538.27610838 C348.74812406 538.27610838 243.80812406 538.27610838 135.68812406 538.27610838 C135.68812406 481.18610838 135.68812406 424.09610838 135.68812406 365.27610838 C326.75812406 365.27610838 517.82812406 365.27610838 714.68812406 365.27610838 C715.79879909 617.39933903 715.79879909 617.39933903 713.43812406 642.40110838 C713.37565488 643.08171324 713.31318571 643.7623181 713.24882352 644.46354735 C708.60742369 694.50317019 697.23154923 749.26216683 661.69593656 787.09251463 C659.64575328 789.24259779 659.64575328 789.24259779 657.92640531 791.67063963 C642.90905433 809.15157001 616.932492 819.06155205 595.68812406 826.27610838 C594.8102725 826.57468749 593.93242094 826.87326659 593.02796781 827.18089354 C557.42850533 839.06681305 520.08935277 844.62591506 482.87562406 848.52610838 C482.15431303 848.60324065 481.43300199 848.68037291 480.68983305 848.75984251 C447.58150938 852.24430467 414.49376945 852.59227598 381.2375232 852.62210071 C374.79832532 852.63002235 368.35915859 852.64922697 361.91998136 852.66687071 C350.07472452 852.6980099 338.22946883 852.71971928 326.38418447 852.73705848 C315.4324315 852.7531101 304.4806923 852.77277837 293.528952 852.79592192 C292.43234558 852.7982306 292.43234558 852.7982306 291.3135855 852.80058591 C288.34467438 852.80683769 285.3757633 852.81310155 282.40685225 852.81938628 C254.64398851 852.87807793 226.88111561 852.92544462 199.11822255 852.96770451 C174.54856106 853.00517702 149.97894027 853.05304658 125.40931547 853.10960448 C97.6979758 853.17336157 69.98663527 853.23027102 42.27526057 853.27659309 C39.31102675 853.28156692 36.34679296 853.28655828 33.38255918 853.29155791 C32.288045 853.2933954 32.288045 853.2933954 31.17141942 853.29527002 C20.23962604 853.31374287 9.30785158 853.33731577 -1.62392581 853.3635031 C-14.07953514 853.39331574 -26.53513235 853.4153609 -38.99077103 853.42830732 C-45.32672362 853.43507618 -51.66262548 853.44493984 -57.99855387 853.46406043 C-80.20676052 853.52898258 -102.38426408 853.56523427 -124.56669772 852.37504637 C-125.31720488 852.33498948 -126.06771204 852.29493258 -126.84096184 852.25366184 C-179.16116363 849.36198784 -233.94675908 838.2854658 -277.31187594 807.27610838 C-278.29543063 806.57872557 -279.27898531 805.88134276 -280.29234469 805.16282713 C-286.77479885 800.44145366 -292.69600992 795.3439491 -298.52281344 789.85423338 C-300.47144166 788.0529804 -302.40777265 786.35038414 -304.45640719 784.67454588 C-308.20063427 781.52960002 -311.17782928 778.01235822 -314.31187594 774.27610838 C-314.95640719 773.54263182 -315.60093844 772.80915526 -316.26500094 772.05345213 C-347.20412516 735.90051253 -362.44187205 691.32997036 -371.31187594 645.27610838 C-371.47671481 644.42129881 -371.64155367 643.56648924 -371.81138766 642.68577635 C-376.69491155 616.58721391 -378.17061367 589.56319082 -378.86387789 563.06126463 C-378.88479262 562.27503281 -378.90570736 561.48880099 -378.92725587 560.67874396 C-379.5750738 535.44558336 -379.47679471 510.20100614 -379.47913301 484.96139967 C-379.47963517 480.66427319 -379.48194406 476.36714879 -379.48463023 472.07002318 C-379.49338382 457.7672439 -379.49805722 443.46447197 -379.49729975 429.16169 C-379.4972598 428.39861799 -379.49721984 427.63554598 -379.49717867 426.84935057 C-379.49713779 426.0853039 -379.49709691 425.32125722 -379.49705479 424.53405762 C-379.49664833 412.15286761 -379.50623201 399.771708 -379.52031704 387.39052677 C-379.53480496 374.54993723 -379.5415807 361.70936241 -379.54072326 348.86876452 C-379.54039586 341.71065842 -379.54299485 334.55258465 -379.55390131 327.39448607 C-379.75996496 185.33038216 -379.75996496 185.33038216 -346.31187594 122.27610838 C-345.97462496 121.62432616 -345.63737399 120.97254393 -345.28990328 120.30101073 C-339.81664586 109.75713228 -333.25666183 100.44042589 -325.8338486 91.17698729 C-324.4622445 89.4639123 -323.10889578 87.73838558 -321.76109469 86.00657713 C-317.95369672 81.19965499 -314.10406877 76.90190774 -309.37046969 72.99876463 C-307.94492895 71.80585483 -306.56371061 70.55870873 -305.22203219 69.27220213 C-241.19228446 8.08822097 -132.9015959 3.16825823 0 0 Z " fill="#FEFEFE" transform="translate(5705.311875939369,-0.27610838413238525)"/>
<path d="M0 0 C304.59 0 609.18 0 923 0 C923 68.97 923 137.94 923 209 C594.815 209.495 594.815 209.495 260 210 C259.67 253.56 259.34 297.12 259 342 C466.9 342 674.8 342 889 342 C889 398.43 889 454.86 889 513 C681.1 513 473.2 513 259 513 C259 555.9 259 598.8 259 643 C483.4 643 707.8 643 939 643 C939 711.97 939 780.94 939 852 C629.13 852 319.26 852 0 852 C0 570.84 0 289.68 0 0 Z " fill="#FEFEFE" transform="translate(6555,0)"/>
<path d="M0 0 C1.02866237 0.0018986 2.05732475 0.0037972 3.11715871 0.00575334 C4.89742508 -0.00917953 4.89742508 -0.00917953 6.71365643 -0.02441406 C8.02394937 -0.00984986 9.33424232 0.00471435 10.68424112 0.0197199 C12.08514256 0.01754067 13.48604203 0.01316488 14.88693058 0.00677407 C18.74554545 -0.00443839 22.60347011 0.01563698 26.46199697 0.04066437 C30.61944749 0.06220448 34.77685732 0.05495353 38.93434793 0.051153 C46.14043773 0.04852792 53.34630163 0.06424993 60.55233461 0.0923422 C70.97108108 0.13293265 81.38971804 0.14599484 91.80853502 0.15228216 C108.71124222 0.16323235 125.61382896 0.19652619 142.51647073 0.24379522 C158.93833959 0.28967206 175.36017575 0.32507314 191.78209573 0.34633428 C192.79389906 0.3476479 193.80570239 0.34896151 194.84816643 0.35031494 C199.92395447 0.35684 204.99974275 0.36315857 210.07553118 0.36937445 C252.20168014 0.42123004 294.32769648 0.50931503 336.45372659 0.62099248 C338.37459167 4.14151108 340.29527801 7.66212717 342.21593362 11.18276006 C342.75639825 12.1733064 343.29686288 13.16385274 343.85370523 14.18441564 C347.69123916 21.21904241 351.51743946 28.25960673 355.32872659 35.30849248 C358.35135373 40.8965744 361.37631113 46.48319884 364.42247659 52.05849248 C367.66748975 58.00275218 370.87337659 63.96777899 374.07872659 69.93349248 C378.51189246 78.17655672 382.96340269 86.40892457 387.45372659 94.62099248 C392.42302959 103.70921424 397.33842482 112.82571496 402.24278909 121.94911748 C405.95632793 128.85270071 409.69296849 135.74302848 413.45372659 142.62099248 C418.42302023 151.70921936 423.3384248 160.82571491 428.24278909 169.94911748 C432.43566526 177.74380358 436.66316349 185.51883654 440.91026956 193.28407842 C444.83220973 200.46238588 448.70857913 207.66465484 452.57872659 214.87099248 C456.53295106 222.23033295 460.50747705 229.57567071 464.57872659 236.87099248 C473.60403379 253.04659886 482.38888173 269.34487717 491.06154519 285.71162969 C496.95844376 296.83795794 502.94340954 307.91231258 508.99571878 318.95497686 C511.61980991 323.7532145 514.22445945 328.56197424 516.82872659 333.37099248 C517.36586282 334.36276494 517.90299905 335.3545374 518.45641214 336.37636358 C523.08357168 344.92611592 527.6882427 353.48791636 532.29308206 362.04970342 C536.47039056 369.8103793 540.68136872 377.55204254 544.9105137 385.2845667 C548.83241311 392.46268924 552.70866522 399.66481516 556.57872659 406.87099248 C560.53295188 414.23033449 564.50754986 421.57562907 568.57872659 428.87099248 C577.81017319 445.41954763 586.78455436 462.09624371 595.63201028 478.85255986 C601.68430247 490.31260706 607.81744879 501.72370949 614.05919534 513.08192998 C616.48986725 517.5075231 618.9097591 521.93899371 621.32872659 526.37099248 C622.06421731 527.71822393 622.06421731 527.71822393 622.81456643 529.09267217 C627.32260445 537.36057463 631.78343258 545.65364786 636.24230081 553.94814092 C640.43528153 561.74318408 644.66298892 569.51851738 648.91026956 577.28407842 C652.83220973 584.46238588 656.70857913 591.66465484 660.57872659 598.87099248 C664.53295106 606.23033295 668.50747705 613.57567071 672.57872659 620.87099248 C681.60403379 637.04659886 690.38888173 653.34487717 699.06154519 669.71162969 C704.95844376 680.83795794 710.94340954 691.91231258 716.99571878 702.95497686 C719.61980991 707.7532145 722.22445945 712.56197424 724.82872659 717.37099248 C725.36586282 718.36276494 725.90299905 719.3545374 726.45641214 720.37636358 C731.08357168 728.92611592 735.6882427 737.48791636 740.29308206 746.04970342 C744.47039056 753.8103793 748.68136872 761.55204254 752.9105137 769.2845667 C756.83241311 776.46268924 760.70866522 783.66481516 764.57872659 790.87099248 C768.91305028 798.93774843 773.28557099 806.9793099 777.75353128 814.97279912 C781.67079326 821.98624818 785.51135961 829.04095484 789.34483987 836.10048467 C789.82163186 836.97736943 790.29842386 837.8542542 790.78966409 838.75771123 C791.4678721 840.0056043 791.4678721 840.0056043 792.15978128 841.27870733 C793.34273597 843.42007853 794.56557704 845.53170714 795.80528909 847.64052373 C797.45372659 850.62099248 797.45372659 850.62099248 797.45372659 852.62099248 C761.48640403 852.80403215 725.51916302 852.94503331 689.55147075 853.02951512 C685.30689316 853.03952099 681.06231648 853.04987554 676.81774026 853.06044561 C675.97270783 853.06254409 675.1276754 853.06464257 674.25703593 853.06680465 C660.56740149 853.10163224 646.87803531 853.16471798 633.18856011 853.23821485 C619.1458886 853.31298019 605.10335776 853.35745271 591.06049538 853.37370044 C582.39243279 853.38468742 573.72512839 853.41940883 565.05729916 853.48432422 C559.11650906 853.52655456 553.17611192 853.53940661 547.23518256 853.5290035 C543.80526653 853.52386986 540.37667676 853.53183383 536.94699556 853.57463628 C533.22985274 853.61427971 529.5159878 853.60493417 525.79877359 853.58302861 C524.71219943 853.60633135 523.62562527 853.62963408 522.50612462 853.65364295 C515.37520764 853.53957486 515.37520764 853.53957486 512.70333117 850.87610322 C511.40668195 848.83528298 510.40284985 846.84125114 509.45372659 844.62099248 C508.91973245 843.67804326 508.38573831 842.73509404 507.83556253 841.76357061 C507.37440042 840.90183233 506.91323831 840.04009404 506.43810159 839.15224248 C505.91385598 838.17722783 505.38961038 837.20221318 504.84947854 836.19765264 C504.3063804 835.18235479 503.76328225 834.16705693 503.20372659 833.12099248 C498.75689913 824.85857289 494.2532148 816.63701466 489.62950784 808.47255498 C486.77830489 803.43764607 483.97924877 798.37386262 481.17467386 793.31288701 C479.23400509 789.81422708 477.28817852 786.31911451 475.31310159 782.83974248 C469.95506863 773.39815409 464.78687927 763.86163197 459.6773594 754.28310186 C456.39005643 748.13998991 453.0157818 742.05772087 449.54416543 736.01677495 C445.97619486 729.80482325 442.48323179 723.55227027 439.01427346 717.2845667 C438.29476668 715.9863406 437.57334815 714.68917254 436.85021096 713.39296514 C435.78689172 711.48682847 434.72905433 709.57774728 433.67247659 707.66786748 C433.05308206 706.55250615 432.43368753 705.43714483 431.79552346 704.28798467 C430.45372659 701.62099248 430.45372659 701.62099248 430.45372659 699.62099248 C257.86372659 699.95099248 85.27372659 700.28099248 -92.54627341 700.62099248 C-99.47627341 714.48099248 -106.40627341 728.34099248 -113.54627341 742.62099248 C-116.51627341 748.23099248 -119.48627341 753.84099248 -122.54627341 759.62099248 C-124.05797806 762.73903119 -125.54614184 765.84628188 -126.98377341 768.99599248 C-129.80845412 775.08140337 -132.78293503 781.0525212 -135.95252341 786.96474248 C-142.75002097 799.76727041 -149.15604766 812.76760459 -155.60877341 825.74599248 C-157.45580652 829.4605438 -159.30339855 833.17481148 -161.15404624 836.88756353 C-162.29553731 839.17807386 -163.43521751 841.46948773 -164.5729 843.76189214 C-165.08110785 844.78161107 -165.58931571 845.80133001 -166.1129238 846.85194951 C-166.56019324 847.75172521 -167.00746268 848.6515009 -167.46828574 849.57854253 C-168.54627341 851.62099248 -168.54627341 851.62099248 -169.54627341 852.62099248 C-171.0736256 852.7178725 -172.60546772 852.74470949 -174.13588923 852.74404031 C-175.13413142 852.74603136 -176.1323736 852.74802241 -177.16086555 852.75007379 C-178.8257131 852.74570453 -178.8257131 852.74570453 -180.52419394 852.741247 C-181.69294434 852.74210142 -182.86169474 852.74295585 -184.06586182 852.74383616 C-187.32446721 852.74520433 -190.58303336 852.74205693 -193.84163409 852.7370581 C-197.3501701 852.73275686 -200.85870414 852.73419979 -204.36724204 852.73496038 C-210.45084495 852.73548582 -216.53443718 852.73233691 -222.6180374 852.72672254 C-231.41400172 852.71861028 -240.20996085 852.7159926 -249.00592851 852.71473455 C-263.2753205 852.7125436 -277.54470678 852.70588234 -291.81409568 852.69643193 C-305.67900424 852.68725893 -319.54391126 852.68017755 -333.40882224 852.67592412 C-334.26284025 852.6756614 -335.11685826 852.67539868 -335.99675561 852.67512799 C-340.28092934 852.67382299 -344.56510309 852.67255928 -348.84927684 852.67131609 C-384.41494643 852.66094213 -419.9806094 852.64332264 -455.54627341 852.62099248 C-454.06447432 848.01396869 -452.23048651 843.83589344 -449.94080466 839.58192998 C-449.40673247 838.57648389 -449.40673247 838.57648389 -448.86187094 837.55072576 C-447.69858428 835.36343142 -446.52875234 833.17971332 -445.35877341 830.99599248 C-444.54523657 829.46942393 -443.73208999 827.94264734 -442.91932029 826.41567022 C-440.46800489 821.81402879 -438.00797762 817.21708253 -435.54627341 812.62099248 C-434.82798211 811.27904868 -434.10971906 809.93708975 -433.39148825 808.59511358 C-430.82324143 803.79756158 -428.25356956 799.00078185 -425.67933005 794.2064417 C-422.18454178 787.69525359 -418.72186123 781.16881788 -415.29627341 774.62099248 C-411.0376074 766.48623358 -406.6319763 758.43640905 -402.18689841 750.40224248 C-401.3063931 748.80865653 -400.42619252 747.21490218 -399.54627341 745.62099248 C-399.08043845 744.77834844 -398.61460349 743.9357044 -398.13465232 743.06752568 C-394.42826211 736.32332247 -390.88195306 729.50389404 -387.36994284 722.65675908 C-382.03849291 712.26964162 -376.60027499 701.95585932 -370.965707 691.72914678 C-367.22115811 684.9126136 -363.61535114 678.03082843 -360.04627341 671.12099248 C-355.47784773 662.27743283 -350.79087452 653.51127087 -345.99549216 644.78896123 C-342.42479468 638.27713661 -338.96307084 631.71473416 -335.54627341 625.12099248 C-331.65528559 617.61215736 -327.68316724 610.15689779 -323.60877341 602.74599248 C-318.73522057 593.87918823 -314.04545644 584.92698332 -309.4019863 575.93788701 C-305.40098081 568.21275397 -301.26935257 560.5684316 -297.07459372 552.94716436 C-292.62493721 544.83394753 -288.3767701 536.62169949 -284.13367575 528.39906865 C-281.25560276 522.84226782 -278.32529283 517.33859137 -275.17127341 511.93349248 C-272.71916586 507.72624571 -270.44323002 503.4919496 -268.29627341 499.12099248 C-265.31088881 493.04867959 -262.11872274 487.11256434 -258.85877341 481.18349248 C-254.65953871 473.5432548 -250.55598863 465.86237217 -246.54627341 458.12099248 C-242.6554359 450.61208111 -238.68316526 443.1568942 -234.60877341 435.74599248 C-230.31070254 427.92620386 -226.14167482 420.04875435 -222.04627341 412.12099248 C-217.48081196 403.28330171 -212.79868823 394.52191685 -208.00428122 385.80653936 C-203.80834531 378.15790006 -199.7832814 370.42633693 -195.77356833 362.67885381 C-192.46868188 356.31868149 -188.99373831 350.10187989 -185.39002341 343.90614873 C-183.40198355 340.36389975 -181.58497725 336.76642896 -179.79627341 333.12099248 C-176.63040022 326.67076282 -173.25939726 320.35386964 -169.79627341 314.05849248 C-165.6169839 306.46026431 -161.53449707 298.8212416 -157.54627341 291.12099248 C-153.1588511 282.65412491 -148.64851506 274.26475626 -144.05506247 265.90810186 C-139.84434912 258.22472039 -135.80081429 250.46018637 -131.77381247 242.67934209 C-129.05392053 237.44494331 -126.2602358 232.28359182 -123.29627341 227.18349248 C-120.68848722 222.69555088 -118.26846416 218.15481669 -115.98377341 213.49599248 C-112.08055499 205.55078766 -107.90708894 197.75938204 -103.7127468 189.96468145 C-102.72216958 188.1236582 -101.73177385 186.28253763 -100.74158591 184.44130498 C-100.40351416 183.81267553 -100.06544242 183.18404607 -99.71712607 182.53636724 C-95.62414381 174.91700426 -91.58690705 167.26819995 -87.54627341 159.62099248 C-79.00434248 143.46152608 -70.38044857 127.34720557 -61.73279685 111.24403936 C-59.89900565 107.8284433 -58.06606541 104.41239301 -56.23377341 100.99599248 C-55.32015036 99.29249639 -55.32015036 99.29249639 -54.38807029 97.55458623 C-48.95135589 87.40379445 -43.57164397 77.22317769 -38.19422263 67.04088384 C-33.14755154 57.48816124 -28.038513 47.97469593 -22.83094138 38.50844365 C-18.36037492 30.35103001 -14.07829406 22.09787187 -9.82044333 13.82777959 C-9.3058657 12.83012578 -8.79128806 11.83247197 -8.26111716 10.80458623 C-7.80857566 9.92343145 -7.35603415 9.04227666 -6.88977927 8.13442022 C-6.44642234 7.30498906 -6.0030654 6.47555791 -5.54627341 5.62099248 C-5.14037189 4.75684234 -4.73447037 3.8926922 -4.3162688 3.00235569 C-2.54627341 0.62099248 -2.54627341 0.62099248 0 0 Z M165.45372659 206.62099248 C165.05170022 207.43028203 164.64967386 208.23957158 164.23546487 209.07338506 C150.74982395 236.19664488 150.74982395 236.19664488 144.23351175 248.41713506 C140.5165491 255.42323597 136.98453985 262.51993257 133.45372659 269.62099248 C129.61939105 277.33238455 125.76261759 285.02466522 121.70372659 292.62099248 C116.34944174 302.65110827 111.32470753 312.84583892 106.25786477 323.02297002 C101.49258086 332.59076853 96.68914225 342.12807126 91.66124612 351.56142217 C88.79383386 356.94426272 86.05551601 362.38296398 83.34972268 367.84853154 C81.12913192 372.31664292 78.81729163 376.72709972 76.45372659 381.12099248 C73.8007573 386.0549747 71.22378282 391.01456933 68.73107034 396.03114873 C68.38889978 396.71753927 68.04672921 397.4039298 67.69418985 398.11112005 C66.61298509 400.28055627 65.53323729 402.45071287 64.45372659 404.62099248 C61.64288003 410.26764988 58.8311907 415.91388645 56.01622659 421.55849248 C55.45971414 422.67443288 55.45971414 422.67443288 54.89195901 423.81291753 C50.50966495 432.59340573 46.08186144 441.33632675 41.42052346 449.97279912 C38.78011074 454.90298496 36.38124224 459.92868494 34.01622659 464.99599248 C29.90012342 473.81111259 25.43045771 482.40301553 20.85411721 490.98622686 C18.17862579 496.02003151 15.53454722 501.07024225 12.89122659 506.12099248 C12.36617532 507.11904912 11.84112405 508.11710576 11.30016214 509.14540654 C10.81329934 510.0757874 10.32643655 511.00616826 9.82482034 511.96474248 C9.39097024 512.79167608 8.95712014 513.61860967 8.51012307 514.47060186 C7.34761146 516.71522056 7.34761146 516.71522056 6.45372659 519.62099248 C10.05016526 520.44444171 13.36456635 520.74548764 17.05090696 520.74404031 C18.17206539 520.74603136 19.29322382 520.74802241 20.44835675 520.75007379 C21.67500505 520.74716095 22.90165335 520.74424811 24.16547281 520.741247 C26.1258608 520.74252864 26.1258608 520.74252864 28.12585258 520.74383616 C31.75166896 520.74607247 35.37745581 520.74207164 39.00326842 520.7370581 C42.91391918 520.73274141 46.82456826 520.7342009 50.73522073 520.73496038 C57.51010992 520.73548484 64.28498949 520.73234616 71.05987626 520.72672254 C80.85523649 520.71859701 90.65059206 520.71599124 100.4459553 520.71473455 C116.33811543 520.71254569 132.23027042 520.70589009 148.12242776 520.69643193 C163.56057854 520.68725353 178.99872793 520.68017479 194.43688089 520.67592412 C195.86418784 520.67553004 195.86418784 520.67553004 197.32032929 520.67512799 C202.09389484 520.67382296 206.86746039 520.67255925 211.64102596 520.67131609 C251.2452631 520.66094864 290.8494945 520.64333482 330.45372659 520.62099248 C331.792541 517.69872737 331.792541 517.69872737 330.46007425 515.23378545 C329.93462014 514.28648565 329.40916604 513.33918584 328.86778909 512.36317998 C327.97845681 510.73630254 327.97845681 510.73630254 327.07115823 509.07655889 C326.74729135 508.49464788 326.42342447 507.91273687 326.08974344 507.31319219 C324.34786757 504.1823479 322.63883704 501.03362087 320.92638284 497.88661748 C320.5638894 497.22235753 320.20139596 496.55809758 319.82791787 495.87370855 C315.21546413 487.39379707 310.8426943 478.78944725 306.46843606 470.18489629 C302.24850772 461.88638172 297.85771904 453.73974859 293.19713479 445.68007451 C291.1521312 442.09179625 289.31074809 438.4652502 287.51622659 434.74599248 C284.83413454 429.26379633 281.98485591 423.91786671 278.95372659 418.62099248 C276.10209801 413.62447728 273.37225349 408.59551626 270.82872659 403.43349248 C267.03805769 395.74413044 263.13819097 388.11257882 259.20372659 380.49599248 C258.87665719 379.86273046 258.5495878 379.22946843 258.2126072 378.57701665 C253.67193061 369.79649879 249.0099675 361.09186482 244.22862893 352.43984014 C239.00050458 342.91353605 234.08785936 333.22676841 229.1433323 323.55144292 C224.46502214 314.40204259 219.72945202 305.3104234 214.65856057 296.3705042 C211.72057569 291.17386705 209.0471762 285.87407973 206.42003518 280.51479131 C204.08578129 275.78930751 201.5700851 271.19558657 198.95372659 266.62099248 C195.75502693 261.01601823 192.75421276 255.34495397 189.9039219 249.55483037 C186.58758694 242.83756006 183.1595078 236.17873791 179.71965677 229.52416021 C179.04872475 228.22601055 178.37842418 226.92753432 177.70879251 225.62871343 C174.40654428 219.22478804 171.10878839 212.83275156 167.45372659 206.62099248 C166.79372659 206.62099248 166.13372659 206.62099248 165.45372659 206.62099248 Z " fill="#FEFEFE" transform="translate(4515.54627341032,-0.6209924817085266)"/>
<path d="M0 0 C111.87 0 223.74 0 339 0 C352.74585635 25.20073665 352.74585635 25.20073665 357.4375 33.875 C357.96915771 34.85710449 358.50081543 35.83920898 359.04858398 36.85107422 C361.2480752 40.91410851 363.44676248 44.97757766 365.64550781 49.04101562 C367.28421512 52.06916756 368.92323159 55.09715178 370.5625 58.125 C371.10197266 59.12144531 371.64144531 60.11789063 372.19726562 61.14453125 C375.76403046 67.72866754 379.34685221 74.30386428 382.9375 80.875 C387.89965942 89.95833055 392.81395023 99.0668951 397.71630859 108.18261719 C403.2431611 118.45827753 408.79891375 128.71812537 414.36035156 138.97509766 C416.07189457 142.13263457 417.7822074 145.29083518 419.4921875 148.44921875 C420.0689624 149.51446777 420.6457373 150.5797168 421.23999023 151.67724609 C422.33074572 153.69184151 423.42141091 155.70648582 424.51196289 157.72119141 C426.98872506 162.2948418 429.471074 166.86528599 431.96484375 171.4296875 C435.2109886 177.37664177 438.41827383 183.34422523 441.625 189.3125 C446.05816587 197.55556424 450.5096761 205.78793209 455 214 C459.969303 223.08822176 464.88469823 232.20472248 469.7890625 241.328125 C473.50260134 248.23170823 477.23924191 255.122036 481 262 C485.96929364 271.08822687 490.88469821 280.20472243 495.7890625 289.328125 C499.98193867 297.1228111 504.2094369 304.89784406 508.45654297 312.66308594 C512.37848314 319.8413934 516.25485254 327.04366236 520.125 334.25 C524.07922447 341.60934047 528.05375046 348.95467823 532.125 356.25 C541.1503072 372.42560637 549.93515514 388.72388469 558.6078186 405.09063721 C564.50471717 416.21696546 570.48968295 427.2913201 576.54199219 438.33398438 C579.16608332 443.13222202 581.77073286 447.94098176 584.375 452.75 C584.91213623 453.74177246 585.44927246 454.73354492 586.00268555 455.75537109 C590.62984509 464.30512343 595.23451611 472.86692388 599.83935547 481.42871094 C604.01666397 489.18938682 608.22764214 496.93105006 612.45678711 504.66357422 C616.37868652 511.84169676 620.25493863 519.04382268 624.125 526.25 C628.07922529 533.609342 632.05382327 540.95463659 636.125 548.25 C645.3564466 564.79855514 654.33082777 581.47525123 663.17828369 598.23156738 C669.23057588 609.69161458 675.3637222 621.10271701 681.60546875 632.4609375 C684.03614066 636.88653062 686.45603251 641.31800123 688.875 645.75 C689.61049072 647.09723145 689.61049072 647.09723145 690.36083984 648.47167969 C694.86887786 656.73958215 699.32970599 665.03265538 703.78857422 673.32714844 C707.98155494 681.1221916 712.20926233 688.8975249 716.45654297 696.66308594 C720.37848314 703.8413934 724.25485254 711.04366236 728.125 718.25 C732.07922529 725.609342 736.05382327 732.95463659 740.125 740.25 C749.3564466 756.79855514 758.33082777 773.47525123 767.17828369 790.23156738 C773.68161244 802.5456547 780.29026488 814.79699369 787 827 C789.23213137 831.06088141 791.46069459 835.12369615 793.6875 839.1875 C794.20554199 840.12754883 794.72358398 841.06759766 795.25732422 842.03613281 C795.73314941 842.90463867 796.20897461 843.77314453 796.69921875 844.66796875 C797.12033936 845.43391357 797.54145996 846.1998584 797.9753418 846.98901367 C799 849 799 849 800 852 C764.03267744 852.18303967 728.06543643 852.32404082 692.09774416 852.40852264 C687.85316657 852.4185285 683.60858989 852.42888306 679.36401367 852.43945312 C678.51898124 852.44155161 677.67394882 852.44365009 676.80330934 852.44581217 C663.1136749 852.48063976 649.42430872 852.54372549 635.73483352 852.61722237 C621.69216201 852.69198771 607.64963117 852.73646023 593.60676879 852.75270796 C584.9387062 852.76369493 576.2714018 852.79841635 567.60357257 852.86333174 C561.66278247 852.90556208 555.72238533 852.91841413 549.78145597 852.90801102 C546.35153994 852.90287738 542.92295017 852.91084135 539.49326897 852.9536438 C535.77612615 852.99328723 532.06226121 852.98394169 528.345047 852.96203613 C527.25847284 852.98533886 526.17189868 853.0086416 525.05239803 853.03265047 C517.92347026 852.9186142 517.92347026 852.9186142 515.25593889 850.26511002 C513.95749516 848.22148746 512.95577357 846.22112031 512 844 C511.40654785 842.96319092 510.8130957 841.92638184 510.20166016 840.8581543 C509.65300293 839.85695557 509.1043457 838.85575684 508.5390625 837.82421875 C507.91040283 836.68041748 507.28174316 835.53661621 506.6340332 834.3581543 C505.96434453 833.13460885 505.29466708 831.91105726 504.625 830.6875 C503.19498453 828.0827978 501.76342802 825.4789433 500.33203125 822.875 C499.97024277 822.21630417 499.60845428 821.55760834 499.23570251 820.87895203 C495.62071091 814.30056289 491.9668031 807.74412907 488.3125 801.1875 C482.99767739 791.64154719 477.76052198 782.05646523 472.57055664 772.44213867 C467.09206578 762.29983717 461.51908593 752.21102809 455.83984375 742.1796875 C450.58873687 732.90018717 445.48087135 723.54904089 440.4284668 714.15966797 C439.89777588 713.17498535 439.36708496 712.19030273 438.8203125 711.17578125 C438.34867676 710.29833252 437.87704102 709.42088379 437.39111328 708.5168457 C436.41547853 706.75169676 435.38795037 705.01471242 434.32373047 703.30151367 C433 701 433 701 433 699 C260.41 699.33 87.82 699.66 -90 700 C-98.25 716.5 -106.5 733 -115 750 C-119.95 759.405 -119.95 759.405 -125 769 C-127.81756182 774.58083797 -127.81756182 774.58083797 -130.60546875 780.17578125 C-133.55366783 786.123441 -136.52699601 792.05854602 -139.49713135 797.99526978 C-141.14835614 801.29606119 -142.79875097 804.59726752 -144.44921875 807.8984375 C-145.07340095 809.14681189 -145.697587 810.39518436 -146.32177734 811.64355469 C-146.87559082 812.75118164 -147.4294043 813.85880859 -148 815 C-148.79817708 816.59635417 -149.59635417 818.19270833 -150.39453125 819.7890625 C-150.72380615 820.44769287 -151.05308105 821.10632324 -151.39233398 821.78491211 C-152.28974372 823.57949348 -153.18783181 825.37373557 -154.0859375 827.16796875 C-155.6175306 830.23032527 -157.14117829 833.29658524 -158.6640625 836.36328125 C-159.35375122 837.74942627 -159.35375122 837.74942627 -160.05737305 839.16357422 C-160.96150723 840.98079916 -161.86407296 842.7988055 -162.76489258 844.61767578 C-163.17118896 845.43349121 -163.57748535 846.24930664 -163.99609375 847.08984375 C-164.35888428 847.82066162 -164.7216748 848.55147949 -165.09545898 849.30444336 C-166 851 -166 851 -167 852 C-168.52735219 852.09688002 -170.05919431 852.12371701 -171.58961582 852.12304783 C-172.58785801 852.12503888 -173.58610019 852.12702993 -174.61459213 852.12908131 C-176.27943969 852.12471205 -176.27943969 852.12471205 -177.97792053 852.12025452 C-179.14667093 852.12110894 -180.31542133 852.12196337 -181.51958841 852.12284368 C-184.7781938 852.12421185 -188.03675994 852.12106444 -191.29536068 852.11606562 C-194.80389669 852.11176437 -198.31243073 852.11320731 -201.82096863 852.1139679 C-207.90457154 852.11449334 -213.98816377 852.11134443 -220.07176399 852.10573006 C-228.86772831 852.0976178 -237.66368744 852.09500012 -246.4596551 852.09374207 C-260.72904709 852.09155111 -274.99843337 852.08488986 -289.26782227 852.07543945 C-303.13273083 852.06626645 -316.99763785 852.05918507 -330.86254883 852.05493164 C-331.71656684 852.05466892 -332.57058485 852.05440619 -333.4504822 852.05413551 C-337.73465593 852.05283051 -342.01882968 852.05156679 -346.30300343 852.05032361 C-381.86867302 852.03994965 -417.43433598 852.02233016 -453 852 C-451.51820083 847.39297594 -449.68421386 843.21490254 -447.39453125 838.9609375 C-447.03880035 838.29122925 -446.68306946 837.621521 -446.31655884 836.93151855 C-445.15296216 834.74362348 -443.98280542 832.55931279 -442.8125 830.375 C-441.9938394 828.83890827 -441.17556619 827.30261003 -440.35766602 825.76611328 C-437.91132481 821.17407535 -435.4564001 816.58666287 -433 812 C-432.31928222 810.72789333 -431.63861489 809.45575965 -430.95800781 808.18359375 C-428.51767838 803.62311015 -426.075387 799.06368369 -423.62963867 794.50610352 C-418.77229308 785.45345343 -413.94343476 776.38590863 -409.125 767.3125 C-408.7595105 766.62438232 -408.394021 765.93626465 -408.01745605 765.22729492 C-404.78766474 759.14586236 -401.55816753 753.06429701 -398.34765625 746.97265625 C-394.35826001 739.40385845 -390.30006157 731.87772568 -386.1875 724.375 C-381.50968871 715.84001998 -376.97405361 707.23950336 -372.49633789 698.59814453 C-369.12120581 692.10206983 -365.65405192 685.66359212 -362.125 679.25 C-356.92399459 669.79659482 -351.95651966 660.23209778 -347.01806641 650.6394043 C-343.44803501 643.72714161 -339.77004606 636.90097065 -335.9050293 630.14990234 C-333.85959143 626.5671382 -331.93906595 622.95499909 -330.125 619.25 C-326.5938899 612.03982826 -322.67088725 605.04807577 -318.78125 598.02734375 C-317.85375984 596.35178763 -316.92668332 594.67600249 -316 593 C-315.52836426 592.14720459 -315.05672852 591.29440918 -314.57080078 590.41577148 C-310.87026387 583.68187655 -307.33026926 576.87235328 -303.82366943 570.0357666 C-298.4922195 559.64864914 -293.05400158 549.33486684 -287.41943359 539.1081543 C-283.6748847 532.29162111 -280.06907773 525.40983595 -276.5 518.5 C-271.93157432 509.65644035 -267.24460111 500.89027839 -262.44921875 492.16796875 C-258.87852127 485.65614413 -255.41679743 479.09374167 -252 472.5 C-248.10901218 464.99116488 -244.13689383 457.53590531 -240.0625 450.125 C-235.18894716 441.25819575 -230.49918303 432.30599084 -225.85571289 423.31689453 C-221.8547074 415.59176149 -217.72307916 407.94743912 -213.52832031 400.32617188 C-209.0786638 392.21295505 -204.83049669 384.00070701 -200.58740234 375.77807617 C-197.70932935 370.22127534 -194.77901942 364.71759889 -191.625 359.3125 C-189.17289245 355.10525322 -186.89695661 350.87095712 -184.75 346.5 C-181.7646154 340.42768711 -178.57244933 334.49157186 -175.3125 328.5625 C-171.1132653 320.92226232 -167.00971522 313.24137969 -163 305.5 C-159.10916249 297.99108863 -155.13689185 290.53590171 -151.0625 283.125 C-146.76442913 275.30521138 -142.59540141 267.42776187 -138.5 259.5 C-133.93152048 250.65646695 -129.24460197 241.89027996 -124.44921875 233.16796875 C-120.87851929 226.65614052 -117.41694535 220.09366708 -114 213.5 C-110.20634068 206.1825642 -106.34439397 198.91110623 -102.375 191.6875 C-97.26451526 182.38006057 -92.27307808 173.01286088 -87.3125 163.625 C-86.92988007 162.90091949 -86.54726013 162.17683899 -86.15304565 161.43081665 C-84.59304716 158.4782411 -83.03325643 155.52555596 -81.47383118 152.57267761 C-76.78022192 143.68680034 -72.06362024 134.81315817 -67.34521484 125.94042969 C-66.64679077 124.6269633 -65.94838584 123.31348672 -65.25 122 C-64.9043399 121.34992981 -64.55867981 120.69985962 -64.20254517 120.03009033 C-61.99256315 115.87219418 -59.7880126 111.71145947 -57.58702087 107.54879761 C-56.06975035 104.67956825 -54.55080491 101.81122705 -53.0317688 98.94293213 C-52.31876506 97.59550877 -51.6065471 96.24766921 -50.89523315 94.89935303 C-46.68532045 86.92001874 -42.35470149 79.03465181 -37.81884766 71.23535156 C-35.90302297 67.82749803 -34.16013126 64.38411954 -32.4375 60.875 C-28.7196199 53.33194413 -24.79054242 45.90832667 -20.8125 38.5 C-20.23749756 37.42862793 -19.66249512 36.35725586 -19.07006836 35.25341797 C-12.74082332 23.48745872 -6.36326628 11.74756851 0 0 Z M168 206 C167.59797363 206.80928955 167.19594727 207.6185791 166.78173828 208.45239258 C153.31010259 235.54748411 153.31010259 235.54748411 148.0625 245.375 C143.54641888 253.83661844 139.2724601 262.41377029 135 271 C130.39035039 280.26383818 125.74211687 289.49320876 120.8671875 298.62109375 C116.39959882 307.03850422 112.19140625 315.58612398 107.9465332 324.1171875 C103.5010064 333.04766469 98.99418019 341.93491662 94.30688477 350.74169922 C91.43369261 356.14552709 88.68182797 361.60124692 85.96679688 367.0859375 C83.24324164 372.56592791 80.39834889 377.97653892 77.49584961 383.36376953 C73.49925456 390.82496694 69.76960715 398.42258999 66 406 C46.7753459 444.60900915 46.7753459 444.60900915 40.57470703 456.20629883 C36.60010475 463.67182619 32.85601701 471.25251913 29.09268188 478.82589722 C24.90990145 487.24010332 20.652543 495.60451042 16.1953125 503.87695312 C13.55007739 508.81814055 11.21463978 513.8517497 9 519 C12.21426952 519.95328805 15.10350171 520.12527685 18.45013523 520.12584114 C19.56396912 520.12844889 20.67780301 520.13105664 21.82538944 520.13374341 C23.04901328 520.13151268 24.27263711 520.12928196 25.53334045 520.12698364 C26.83321111 520.12854363 28.13308176 520.13010362 29.47234243 520.13171089 C33.0832224 520.13589312 36.694076 520.13381849 40.30495608 520.13072467 C44.19796023 520.12846634 48.09095977 520.13195234 51.98396301 520.13470459 C59.61120708 520.13915648 67.23844131 520.13818842 74.86568577 520.13529195 C81.06264853 520.13303581 87.25960853 520.13272631 93.45657158 520.13381577 C94.7783067 520.13404561 94.7783067 520.13404561 96.12674354 520.13428011 C97.91664621 520.13459982 99.70654888 520.13492404 101.49645155 520.1352527 C118.2889187 520.13810575 135.08138039 520.13482312 151.87384664 520.12945233 C166.29228396 520.12498368 180.71071322 520.12576107 195.12915039 520.13037109 C211.86208031 520.1357186 228.59500545 520.13783189 245.32793611 520.13475883 C247.1110388 520.13444027 248.89414149 520.1341259 250.67724419 520.13381577 C251.99332165 520.13358435 251.99332165 520.13358435 253.33598654 520.13334826 C259.528248 520.1324837 265.72050643 520.13394468 271.91276741 520.13629532 C279.45502957 520.13909543 286.99728131 520.13835053 294.53954227 520.13301457 C298.3899792 520.13038055 302.24039875 520.12936748 306.09083557 520.13266373 C310.25845335 520.13617764 314.42602696 520.13199126 318.59364319 520.12698364 C320.43242502 520.13032973 320.43242502 520.13032973 322.30835396 520.13374341 C323.4195801 520.13113566 324.53080625 520.12852791 325.67570591 520.12584114 C326.63840698 520.12567879 327.60110805 520.12551644 328.59298187 520.12534916 C331.14523436 520.0996233 331.14523436 520.0996233 334 519 C332.3888265 514.72214487 330.38046519 510.68644524 328.2890625 506.62890625 C327.92521957 505.91936295 327.56137665 505.20981964 327.18650818 504.47877502 C326.00208358 502.17192682 324.81382431 499.86708357 323.625 497.5625 C323.21684052 496.76946472 322.80868103 495.97642944 322.38815308 495.15936279 C317.28953847 485.25688729 312.10733099 475.41484896 306.703125 465.67504883 C300.76553423 454.89283135 295.23896153 443.89136391 289.67211914 432.91455078 C286.05758587 425.80720147 282.41422678 418.79959601 278.22119141 412.01025391 C276.51002534 409.19343236 275.06320942 406.27661453 273.625 403.3125 C269.59296349 395.11895792 265.43383484 386.99174409 261.25 378.875 C260.89994904 378.19577484 260.54989807 377.51654968 260.1892395 376.81674194 C255.46619922 367.6631336 250.63156854 358.58360813 245.64941406 349.56787109 C241.10401616 341.29451624 236.80183938 332.9015504 232.5 324.5 C227.26315315 314.27269197 221.94361336 304.11024817 216.39111328 294.04956055 C210.58687561 283.49920111 205.11378377 272.77696398 199.59277344 262.07666016 C197.41658718 257.87305818 195.21213772 253.6847651 193 249.5 C190.11339738 244.03867916 187.25172388 238.56504159 184.4140625 233.078125 C183.94501495 232.17151123 183.94501495 232.17151123 183.4664917 231.24658203 C181.91561893 228.24816829 180.36670137 225.24877767 178.8203125 222.24804688 C175.98656973 216.76411058 173.12392734 211.3245264 170 206 C169.34 206 168.68 206 168 206 Z " fill="#FEFEFE" transform="translate(1552,0)"/>
<path d="M0 0 C85.47 0 170.94 0 259 0 C259 281.16 259 562.32 259 852 C173.53 852 88.06 852 0 852 C0 570.84 0 289.68 0 0 Z " fill="#FEFEFE" transform="translate(2436,0)"/>
<path d="M0 0 C0.99 1.32 1.98 2.64 3 4 C2.236875 4.268125 1.47375 4.53625 0.6875 4.8125 C-1.98072971 5.99148522 -3.06446551 6.90317097 -5 9 C-6.66666667 10.33333333 -8.33333333 11.66666667 -10 13 C-10.495 13.5775 -10.99 14.155 -11.5 14.75 C-13.6363653 16.53030442 -15.30986889 16.21811874 -18 16 C-15.66236966 13.55747599 -13.16055628 11.45910242 -10.5 9.375 C-9.7265625 8.76398437 -8.953125 8.15296875 -8.15625 7.5234375 C-6 6 -6 6 -3 5 C-1.8499169 3.03327085 -1.8499169 3.03327085 -1 1 C-0.67 0.67 -0.34 0.34 0 0 Z " fill="#B3B3B3" transform="translate(820,614)"/>
<path d="M0 0 C0.99 1.32 1.98 2.64 3 4 C1.02 4.66 -0.96 5.32 -3 6 C-2.42655063 3.13275314 -2.1385485 2.1385485 0 0 Z " fill="#CECECE" transform="translate(820,614)"/>
<path d="M0 0 C0.66 0.33 1.32 0.66 2 1 C0.25 5.875 0.25 5.875 -2 7 C-2.66 5.68 -3.32 4.36 -4 3 C-2.68 2.01 -1.36 1.02 0 0 Z " fill="#DDDDDD" transform="translate(3141,305)"/>
<path d="M0 0 C1.32 1.65 2.64 3.3 4 5 C3.67 5.66 3.34 6.32 3 7 C1.68 6.67 0.36 6.34 -1 6 C-1.042721 4.33388095 -1.04063832 2.66617115 -1 1 C-0.67 0.67 -0.34 0.34 0 0 Z " fill="#D1D1D1" transform="translate(2045,286)"/>
<path d="M0 0 C0.66 0.99 1.32 1.98 2 3 C0.95125002 5.62187494 0.35068687 6.79371361 -2.125 8.25 C-2.74375 8.4975 -3.3625 8.745 -4 9 C-2.94124926 5.59687262 -1.99097846 2.98646769 0 0 Z " fill="#C3C3C3" transform="translate(4366,276)"/>
<path d="M0 0 C0.66 0.99 1.32 1.98 2 3 C-2.75 7.875 -2.75 7.875 -5 9 C-3.7508258 5.54074837 -2.32472205 2.85306797 0 0 Z " fill="#BFBFBF" transform="translate(5370,104)"/>
</svg>
